<svg xmlns="http://www.w3.org/2000/svg" width="2.24in" height="2.86in" viewBox="0 0 161.16 206.13"><defs><style>.cls-1{fill:#fff;}.cls-2{fill:#131515;}.cls-3{fill:#0e1111;}.cls-4{fill:#101313;}.cls-5{fill:#0f0f0f;}.cls-6{fill:#171a1a;}.cls-7{fill:#151818;}.cls-8{fill:#161919;}.cls-9{fill:#0c0f0f;}.cls-10{fill:#191c1c;}.cls-11{fill:#131616;}.cls-12{fill:#181b1b;}.cls-13{fill:#1e2121;}.cls-14{fill:#333535;}.cls-15{fill:#f9f9f9;}.cls-16{fill:#6b6d6d;}.cls-17{fill:#d0d0d0;}.cls-18{fill:#f3f3f3;}.cls-19{fill:#e2e2e2;}.cls-20{fill:#fdfdfd;}.cls-21{fill:#be1e2d;}.cls-22{fill:#0a0a0a;}</style></defs><title>dye-in-style-logo</title><g id="Layer_2" data-name="Layer 2"><path class="cls-1" d="M68.07,188.18l-2.76-14.59s-4.3.53-6.93-2.45-3.88-2.66-5.38.68c0,0-4.75-2.94-4-8.31,0,0-6.82-2.57-7.55-7.33a7,7,0,0,0-4.11-3.69c-3.11-1.08-7.32-5.33-6.09-8.58,0,0-10.86-3.56-11.19-10.15s-1.76-10.89-3-15.87S7.25,95.12,13.25,89.14s8.09-3.24,8.09-3.24-2.66-8.16,0-11.95,1.48-4.08,2.91-8.57c.74-2.32,8-6.29,10.75-7.76s18.3-5.22,21-9.34,3.75-13.47,12.24-15.42,9.3,0,13.27,0,9.42-5.13,18.82-3.79S119.22,36.49,122,36.2s19.56,4.21,21.41,12.09,2.43,21.95,5.77,27.16,6.43,12.8,5.76,25-.2,19.64-5.76,25.62c0,0-1.06,1.37-2.24,7.86s-8.31,18.33-10.94,15.48c0,0-2.12,10.45-5.68,17.35s-.44,13.46,0,17.05S112.29,192.69,68.07,188.18Z" transform="translate(-11.13 -6.02)"/></g><g id="Layer_1" data-name="Layer 1"><path class="cls-2" d="M109.59,69.3l-1,.69c.1-.4.09-.57.18-.66,2.85-3.26,3.9-7.26,4.62-11.37.62-3.55,1.12-7.23,0-10.69-1.54-4.77-4-9-9.26-10.65a10.51,10.51,0,0,0-7.71.67,58,58,0,0,0-8.52,4.78c-3.67,2.54-4.37,6.34-3.31,10.46.69,2.69,1.71,5.3,2.57,8,.36,1.1.71,2.2,1,3.3a5.57,5.57,0,0,1-.52,4.5c-2.6,4.61-10.06,7.27-15,5.32l0-.39c5.35,1.5,9.73-.24,13.43-4.09a4.89,4.89,0,0,0,1.2-5.31c-1-2.89-2.13-5.76-3-8.69a25.29,25.29,0,0,1-1-5.38,9.25,9.25,0,0,1,4.36-8.79c2.76-1.85,5.69-3.45,8.29-5a32.54,32.54,0,0,0-11.43,2.54,12.23,12.23,0,0,1-7.52,1A15.74,15.74,0,0,0,69,40a8,8,0,0,0-4.85,4.52c-1.17,2.65-2,5.49-3.88,7.78a1.71,1.71,0,0,0-.21.86c-.4.15-.72.17-.86.34A5.09,5.09,0,0,1,56,55.2a23.42,23.42,0,0,0-11.39,5.23c-1.32,1.15-2.75,2.18-4.72,2-.49-.05-1.08.45-1.55.79-.83.62-1.57,1.37-2.43,1.95a9.23,9.23,0,0,1-1.63.58,6.5,6.5,0,0,0-2,1c-1.51,1.42-2.92,3-4.34,4.47a1.49,1.49,0,0,0-.21.72c-.18,1-.05,2.19-.57,2.94-2.47,3.55-2,7.36-1.53,11.3.38,3.23,2.28,4.95,5,6.14a3.47,3.47,0,0,0,1.39.25c4.91,0,9.83.05,14.67-1l0,.32c-2.4.52-4.79,1.37-7.21,1.5-4.48.23-9,.14-13.47,0a8.93,8.93,0,0,1-3.62-1.39,1.5,1.5,0,0,0-1.83.06c-4.12,2.85-5.09,6.72-2.79,11.54a6.43,6.43,0,0,1,.7,3.17,6.69,6.69,0,0,0,3.22,6.29,1.24,1.24,0,0,1,.63,1.48,10.81,10.81,0,0,0,.85,5.49c.6-2.62,2.64-3.9,4.6-5.26A22,22,0,0,0,35,107.24l.11,0,.11,0v.88l.27.11,1-1.49h.24c-1.09,5.33-4.48,8.67-9.43,10.71a2.1,2.1,0,0,0,1.12-.11c5.37-2,9.06-5.47,10.08-11.33h0a8.37,8.37,0,0,1-1.32,6l-1.44,2.43-.95.39v.33l-.09-.07c-2.49,2.28-5.6,3.24-8.73,4.15a2.6,2.6,0,0,0-2.14,2.28,18,18,0,0,0,.3,4.15c.26,1.52.74,3,1.12,4.51a6.85,6.85,0,0,1,.19,1,7.09,7.09,0,0,0,4.9,6.46,15.34,15.34,0,0,0,6.74.74c1.16-.09,1.87.21,2,1.53l2.3-1.44.14.23a28.92,28.92,0,0,0-2.76,2.62,12.2,12.2,0,0,0-1.25,2.48c.85.35,1.7.72,2.56,1a3.09,3.09,0,0,0,1,0l1.36-4.56.34.1-.8,4.47A10.92,10.92,0,0,0,48,143.35,35.4,35.4,0,0,0,52.46,139l0,.6-.3.5.3.26.21-.51.83-1,.38.34c-2.32,3.28-5.57,5.79-8,9.18.58-.21,1.1-.38,1.6-.6s1.06-.27,1.21.54a1.15,1.15,0,0,0,.49.77c1.16.5,1.91,1.7,3.34,1.79.44,0,.83.75,1.07,1.34.08,0,.17.06.22,0,.63-.31,1.44-.94,1.88-.11a3,3,0,0,1,.09,2.41c-1.54,3.17-4.41,3.17-6.79,2.46-.57-.17-1.11-.43-1.67-.65l-.75-.14,0,.16.35.23c1,.53,1.92,1.13,2.93,1.58s2.07.72,3.2,1.1c-1.45,2.75-1.06,5.47-.43,8.35l.89-1.09.24.26-1.16,2.41c-1-3.27-1.58-6.35-.45-9.55-2.73-1-5.81-1.46-7.27-4.5a6.28,6.28,0,0,1-.19-1.7c1.05.77,1.73,1.3,2.46,1.78a7,7,0,0,0,4.77,1.22A3.43,3.43,0,0,0,55,152.59l-2.53,1.88-.24-.22.3-2.61c-.65.26-1.07.46-1.51.59a7.57,7.57,0,0,1-1.07.17c.07-.32.14-.64.22-1a2.23,2.23,0,0,1,.1-.29L47.49,149c-1.29.33-2.73.77-4.2,1a3.21,3.21,0,0,1-3.83-2.1,1.1,1.1,0,0,0-.61-.64c-2.75-1-3-3.44-2.1-5.71.27-.65.61-1.28.83-1.76a61.52,61.52,0,0,1-6.86-.8c-3.95-.89-6.09-3.5-6.61-7.54-.05-.39-.19-.77-.28-1.16a30.89,30.89,0,0,1-1.11-5.11c-.13-2.43-1-4.65-1.48-7-.25-1.24.07-2.66-.39-3.77s-1.67-1.84-2.39-2.86a8.88,8.88,0,0,1-1.4-5.35,4.09,4.09,0,0,0-.34-1.69c-1.27-2.74-2.06-5.55-1.2-8.57.79-2.76,2.82-4.48,5.17-5.86a2,2,0,0,1,2.34.36,6.15,6.15,0,0,0,3.74,1.33c-3.09-3.23-2.91-7.31-3.05-11.25a9.77,9.77,0,0,1,1.74-5.88c.58-.86,1.3-1.77.45-2.94-.14-.19.08-.8.31-1.05,1.53-1.69,3.06-3.37,4.68-5a5.13,5.13,0,0,1,3.56-1.74c.47,0,1-.53,1.39-.86.83-.62,1.61-1.31,2.46-1.9a2.13,2.13,0,0,1,1.32-.47c1.67.25,2.85-.63,4-1.59A25.81,25.81,0,0,1,56,53.62a4.28,4.28,0,0,0,2-1.11,14.9,14.9,0,0,0,3.88-6.37c1.54-4.87,4.74-7.81,9.92-8.18a30.84,30.84,0,0,1,6.69.24,8.33,8.33,0,0,0,4.4-.63C95,32.9,106.95,33.1,118.56,39.44c1,.52,2.24.44,3.36.69,10.5,2.32,16.75,8.92,19.06,19.28.59,2.67.56,5.47.95,8.19.25,1.77.75,3.5,1.13,5.25s.72,3.44,1.12,5.14a3,3,0,0,0,.58,1.13c1.29,1.63,2.53,3.32,4,4.81s1.71,3.41,1.57,5.42-.2,3.81-.31,5.72c-.06,1.07-.21,2.14-.24,3.22a5.15,5.15,0,0,0,.25,1.5c.45,1.59.9,3.16.15,4.78h-.41a7.54,7.54,0,0,0-.31-4.91,6.25,6.25,0,0,1-.16-1.84c0-.6.15-1.19.17-1.79.08-2.34.11-4.68.21-7A5.42,5.42,0,0,0,148,84.35c-.21-.18-.34-.45-.55-.63-3.83-3.19-4.85-7.7-5.67-12.25-.53-2.93-.81-5.9-1.23-8.85-1.09-7.56-4.14-14-10.85-18.17A24.17,24.17,0,0,0,119.48,41a5.24,5.24,0,0,1-1.89-.62,34.54,34.54,0,0,0-9.22-3.56c-.18,0-.36-.05-.75-.11a3.24,3.24,0,0,0,.41.66c5.55,4.73,7.56,10.74,6.54,17.89a34.51,34.51,0,0,1-3.26,11.44,1.54,1.54,0,0,0-.2.56c-.11,1.29-.21,2.58-.31,3.93l1.44-.92c0,1,.51.06.74.19l-.21.85,1,1,2.9-2.21.19.17-.28.81-.25.58.29,0,2.53-1.73v1.86l2.79-2.1.91-.68v.93l-.15.21,0,.29.21-.15.27-.21c1,.1.13.69.26,1l-.06.54.35-.19,1.46-.89c-.11,2-.16,3.76-.32,5.51-.07.79,0,1.2.91,1.44a11.91,11.91,0,0,1,6.06,3.6c.07.08.25.08.38.12h0a1.47,1.47,0,0,0,.13.51,12.18,12.18,0,0,1,2.28,8.36,10.68,10.68,0,0,0,1,5.24q1.57,3.56,3,7.16a5,5,0,0,1-.11,4.62A12.81,12.81,0,0,0,137,116.7c.76,3.77.28,7.47-.37,11.18-.17,1-.31,1.92-.46,2.88l-.31,0c.13-1.28.16-2.58.4-3.84a33.2,33.2,0,0,0-.18-11.79,10.87,10.87,0,0,1,1.21-7.53,5.26,5.26,0,0,0,.21-5.25c-.83-1.77-1.48-3.62-2.36-5.36a15.44,15.44,0,0,1-1.63-8.11,10.08,10.08,0,0,0-2.78-7.3,11.48,11.48,0,0,0-6-3.25c-.8-.22-1-.56-1-1.31.1-1.39.14-2.78.22-4.45l-3.24,3-.15-.09.94-2.44-2,1.14-.7-.87-1.75,1.05-.34-1.43-5.08,3.26-.58-1.67-3.53,1.15v0l.87-.76-.14-.37a12.22,12.22,0,0,0-6.23,2c-.11-1.22.56-1.76,1.54-2.13,2.49-.93,4.84-2.06,6.27-4.48l.37-.6.11-.36.18-.72-.28.24-.27.35Zm-.29,2.82-.35.19.06.14.51-.15.09-.35Zm-62.39,73-5,1a5.08,5.08,0,0,0,0,.78c.25,1.71,1,2.06,2.38,1a37,37,0,0,0,2.74-2.63l.06-.26Zm-11.52-37-4.23,5.49C32.5,113.53,35,110.54,35.39,108.14Zm5.83,40.31-.35-2.53H38.68C40.27,146.05,40.38,147.57,41.22,148.45ZM107.8,36.9a1.72,1.72,0,0,0-.33-.24s-.13,0-.19.06.08.18.14.21S107.6,36.93,107.8,36.9ZM110,71.79l-.09-.09a.75.75,0,0,0-.08.16s0,.05.08.08Zm2.43.27s-.06-.08-.08-.07a.75.75,0,0,0-.16.07s.06.08.08.07A.64.64,0,0,0,112.48,72.07Z" transform="translate(-11.13 -6.02)"/><path class="cls-1" d="M22.42,54a7.45,7.45,0,0,0,.77,1.94c1.46,1.89,4,1.55,4.52-.75a17.25,17.25,0,0,0,.35-5.91c-.46-4.16-1.24-8.29-1.85-12.44a14.77,14.77,0,0,1-.11-2.63c0-1.52.84-2.52,3.15-4A15.65,15.65,0,0,1,30.37,33c.57,2.94,1,5.91,1.49,8.86.22,1.27.52,2.53.79,3.8h.54a10.8,10.8,0,0,0,.43-2.53c-.24-3.46-.59-6.92-.9-10.38-.12-1.35-.26-2.7-.35-4.06a3.16,3.16,0,0,1,1.14-2.87c.89-.72,1.7-1.56,2.66-2.45.57,3.46,1.12,6.77,1.67,10.07.3,1.81.58,3.63.95,5.42.09.43.51.79.78,1.18a9,9,0,0,0,.83-1.33,4,4,0,0,0,0-1.26c.34.28.65.41.76.63a3.94,3.94,0,0,1-1.28,4.5c-1.12.73-2.14.61-2.72-.58a16.27,16.27,0,0,1-1.23-3.84c-.67-3.33-1.23-6.68-1.83-10a.88.88,0,0,0-.35-.61A6.46,6.46,0,0,0,33.58,29c.32,3.74.73,7.47,1,11.22a43.69,43.69,0,0,1-.09,4.77,1.44,1.44,0,0,1-.28.9c-.62.62-1.23,1.45-2,1.66-1,.27-1.62-.71-1.84-1.54-.63-2.34-1.13-4.72-1.66-7.08-.25-1.09-.44-2.19-.72-3.27a5.49,5.49,0,0,0-.63-1.16l-.36.12c.29,2,.62,4.06.87,6.09.48,3.92,1,7.84,1.35,11.77A5.33,5.33,0,0,1,27.69,57a3.31,3.31,0,0,1-5.06-.28c-1.49-1.72-1.75-4.37-.49-5.84.29-.35.94-.75,1.25-.64a1.91,1.91,0,0,1,1,1.19c.4,1.5-.49,2.61-1.76,2.33l-.26-.07Z" transform="translate(-11.13 -6.02)"/><path class="cls-3" d="M94.78,73.2l3.31-2.64.31.25c-.47.88-.91,1.78-1.41,2.64A3.25,3.25,0,0,0,96.86,77v.48c-2-.18-3.47-1.26-5.09-2.42l-1-.32c-4.45,4.69-10.52,4.78-16.59,4.59a28.28,28.28,0,0,1-6.94-1.12,11.39,11.39,0,0,1-8.58-9.86,25.55,25.55,0,0,1,.62-10.28c-.07,1.33-.24,2.67-.19,4a40.75,40.75,0,0,0,.49,6.78c1,4.91,4.33,7.68,9.08,8.76a32.84,32.84,0,0,0,15.55-.21c5.24-1.33,7.94-4.77,7.79-10.16-.09-3.3-.68-6.58-1-9.88-.21-2.24-.32-4.48-.48-6.72l.34,0L91,52.24c1.15-.18,2.26-.39,3.38-.51,2.22-.24,3.18.25,4.1,2.27,1.15,2.53,1.66,5.12-.11,7.61-1.07,1.51-2.19,1.83-3.66,1,2.56-.9,3-3,3.17-5.57-1.59,2.17-3.66,2.33-5.93,2.16.63,4,1.41,7.91.51,12.06L97,68.44,94.56,73l-.07.51.12,0Z" transform="translate(-11.13 -6.02)"/><path class="cls-1" d="M70.27,198.34a10.39,10.39,0,0,0-6-1.15c-2.91.44-4,2.24-3.32,5.26a5.55,5.55,0,0,1-1.43-.89,4.45,4.45,0,0,1-.49-4.84A3.94,3.94,0,0,1,63.29,195a51.61,51.61,0,0,1,6.2,2.11,2.26,2.26,0,0,0,2.74-.26c1.85-1.56,4.11-1.6,6.37-1,2,.51,3.05,1.88,2.92,3.56A3.84,3.84,0,0,1,78,202.69a5.82,5.82,0,0,1-1.55-.09c-2.38-.43-2.91-1.77-1.48-3.66-1.46-.33-1.66-.28-1.89,1.18a9.84,9.84,0,0,0,0,3c.71,4.54-1.53,8.14-5.72,8.92a8.3,8.3,0,0,1-6.58-1.53,3.82,3.82,0,0,1-1-5.41,5.21,5.21,0,0,1,5.54-2.43c1.21.34,1.52,1.22.64,2.11a3.55,3.55,0,0,1-1.61.93c-1.26.31-1.74-.11-1.86-1.46a2.91,2.91,0,0,0-2.14,2.58,3.05,3.05,0,0,0,1.53,3.14c3.41,2.18,7.56,0,8-4.31.1-.94-.06-1.91,0-2.87C70,201.35,70.15,199.95,70.27,198.34Zm7.76-.83.26.33a4.09,4.09,0,0,1-.85.48c-1.27.37-2.3,1.44-2.11,2.27s1.73,1.27,3.05.85a2.55,2.55,0,0,0,1.73-3.57c-1.06-1.88-4.45-1.93-5.7,0Z" transform="translate(-11.13 -6.02)"/><path class="cls-1" d="M95.32,8.91A8.13,8.13,0,0,0,90,12.24a2.33,2.33,0,0,0,.12,3.23c-.91,1-2.68.48-3.32-1a3.11,3.11,0,0,1,.53-3.26C89,9,91.46,8.11,94.11,7.63a1.55,1.55,0,0,1,.24,0A9.71,9.71,0,0,0,99.5,6.48a6.34,6.34,0,0,1,2-.46c.2.75.19.72-.62,1-.51.2-1,.5-1.58.81,2.88,1.86,3.36,4.52,2.95,7.48A12.76,12.76,0,0,1,99,22.44c-2.9,3.14-6.65,3.11-9.54,0-.14-.15-.23-.33-.18-.25a33.17,33.17,0,0,1-4,.57A2.17,2.17,0,0,1,83,20.81a2,2,0,0,1,2.16-2,17.66,17.66,0,0,1,3.42.51L95.49,9.12l.21-.19Zm3.17-.37-8,12.7a4.37,4.37,0,0,0,6.25.27,11,11,0,0,0,4.2-9.83A3.29,3.29,0,0,0,98.49,8.54Z" transform="translate(-11.13 -6.02)"/><path class="cls-1" d="M49.62,185.84c-.2.33-.32.76-.61,1a4.57,4.57,0,0,1-6.38-1.11,17.45,17.45,0,0,1-1.88-3.46c-.39-1-.92-1.18-1.83-.89-.61.19-1.24.31-1.84.52-1.57.57-3.12,1.17-4.78,1.8A6.61,6.61,0,0,0,37,187.1c-.46.42-.71.83-1,.92a4.07,4.07,0,0,1-4.86-2.29c-.2-.43-.38-.87-.49-1.15-2.33.52-4.56,1.15-6.83,1.48a6.06,6.06,0,0,1-5.76-2,3.21,3.21,0,0,1,.26-4.87c1.79-1.62,4.75-1.94,6.41-.62.37.29.82.89.73,1.22a1.86,1.86,0,0,1-1.12,1.06,3,3,0,0,1-1.73,0c-.87-.26-1.42-.81-.75-1.79-.1,0-.17-.1-.24-.09-2.11.33-3.62,1.77-3.37,3.22s1.94,2.37,4.11,1.84c2.58-.62,5.09-1.53,7.84-2.38l-1.25-3.41c.73-.37.73-.37,2.3,2.81,2.75-.81,5.48-2,8.46-.88L40,180a49.62,49.62,0,0,0-2.83-4.42,3.2,3.2,0,0,0-3.81-.89,1.43,1.43,0,0,0-.46,2.51c.2-.33.35-.91.64-1a7.08,7.08,0,0,1,2.35-.24c.21,0,.61.9.51,1a4.47,4.47,0,0,1-1.71,1.43,2.41,2.41,0,1,1-1.14-4.66,4.33,4.33,0,0,1,4.66,1.72c.95,1.23,1.64,2.64,2.56,3.89a55.53,55.53,0,0,0,3.93,4.94,4.52,4.52,0,0,0,4.63,1.3Z" transform="translate(-11.13 -6.02)"/><path class="cls-1" d="M136.16,190.18l-1.11,1a6.62,6.62,0,0,0,2.57,3.65c3.5,2.94,3.94,7.29,1.08,10.58a8.25,8.25,0,0,1-6,2.87c-3.27.16-5.24-3.54-3.52-6.72a7.08,7.08,0,0,1,2.32-2.3c.82-.55,1.62,0,1.63,1a3.86,3.86,0,0,1-.46,1.92c-.67,1.15-1.5,1.2-2.51.23a3,3,0,0,0,0,3.28,3,3,0,0,0,3,1.49,5,5,0,0,0,4.33-6.77,14.43,14.43,0,0,0-2.17-3.38c-1-1.32-2-2.57-3.23-4.05a9.14,9.14,0,0,0-5.93,4c-1.14,1.94-.51,3.78,1.61,5a4.78,4.78,0,0,1-1.54.39,4.31,4.31,0,0,1-3.56-3.13,3.46,3.46,0,0,1,1.57-4,31.58,31.58,0,0,1,4.39-2.1,12.2,12.2,0,0,1,2-.65,2.34,2.34,0,0,0,2.1-2.11c.52-2.7,2.51-4.28,5.06-5.09a3,3,0,0,1,3.4.86,3.1,3.1,0,0,1,.52,3.57,6.46,6.46,0,0,1-1.86,2.24C137.86,193.46,136.44,192.78,136.16,190.18Zm1.66-2.84.32,0a4.23,4.23,0,0,1-.37.93c-.77,1.1-.84,2.69-.1,3.18s2.13-.24,2.78-1.32a3.87,3.87,0,0,0,.47-1.22,2.35,2.35,0,0,0-2.31-2.84,3.81,3.81,0,0,0-3.53,4Z" transform="translate(-11.13 -6.02)"/><path class="cls-1" d="M155.33,31.73c-1.58-.53-1.67-.55-2.32.94a9.71,9.71,0,0,0-.67,2.52,7,7,0,0,1-5.58,6.26,8.23,8.23,0,0,1-8.11-3.77,3.62,3.62,0,0,1,.6-4.41,5.07,5.07,0,0,1,6.14-1c1.06.65,1.12,1.67,0,2.2a4.17,4.17,0,0,1-2.18.29c-1-.12-1.19-.88-.79-1.84a3,3,0,0,0-2.82,1.87,3,3,0,0,0,.45,3.15,4.83,4.83,0,0,0,7.76-.06,15.29,15.29,0,0,0,1.64-3.54c.57-1.41,1.06-2.86,1.67-4.54a9.6,9.6,0,0,0-5.67-2.89c-2.34-.26-3.89,1.28-4,3.88-.36-.34-.9-.6-1.06-1a4,4,0,0,1,.63-4.38,3.36,3.36,0,0,1,3.94-.9A13.4,13.4,0,0,1,147.83,26a18.69,18.69,0,0,1,2.47,2.08,2.93,2.93,0,0,0,3.5.93c2.41-.87,4.65.11,6.51,1.73A2.83,2.83,0,0,1,161.2,34a3.11,3.11,0,0,1-2.79,2.14,5.56,5.56,0,0,1-2.44-.37C153.55,34.8,153.34,33.31,155.33,31.73Zm3.28.06-.18.36-.69-.06c-1.39-.08-2.64.63-2.67,1.5s1.46,1.7,2.74,1.62A2.39,2.39,0,0,0,160,31.66c-.85-1.38-3.38-2.17-4.84-1C156.14,31.37,157.64,30.94,158.61,31.8Z" transform="translate(-11.13 -6.02)"/><path class="cls-4" d="M32.21,129.6c1.22.6,2.38,1.53,4.19.73L35,127.38l.22-.23.07-.25,1,.9.27.47.14,0-.16-.71c-1.44-2.65-2.68-5.37-2.45-8.49a9.61,9.61,0,0,1,.81-3.15c-1,5.19,1.31,9.27,4.12,13.38a16.42,16.42,0,0,1,.55-3.36,22.91,22.91,0,0,1,2.34-4.67c1.54-2.24,3.35-4.3,2.89-7.31L46,113.7c2.37,3.47,2.22,5.69-.67,8.72a11.16,11.16,0,0,0-3,4.55,5.27,5.27,0,0,0-.08,1.14c.42,0,.92.19,1.23,0,1.49-.81,2.94-1.69,4.39-2.58a6.6,6.6,0,0,0,.91-.84c-.17,3.37-3.34,6.76-6.33,6.77A12.58,12.58,0,0,1,40,131c-.17.57-.18,1.54-.65,1.91a5,5,0,0,1-2.52.83A6.07,6.07,0,0,1,32,132.21c-.28-.24-.52-.53-.77-.79l.25-.33a9.58,9.58,0,0,1,.85.52,6.21,6.21,0,0,0,5.44,1c.92-.22,1.3-.76.81-1.66-.4-.73-.84-1.44-1.26-2.17l-.3-.37-.18.38c.05.81.45,2,.09,2.32a3.23,3.23,0,0,1-2.55.4,10.16,10.16,0,0,1-2.55-1.64Zm11.71-7.79c2.33-.74,3.81-4.23,2.39-6.1C46,118.55,46,118.55,43.92,121.81ZM41,130c1.93,1.13,4.89.16,5.42-1.77C44.7,129.31,43.2,130.77,41,130Zm-1.75-.52s0-.07-.06-.08-.06,0-.09,0l.1.13Z" transform="translate(-11.13 -6.02)"/><path class="cls-5" d="M96.65,160.59c-3.58.06-7.73-2.83-11.3-6.84a1.23,1.23,0,0,1,.15-2c2.36-1.82,4.7-3.69,7.17-5.36a5.11,5.11,0,0,1,4.5-.36,3.34,3.34,0,0,0,2.15-.08,5.2,5.2,0,0,1,5.54.49c2.34,1.73,4.58,3.59,6.85,5.41a1.15,1.15,0,0,1,.14,1.8C108.33,157.57,104.33,160.59,96.65,160.59Zm14.4-7.82c-.6-.54-1.12-1-1.68-1.49a60.05,60.05,0,0,0-5.13-3.91,7.6,7.6,0,0,0-3.26-.77c-.41,0-.85.69-1.33.76a7.36,7.36,0,0,1-3.95-.09,1.62,1.62,0,0,0-.92-.1c-3.59.83-6.23,3.13-8.78,5.58C93.26,161.88,104.2,161.74,111.06,152.77Z" transform="translate(-11.13 -6.02)"/><path class="cls-2" d="M20.08,99.56l7.09,1.36.63.12,0-.18-.47-.22a18,18,0,0,0-7.95-2.14,11,11,0,0,1,6.39.53c3,1,5.91,2.23,9.12,2.32a11.2,11.2,0,0,0,3.14-.27,28.34,28.34,0,0,1-3.31-.43c-2.35-.58-4.7-1.22-7-2s-4.63-1.71-7.2-1.27l0-.43a10.71,10.71,0,0,1,2.9-.19c2.53.53,5,1.29,7.52,1.91,4.28,1.06,8.58,1.92,13,1.31a13.94,13.94,0,0,0,2.16-.65l.16.2c-.66.44-1.35.84-2,1.33a13.4,13.4,0,0,0-1.25,1.26l-.67.73h0l-2.24.91c-4.44,1-8.59-.18-12.71-1.69-2.42-.89-4.91-1.58-7.36-2.37Q20.08,99.65,20.08,99.56Zm11.65,2.65c3.94,1.3,8.75,1.57,11-.74A26.22,26.22,0,0,1,31.73,102.2Zm-3.33-1V101L28,101a.3.3,0,0,0,0,.08Zm1.94.92a.31.31,0,0,0,.1,0s0-.05,0-.08a.31.31,0,0,0-.1,0S30.34,102.06,30.33,102.09Z" transform="translate(-11.13 -6.02)"/><path class="cls-6" d="M60.16,93.85a2.76,2.76,0,0,1,0,.68,26.23,26.23,0,0,0-.73,11.14,36.27,36.27,0,0,1-.15,10.75,30.6,30.6,0,0,0,1.27,15c2.29,7.43,4.43,14.9,6.63,22.35a2.4,2.4,0,0,1,0,1.44c-.63-1.77-1.31-3.53-1.87-5.32q-3.61-11.71-7.14-23.44a17.93,17.93,0,0,1-.12-8.33,61.27,61.27,0,0,0,.4-14.58,21.8,21.8,0,0,1,1.24-9.19c.07-.18.15-.34.23-.51Z" transform="translate(-11.13 -6.02)"/><path class="cls-7" d="M135.57,134.74l-1.5,8.9a3.1,3.1,0,0,0,3.17-1.12,30.51,30.51,0,0,0,3-4.66,43.21,43.21,0,0,0,2.18-5c.58-1.53,1-3.11,1.64-5a10.1,10.1,0,0,1,0,3.07c-1.2,3.24-2.48,6.46-3.94,9.59a6.81,6.81,0,0,1-2.49,2.68,16,16,0,0,1-3.69,1.21c-.76,2.88-1.57,6.16-2.5,9.41a53,53,0,0,1-4,9.56,19.52,19.52,0,0,0-1.69,7.39c-.27,3.73-.07,7.49-.07,11.24l-.45,0c-.13-1.13-.31-2.26-.39-3.4a41.06,41.06,0,0,1,.82-13.45c.35-1.32,1.17-2.51,1.65-3.8,1.48-3.95,3.12-7.85,4.3-11.89,1.45-5,2.49-10.06,3.71-15.1Z" transform="translate(-11.13 -6.02)"/><path class="cls-8" d="M72.37,163.52a10.54,10.54,0,0,1,1,.84c4.68,5.11,9.9,9.53,16.34,12.28,4.31,1.85,8.78,2.93,13.52,2.1a19.94,19.94,0,0,0,8.47-3.73c3.36-2.5,6.56-5.22,9.83-7.84a3.24,3.24,0,0,1,1-.63c-3.84,4-7.76,7.93-12.63,10.66a25.89,25.89,0,0,1-6.31,2.46c-4.17,1-8.26.21-12.21-1.22-7.94-2.88-14-8.27-19.19-14.69Z" transform="translate(-11.13 -6.02)"/><path class="cls-9" d="M64.27,107.79c2.43-2.54,4.85-5.08,7.3-7.59a1.33,1.33,0,0,1,1.11-.33c4.76,1.59,9.5,3.22,14.25,4.85.09,0,.17.11.23.41-1.44-.11-2.88-.18-4.3-.35-2.69-.33-5.37-.78-8.07-1.08a4.47,4.47,0,0,0-2.26.31c-2.39,1.09-4.72,2.32-7.08,3.49l-1,.49Z" transform="translate(-11.13 -6.02)"/><path class="cls-4" d="M138.93,74.61l1.88-.84c-2.38,2.61-5.1,4.62-8.67,5.19l2.33-1.91-.24-.4-2.31.86-.23-.07c.13-1.55,1.49-2.15,2.38-3.11l.45-.32L136,72.87l-.2-.3-1.65,1.11-.61.41-2.9,1.52-.1-.16,3-3.26v0l.47-.73h.26l0-.26h.26l0-.27,0,0,.63-.24.35-.35.24-.63,0,0,.27-.26,0,0,.27-.26,0,0,.26-.32.24-.22.22-.19q0-.1,0-.2l.25-.29,0,0,.41-.5a6.15,6.15,0,0,0,.9-4.29c.75.63,1.09,5.38.58,7.61l0,.3.25-.16c.15.31.49.71.41.93a19,19,0,0,1-1.12,2.13l-.64.54-.47.47-.29.27.07.11.38-.21.59-.31Zm-.47-2.12c.28-.36,1.18-.46.56-1.42l-.82,1.24-.17.2-1.93,1.69-.33.27.09.14.43-.2,1.93-1.67Zm-3.74,4.13a1.55,1.55,0,0,0-.33-.08s-.06.12-.09.18a1.06,1.06,0,0,0,.28.08S134.66,76.7,134.73,76.62Zm-2.7.13s-.07.05-.07.07A.71.71,0,0,0,132,77s.07-.05.07-.07A.59.59,0,0,0,132,76.75Z" transform="translate(-11.13 -6.02)"/><path class="cls-10" d="M46.72,91.82l0-.32a4.34,4.34,0,0,0-.76-.57c-3-1.35-6-2.5-8.89-4.06a8.71,8.71,0,0,1-4.85-7.62,16.75,16.75,0,0,1,2-8.85,3.3,3.3,0,0,1,.92-1,31.82,31.82,0,0,0-1.41,3.71A26.44,26.44,0,0,0,33,77.77a8.2,8.2,0,0,0,4,7.83A38.55,38.55,0,0,0,52.7,91.49c3.9.52,7.27-1.18,10-3.89,1.42-1.39,2.64-3,3.8-4.3-1.4,4.06-7.29,9.88-14,9.2-1.34-.14-2.65-.55-4-.75A9.51,9.51,0,0,0,46.72,91.82Z" transform="translate(-11.13 -6.02)"/><path class="cls-11" d="M137,68.39q0,.1,0,.2l-.22.19-.24.22-.26.32,0,0-.27.26,0,0-.27.26,0,0-.24.63-.35.35-.63.24,0,0-.25.26h0l-.24.25h0l-.76.46-.26.24-1.23.8-.39-.06.54-1.08-1.93.86-.39-.06a2,2,0,0,1,.06-.21l1-.78-.19-.27-1,.61-2.31-.68.93-.68-.76-.29.57-.24a6,6,0,0,0,1-.69c.08-.08-.12-.46-.2-.7l1.54-1.78c.69.11.92-.18.87-1.08l.69-.72,1.31-3.52.34-.51v.33l.17.07.54-1.21.24.05-.83,4.52.2.06,2.26-3.48,0,.08.11,0q-1.58,3.57-3.16,7.14a5.65,5.65,0,0,0-.2.67v0l-.34.36-.22.38-.82.68.3.26.62-.84.3-.31.24-.24.23-.25c.94-1.57,1.89-3.14,2.82-4.72.3-.51.55-1,.82-1.56h.34l-1.43,4.88,1.43-1.19.08.86,0,.49,0,0h-.33Zm-1.58.09c-.06,0-.14-.07-.18-.05s-.06.11-.09.17.13.07.17,0S135.35,68.54,135.38,68.48Z" transform="translate(-11.13 -6.02)"/><path class="cls-9" d="M110.44,104.91c4.77-1.63,9.56-3.24,14.32-4.91a1.49,1.49,0,0,1,1.87.42c2.3,2.49,4.66,4.92,6.92,7.52a5.46,5.46,0,0,1-.65-.26c-2.61-1.46-5.2-2.94-7.83-4.36a2.63,2.63,0,0,0-1.55-.25c-4,.62-8,1.31-11.93,2a11.37,11.37,0,0,1-1.17.07Z" transform="translate(-11.13 -6.02)"/><path class="cls-4" d="M128.78,66.89,126,68.19V67.6L124.7,68l-.52-.12-1.38.79-.24,0-.53-.49c2-2.17,4-4.3,5.21-7a9.53,9.53,0,0,0,.67-7.16c0-.06.1-.18.16-.27l.25,0,1,4.62,1.09-2v4l.17,0,.55-1.1c0,1.13,0,1.89,0,2.66h0l-.67,1.45,0,.85-.48.21-.25.56-.15.45.05.08h.1l-1,1.44ZM126,65.52c2-1.3,2.72-3.27,3.2-5.49l-3.46,5.3-.19.33Zm4-7.61-.07-.08s-.07.05-.07.08,0,.06.06.08Z" transform="translate(-11.13 -6.02)"/><path class="cls-1" d="M156.13,43.87a3.87,3.87,0,0,0,.88-.12c.89-.34,1.78-.7,2.65-1.09a1.6,1.6,0,0,0,.62-.5,5,5,0,0,0,.41-.86,6.86,6.86,0,0,1,1.37,1.2,1.17,1.17,0,0,1-.29,1.11,19.78,19.78,0,0,1-2.45,1.23c-.59.28-1.2.54-1.89.86a1.31,1.31,0,0,0,1.81.64A29,29,0,0,0,162.56,45c1.29-.74,2-.29,2.76,1-2.63,1.05-5.2,2.21-7.86,3.08a5.75,5.75,0,0,1-3.15-.2,1.89,1.89,0,0,1-1.6-2c.11-1.12,1-1.51,1.92-1.69A1.56,1.56,0,0,0,156,43.93.14.14,0,0,1,156.13,43.87Zm1.13,3.48a8.32,8.32,0,0,0-1.62-1.18,2.69,2.69,0,0,0-1.57,0c-.25.07-.38.58-.57.9.42.24.83.66,1.25.67A14.83,14.83,0,0,0,157.26,47.35Z" transform="translate(-11.13 -6.02)"/><path class="cls-1" d="M105.24,20.49c.9.56,1.43.17,1.83-.5.87-1.43,1.71-2.87,2.58-4.34l2,.23-.84,1.46c-1,1.72-2,3.46-3,5.15-.9,1.44-2.11,2.56-3.95,2.49a2.27,2.27,0,0,1-1.68-.75,2.38,2.38,0,0,1,.14-1.87c.91-1.91,2-3.75,2.92-5.63.12-.23.18-.71,0-.83-.78-.71-.11-.91.37-.91a2.41,2.41,0,0,1,1.61.51c.25.27.15,1.07-.06,1.51C106.62,18.19,105.92,19.3,105.24,20.49Zm.77,1.58a7.07,7.07,0,0,0-2.08-.05,2.7,2.7,0,0,0-1.2,1.07,1.19,1.19,0,0,0,.14.91,2.27,2.27,0,0,0,1.4-.14A13.84,13.84,0,0,0,106,22.07Z" transform="translate(-11.13 -6.02)"/><path class="cls-3" d="M109.86,55.09a11.78,11.78,0,0,0-4-9.66c-3-2.87-6.54-2.37-10.3-1.16a8.5,8.5,0,0,1,11.51-1C111,46,111.58,51.31,109.86,55.09Z" transform="translate(-11.13 -6.02)"/><path class="cls-1" d="M166.57,178.09l.53-1.92.31-.41a2.37,2.37,0,0,1,.18.76,9.63,9.63,0,0,1-.47,3c-.61,1.29-1.88,1.21-2.56-.06-.45-.84-.8-1.74-1.19-2.61-.16-.35-.33-.7-.52-1.09-.81.35-1,.87-.75,1.56.45,1.1.92,2.2,1.48,3.26.16.3.64.42,1.09.53.61.95-.18,1.42-.87,1.85s-1.24-.08-1.54-.66c-.59-1.12-1-2.32-1.65-3.44a2.86,2.86,0,0,0-1.24-1c-.39-1.1.33-1.84,1.69-1.84a9.9,9.9,0,0,1,.76-1.76,1.36,1.36,0,0,1,2.54.15c.54,1,1,2.09,1.46,3.14a5,5,0,0,0,.37.57Z" transform="translate(-11.13 -6.02)"/><path class="cls-1" d="M45.38,190.68l-5,3.37,0,.44,2.17.28a2.47,2.47,0,0,1-2.64.79c-1.09-.14-2-.59-1.93-1.83a11.7,11.7,0,0,1-1.84-.38c-1.42-.54-1.6-1.71-.41-2.64,1-.75,2-1.38,3.05-2.1.35-.24,1-.43.46-1.09a1.68,1.68,0,0,1,.46-.56,4.52,4.52,0,0,1,1.61,1.09c.18.26-.1,1.11-.43,1.4a27.13,27.13,0,0,1-2.62,1.87c-.34.24-.67.5-1.09.82a1.43,1.43,0,0,0,2,.27c1-.63,1.92-1.28,2.89-1.92C43.71,189.44,43.71,189.44,45.38,190.68Z" transform="translate(-11.13 -6.02)"/><path class="cls-4" d="M72.21,115a5.3,5.3,0,0,0,.78-.07c.47-.11.94-.26,1.4-.4.06,0,.1-.12.16-.13l4.54-.68L79,113l.18-.09.7,1,.21-1.71c.33.76-.07,2,1.43,1.13.48-.29,1.54.26,2.29.54,1.13.43,2.21,1,3.31,1.45l-.12.29c-.9-.24-1.79-.55-2.7-.7s-1.89-.18-2.71-.25a10.85,10.85,0,0,1-.31,2.09c-.1.28-.61.51-1,.58-1.07.2-1.65-.53-1.74-2.34-1.56.66-3.09,1.21-4.53,1.94-3.09,1.57-4.27,1.45-6.87-1,1.7-.45,3.65.55,5.09-1Z" transform="translate(-11.13 -6.02)"/><path class="cls-3" d="M124.62,115c.48.81,1.31.8,2.09.84s1.82,0,2.76,0c-1,2-3.49,2.59-5.68,1.53-1.75-.84-3.53-1.62-5.2-2.38a10,10,0,0,1-.94,2,1.51,1.51,0,0,1-1.21.25c-1-.16-1.3-1-.82-2.82l-5.94,1-.09-.17a30.9,30.9,0,0,1,4.19-1.59c1-.23,1.75-.39,1.79-1.58l.08,1.44,2.11-.23s.08.35.19.36c1.8.05,3.38.93,5.09,1.28a7.53,7.53,0,0,0,1.6,0Z" transform="translate(-11.13 -6.02)"/><path class="cls-1" d="M147.6,194.83c-.51,1.06-1,2.15-2.45,2.09-1,0-1.71-1.17-2-2.81-.38-2.12-.18-4.1,1.69-5.48a26.67,26.67,0,0,1,3-1.68l1.13,5.77.4.17,1.11-1.85c.73.72.24,1.54-.07,2.27A2.26,2.26,0,0,1,147.6,194.83Zm-1.39-6.06c-.52.56-1,.83-1.1,1.21a6.84,6.84,0,0,0,.36,4.87c.24.56.75.67,1.1.14a2.49,2.49,0,0,0,.51-1.48C146.91,192.05,146.57,190.62,146.22,188.77Z" transform="translate(-11.13 -6.02)"/><path class="cls-7" d="M81.08,46.29a35.58,35.58,0,0,0-1.19,4,8.52,8.52,0,0,0,1,5,17.1,17.1,0,0,1,1.88,7.35c-.06,3-1.59,5.16-4.5,5.84-2.61.61-5.29,1-7.85-.28a6.12,6.12,0,0,1-3.37-3.68,3.75,3.75,0,0,1,.51.45A7,7,0,0,0,73.83,68a32,32,0,0,0,3.33-.34c3.36-.61,5.13-3.06,4.49-6.42a34.42,34.42,0,0,0-1.7-5.71c-1.1-2.89-1.28-5.66.45-8.36C80.54,46.91,80.74,46.71,81.08,46.29Z" transform="translate(-11.13 -6.02)"/><path class="cls-1" d="M125.86,25.66c.92-.94,1.87-1.85,2.73-2.84a6.18,6.18,0,0,0,.63-1.64c.76-.38,1.53,0,2.12,1.29.26,0,.56-.21.78-.13a4.55,4.55,0,0,1,2,1c.21.27-.27,1.29-.67,1.79a32.17,32.17,0,0,1-2.45,2.5l.2.42,2.14-.21a2.35,2.35,0,0,1-2.41,1.22,2.88,2.88,0,0,1-2-.95c-.22-.37.34-1.36.77-1.9a26.29,26.29,0,0,1,2.35-2.3l-.23-.5a4.35,4.35,0,0,0-1.56.43A23.5,23.5,0,0,0,128,26.09c-.18.18-.41.57-.34.69.34.56.4,1.12-.38,1a4.06,4.06,0,0,1-1.65-1.25c-.1-.1.18-.57.28-.86Z" transform="translate(-11.13 -6.02)"/><path class="cls-1" d="M58,26.34c0-.89,0-1.78.15-2.66.36-2.54,1.23-3.42,3.72-4.08a13.9,13.9,0,0,0,2.05-.91v5.92l.3.15,1.5-1.68a2.87,2.87,0,0,1-1,2.66c-.73.7-1.55,1.17-2.57.36-.2.24-.4.49-.61.72-1.22,1.33-2.3,1.22-3.25-.3-.06-.1-.21-.14-.31-.21ZM62,20.5a1.38,1.38,0,0,0-1.53,1.21A21.07,21.07,0,0,0,60,25.13c0,.37.33.75.51,1.13a6.33,6.33,0,0,0,1.15-.71,1.31,1.31,0,0,0,.31-.86C62,23.34,62,22,62,20.5Z" transform="translate(-11.13 -6.02)"/><path class="cls-1" d="M46.23,26.63l1,5.68.37.12,1.09-1.77c.63.7.21,1.47-.09,2.16a2.14,2.14,0,0,1-2.76,1.4c-.52,1-1,2.18-2.39,2s-1.7-1.53-1.9-2.73c-.33-2-.08-4,1.75-5.24A27.34,27.34,0,0,1,46.23,26.63Zm-1.57,2.12-.49-.2c-.29.53-.8,1-.84,1.6a13.43,13.43,0,0,0,.19,3.29c.08.44.59.81.91,1.21.35-.5,1-1,1-1.49A41.38,41.38,0,0,0,44.66,28.75Z" transform="translate(-11.13 -6.02)"/><path class="cls-1" d="M91.62,204.69c.4-1.14,1.36-.86,2.1-.64s.83,1.05.57,1.8c-.39,1.12-.84,2.23-1.16,3.38-.08.3.23.7.37,1.06.26-.27.63-.5.77-.82.7-1.64,1.22-3.37,2.05-4.94.25-.47,1.3-.51,2-.75l.35.38A57.81,57.81,0,0,1,95.47,210a4.64,4.64,0,0,1-2.74,1.4c-1.48.31-2.23-.67-1.79-2.18.32-1.1.84-2.15,1.17-3.25a3,3,0,0,0-.17-1.2Z" transform="translate(-11.13 -6.02)"/><path class="cls-1" d="M160.1,184.08a5.49,5.49,0,0,1-1.69,3.6,1.83,1.83,0,0,1-2.58,0,5.86,5.86,0,0,1-.67-7.13c1.18-1.5,2.7-1.52,3.67.13A20.17,20.17,0,0,1,160.1,184.08Zm-2.1,2.79c.86-1.73-.41-5.56-1.94-6C155.4,182.6,156.44,185.9,158,186.88Z" transform="translate(-11.13 -6.02)"/><path class="cls-1" d="M109,204.08c0-.6-.47-.52-1-.14a6,6,0,0,0-1.62,4.46,1.33,1.33,0,0,0,2,.94,20.62,20.62,0,0,0,2.69-1.72,4.36,4.36,0,0,1-.32,1.1c-.78,1.26-3.22,2.36-4.63,1.88a3,3,0,0,1-1.7-1.59c-.81-2.34,1.37-5.71,3.83-6.14,1.15-.2,2,.38,1.87,1.5a9,9,0,0,1-1.23,2.85c-.1.19-.76.24-1.05.1a1,1,0,0,1-.31-.91C107.91,205.61,108.47,204.86,109,204.08Z" transform="translate(-11.13 -6.02)"/><path class="cls-1" d="M113.72,206.75c.45.41.86,1.12,1.36,1.19,1.55.21,2.44-.9,3.42-2.37a4,4,0,0,1,0,1.14c-.59,1.63-3.31,3.09-5,2.52a2.81,2.81,0,0,1-1.52-1.49c-.85-2.29.94-5.58,3.28-6.3a1.56,1.56,0,0,1,2.22,1.63,3.11,3.11,0,0,1-2.32,3c-.42.12-.84.2-1.27.3Zm2-4.73c-1.24,1-1.37,2.21-1.66,3.43C115.58,205.26,116.09,204.25,115.72,202Z" transform="translate(-11.13 -6.02)"/><path class="cls-1" d="M79.15,207.37a5.6,5.6,0,0,0,.72,1.75c.7.71,2,.43,4.19-.52a3.84,3.84,0,0,1-.7,1,5,5,0,0,1-4.78.6A2.07,2.07,0,0,1,77.21,208c0-2.34,2.9-4.94,5.26-4.8a1.62,1.62,0,0,1,1.49,2.57,3,3,0,0,1-2.89,1.78C80.55,207.53,80,207.45,79.15,207.37Zm3.4-3.25-.33-.29-2.53,2.76A2.29,2.29,0,0,0,82.56,204.11Z" transform="translate(-11.13 -6.02)"/><path class="cls-1" d="M164.55,53a34.41,34.41,0,0,1,4.24-1,3.41,3.41,0,0,1,3.09,1.52,1.45,1.45,0,0,1-.54,2.38,3.06,3.06,0,0,1-3.62-.64c-.32-.35-.6-.73-1.1-1.35a5.17,5.17,0,0,0-.75,1.64c0,1,1,1.64,3.51,2.41a6,6,0,0,1-1.26.33c-1.51,0-3.63-1.62-3.88-3.1a7,7,0,0,1,.34-2.2Zm2.9.7a2.2,2.2,0,0,0,3.78,0Z" transform="translate(-11.13 -6.02)"/><path class="cls-1" d="M153.74,189.89l.76-1.94c.13.14.46.36.42.48a9.59,9.59,0,0,1-1,3c-.8,1.1-2,.7-2.47-.73-.62-2.06-1.12-4.15-1.71-6.22-.14-.5.07-1.47-1.06-1.1,0,0-.37-.6-.31-.66a4.53,4.53,0,0,1,1.57-1.16c.3-.09,1,.43,1.19.83a21.29,21.29,0,0,1,.91,3c.41,1.48.81,3,1.21,4.44Z" transform="translate(-11.13 -6.02)"/><path class="cls-1" d="M117.73,22.13a4.73,4.73,0,0,1-1,.93,4.82,4.82,0,0,1-4.39,0,2.06,2.06,0,0,1-1.09-2.53,5.39,5.39,0,0,1,5.19-3.83c1.62.14,2.21,1.33,1.33,2.7a3.1,3.1,0,0,1-3.23,1.34c-.35-.06-.69-.15-1.41-.32a5,5,0,0,0,.42,1.68c.66.86,2.06.71,3.84-.27Zm-1.06-4.45-.3-.33-2.7,2.49A2.32,2.32,0,0,0,116.67,17.69Z" transform="translate(-11.13 -6.02)"/><path class="cls-1" d="M49.41,199.68l2.24-.12c-.21.27-.35.64-.55.68a8,8,0,0,1-2.76.35c-1.55-.26-1.85-1.52-.69-2.61,1.38-1.28,2.89-2.41,4.23-3.72.54-.53,2-.71,1.18-2.1,0,0,.49-.46.61-.4a4.19,4.19,0,0,1,1.65,1c.18.25-.11,1.11-.44,1.43-1.53,1.46-3.16,2.82-4.75,4.22-.31.27-.58.58-.86.87Z" transform="translate(-11.13 -6.02)"/><path class="cls-4" d="M125,53.45l.6,6.46,1.53-4.56c1.1,2.68-2.18,9.55-5.56,11.88l-.43-.35.79-1.09-.15-.25-3.11,1-.16-.24c5-2.13,5.9-6.49,6.22-11.17,0-.59,0-1.18,0-1.77ZM122.2,65.07l-.4.36.19.2.36-.37.14-.2Zm2.7-4.66.06.31-.25.9-.54.62.25.17.3-.78.47-1a.49.49,0,0,0,0-.23l.23-.6-.26-.1Zm-1.51,3.2.2.14.22-.52-.16-.07Z" transform="translate(-11.13 -6.02)"/><path class="cls-1" d="M44.85,197.09h2s.09.09.07.13c-.45,1.07-1.48,1.07-2.31.95a3.35,3.35,0,0,1-2-1.12c-.2-.26.35-1.39.83-1.82,1.59-1.39,3.32-2.63,5-3.95.38-.3,1.15-.51.53-1.28,0,0,.27-.49.32-.47a5.59,5.59,0,0,1,1.73.78,1.29,1.29,0,0,1,0,1.23,7.2,7.2,0,0,1-1.48,1.38c-1.58,1.26-3.17,2.5-4.76,3.74Z" transform="translate(-11.13 -6.02)"/><path class="cls-1" d="M156.13,43.87a.14.14,0,0,0-.14.06,10.57,10.57,0,0,1-2.64-.13,1.9,1.9,0,0,1-1.07-1.36c0-.42.5-1.08.95-1.33,1.69-.94,3.46-1.75,5.26-2.64l-.58-.85c1.52-.23,2.7.33,4.16,1.29l-1.05.31,1.13,1c-.79.5-.79.5-2.06-.46l-5.69,2.84v.43c.52.11,1,.21,1.55.36C156.05,43.45,156.08,43.71,156.13,43.87Z" transform="translate(-11.13 -6.02)"/><path class="cls-1" d="M72.63,22.62c.28.41.81.25,1.26-.23A4.44,4.44,0,0,0,75,18.62c-.08-.65-.57-.75-1.18-.59-.36.09-1,.14-1.12,0a2.38,2.38,0,0,1-.15-1.34,1.19,1.19,0,0,1,.43-.81,6.91,6.91,0,0,1,1.37-.5c.12.43.27.85.36,1.29a1.5,1.5,0,0,1-.12.56c2,.11,2.72,1,2.36,3a4.12,4.12,0,0,1-3.53,3.42c-1,.15-1.78-.32-1.7-1.28a8.85,8.85,0,0,1,.87-2.75,1.07,1.07,0,0,1,1-.33A1.23,1.23,0,0,1,74,20.27,18.73,18.73,0,0,1,72.63,22.62Z" transform="translate(-11.13 -6.02)"/><path class="cls-1" d="M164.57,53a12.89,12.89,0,0,1-2.84-.58,2.07,2.07,0,0,1-1-1.54c0-.42.68-1,1.19-1.25,2-.76,4-1.36,6-2.09a2.26,2.26,0,0,0,1-1.09c.95-.44,1.33.38,1.63,1.06s-.29,1.19-.91,1.41c-1.87.68-3.76,1.31-5.64,2-.4.14-.78.32-1.17.48l0,.39,1.84.69c0,.12,0,.34,0,.57Z" transform="translate(-11.13 -6.02)"/><path class="cls-8" d="M36.69,106.76h-.24c.32-.61-.1-.48-.46-.5-2.74-.14-5.5-.18-8.22-.5a13.55,13.55,0,0,1-7.59-3.39,3.13,3.13,0,0,1,.84.16c3.62,2.18,7.69,2.46,11.74,2.72a15,15,0,0,0,7.71-1.18l1.94-1.17h0l1.11-.56.75-.33c-.33.44-.43.67-.61.78-1.74,1.09-3.48,2.15-5.23,3.22h0A1.32,1.32,0,0,0,36.69,106.76Z" transform="translate(-11.13 -6.02)"/><path class="cls-1" d="M90,208.84a2.28,2.28,0,0,1-1.75,2.24,3.86,3.86,0,0,1-2.34-.13c-.24-.09-.29-1.25-.09-1.8.44-1.23,1.09-2.39,1.73-3.72-1,0-1.59-.29-1.24-1.36s1.46-1.86,2.14-1.51c1.1.57.28,1.35.1,2.12l1.42.27-2.29,4.73C88.72,210.28,89.2,209.51,90,208.84Z" transform="translate(-11.13 -6.02)"/><path class="cls-12" d="M41.47,83a19,19,0,0,0,9.66,4.64A14.47,14.47,0,0,0,61,85.87a6.31,6.31,0,0,1,.88-.33c-4.23,5-15.54,4.4-20.68-2.44Z" transform="translate(-11.13 -6.02)"/><path class="cls-12" d="M70.74,184.45c-2-7.29-2.43-14.75-2.48-22.25l.38,0,2.43,22.25Z" transform="translate(-11.13 -6.02)"/><path class="cls-1" d="M49.71,26.3c-.78.39-1.4.58-1.68-.4s.19-2.33,1-2.4c1.24-.12.89,1,1.19,1.7l1.26-.52.46,5,.37.19L53.68,28a4.41,4.41,0,0,1,0,1.38,4.45,4.45,0,0,1-1,1.71,2.13,2.13,0,0,1-1.67.52c-.4-.11-.78-.87-.87-1.39C49.89,29,49.84,27.73,49.71,26.3Z" transform="translate(-11.13 -6.02)"/><path class="cls-7" d="M54.65,111.68l2.07,3a2.48,2.48,0,0,1-2.2-1.3c-.93-1.32-2-2.33-3.73-2.07-.1,0-.22-.09-.26-.41l2.51-.54c-3.12-2.51-2.76-6.54-4.66-9.53l.23-.2c.28.26.65.47.81.79a24.85,24.85,0,0,1,1.74,3.79,10.31,10.31,0,0,0,3.76,5.53,6.6,6.6,0,0,1,.62.56,2.38,2.38,0,0,1,.21.34l-.79-.17-.52-.28-.1.13Zm-1.12-1.16,0,.1.09,0a.3.3,0,0,0,0-.1S53.56,110.53,53.53,110.52Zm-.46-.17s-.07,0-.07.07a.67.67,0,0,0,.06.15s.07,0,.07-.07A.57.57,0,0,0,53.07,110.35Z" transform="translate(-11.13 -6.02)"/><path class="cls-1" d="M101.21,209.69l1.83-1.16c0,.23.1.55,0,.69-.41.52-.81,1.2-1.38,1.42a9.08,9.08,0,0,1-2.44.28,9.65,9.65,0,0,1-.16-2.21,23.63,23.63,0,0,1,.79-2.62c.14-.53.78-1.21-.3-1.53,0,0,0-.47,0-.49a4.48,4.48,0,0,1,1.74-.42,1.33,1.33,0,0,1,.82,1,13,13,0,0,1-.58,2.54c-.2.72-.43,1.42-.65,2.13Z" transform="translate(-11.13 -6.02)"/><path class="cls-12" d="M43.4,135.58a11.27,11.27,0,0,1-2.61,1.72,15.1,15.1,0,0,1-8.28,0,7.7,7.7,0,0,1-4.32-3.24c-.58-.81-1.08-1.69-1.61-2.54l.24-.2a7.11,7.11,0,0,1,.73.79,10,10,0,0,0,9.16,4.65c2.28-.09,4.58.1,6.51-1.46Z" transform="translate(-11.13 -6.02)"/><path class="cls-1" d="M58,26.32a3.83,3.83,0,0,1-1.49,3.09c-1.18.84-2.22.37-2.34-1.07-.1-1.11-.07-2.23-.13-3.35a2.45,2.45,0,0,0-.28-1,3.74,3.74,0,0,0-.64-.7,6.75,6.75,0,0,1,1.6-.84,1.16,1.16,0,0,1,.92.68c.19,1.09.23,2.21.32,3.32A3.46,3.46,0,0,0,56.34,28c.31-.32.61-.65.94-1s.5-.44.75-.65Z" transform="translate(-11.13 -6.02)"/><path class="cls-1" d="M125.86,25.66l0,0a5.35,5.35,0,0,0-.67.1,5.18,5.18,0,0,1-1.7.46,2.66,2.66,0,0,1-1.81-.81c-.23-.34.15-1.26.49-1.76.61-.88,1.43-1.61,2.09-2.46a1.79,1.79,0,0,0,.14-1.24c.52-1,1.26-.44,1.9,0s.49,1.13.07,1.67c-.86,1.09-1.78,2.13-2.67,3.19l.1.36,2-.22Z" transform="translate(-11.13 -6.02)"/><path class="cls-12" d="M60.22,81.79c-.31.39-.55.92-1,1.15-4.15,2.38-8.23,1.79-12.12-.58a27.24,27.24,0,0,1-3.6-3.14l.32-.37c.25.21.5.4.75.62a13.86,13.86,0,0,0,11.44,3.73,23.68,23.68,0,0,0,4.14-1.37Z" transform="translate(-11.13 -6.02)"/><path class="cls-12" d="M145,98.09l1.76-.09-.83.77-.5.1,0,.22,1.16-.24h1.73c-1.54,1.38-6.14,2.4-7.94,1.78l1.27-.51-2.9-.28v-.26c1.33-.26,2.68-.49,4-.81.34-.08.62-.45.92-.68h.06c.4.83.81.24,1.22,0Z" transform="translate(-11.13 -6.02)"/><path class="cls-6" d="M144.36,107.48c.65-.05,1.29-.14,1.94-.15s1.26.06,1.89.1h0a8.86,8.86,0,0,0-1.88,1,9.43,9.43,0,0,1-7,2.37,2.52,2.52,0,0,1-.69-.28l3.19-.94,0-.2-1.8-.2,0-.16,4.47-1.53Z" transform="translate(-11.13 -6.02)"/><path class="cls-10" d="M39.51,84.78C35,83.33,33.23,76.84,36.2,72.23A54.61,54.61,0,0,0,36,78.94C36.25,81.32,37.78,83.15,39.51,84.78Z" transform="translate(-11.13 -6.02)"/><path class="cls-12" d="M130,64.38l.48-.21.28-.54.43-1.76h0a6.3,6.3,0,0,0,.88-4.28,3.89,3.89,0,0,0-.14-.66l.41-.08a12.69,12.69,0,0,1,.45,3,34.89,34.89,0,0,1-.82,3.95,8.31,8.31,0,0,0-.05,1.34l-.69.72-.87,1.08-1.54,1.78-1.2.67-.23-.05c.49-.6,1-1.18,1.45-1.8.09-.13,0-.4,0-.61h0c.63-.08.9-.48,1-1.44h0C130.41,65,130.48,64.68,130,64.38Z" transform="translate(-11.13 -6.02)"/><path class="cls-6" d="M143.73,86.13l.83,0a.75.75,0,0,1,.23.07c-1.32,1.61-5.08,2.38-7.9,1.48l3.18-.56.28-.08-.28-.16-2.39-.34v-.35l6.63-1.41.18.38-1.44.93-.6.15.06.26Zm-2.26.52c-.1-.11-.16-.22-.23-.24s-.2,0-.3.08c.07.1.11.23.2.29S141.32,86.71,141.47,86.65Z" transform="translate(-11.13 -6.02)"/><path class="cls-11" d="M137.77,93.63l1.26-.4-.74-.34v-.26l7.88-1.54C144,94,141,94.25,137.77,93.63Z" transform="translate(-11.13 -6.02)"/><path class="cls-10" d="M52.59,76.57c-5.53,0-9.46-5.12-7.73-10.15C45.63,71.33,47.1,75.5,52.59,76.57Z" transform="translate(-11.13 -6.02)"/><path class="cls-7" d="M46,113.7l-1.25.23-.25-.43-5.09,3.25-.19-.27C41.4,114,44.85,112.6,45.8,109l.36.13-1,4.09Z" transform="translate(-11.13 -6.02)"/><path class="cls-11" d="M147.51,87.31a11.44,11.44,0,0,1-7.4,3.61c-1,.09-2,0-3,0l0-.45a14.81,14.81,0,0,0,2.49-.4c2.18-.74,4.32-1.59,6.49-2.37.47-.17,1-.26,1.45-.39Z" transform="translate(-11.13 -6.02)"/><path class="cls-13" d="M72,62.61c4.42.26,5.85-1.33,5.39-5.77a3.79,3.79,0,0,1,.27,5A4.11,4.11,0,0,1,72,62.61Z" transform="translate(-11.13 -6.02)"/><path class="cls-10" d="M96.86,77.53V77c.07,0,.21,0,.21-.05.44-3.71,3-5.7,5.86-7.51l.27.21c-1.11,1.23-2.24,2.45-3.32,3.7s-2.23,2.59-2.36,4.5Z" transform="translate(-11.13 -6.02)"/><path class="cls-7" d="M48.4,95.29c2,3.13,5.4,3.59,8.67,4.27C52.18,100.29,49.1,98.73,48.4,95.29Z" transform="translate(-11.13 -6.02)"/><path class="cls-11" d="M132.67,81.08c1.19-.65,2.34-1.36,3.56-1.94,1.54-.73,3.13-1.36,4.7-2a2.49,2.49,0,0,1,.75-.06h0a14.44,14.44,0,0,1-9,4Z" transform="translate(-11.13 -6.02)"/><path class="cls-13" d="M102.93,51.42c-.85-3.51-3.66-4.19-6.63-4.71C99.72,45.12,103.19,47.53,102.93,51.42Z" transform="translate(-11.13 -6.02)"/><path class="cls-8" d="M103.11,55.37c1.26,2.59.12,7.43-1.78,7.85Z" transform="translate(-11.13 -6.02)"/><path class="cls-8" d="M144.36,107.48h0a6.46,6.46,0,0,0-1.2-.18c-.93,0-1.86.14-3,.23,1-1.1,6.21-2.34,8.22-1.88-1.18.43-2.37.85-3.55,1.31C144.69,107.05,144.54,107.31,144.36,107.48Z" transform="translate(-11.13 -6.02)"/><path class="cls-13" d="M146.22,94.14c-2.51,1.1-5,2.2-7.88,1.49l-.07-.35,7.89-1.56Z" transform="translate(-11.13 -6.02)"/><path class="cls-13" d="M118.73,49.65c1.62.48,2.35,1.82,2.94,3.21a7.23,7.23,0,0,1,0,5.63,12.72,12.72,0,0,0-2.9-8.85Z" transform="translate(-11.13 -6.02)"/><path class="cls-13" d="M120.16,53.94a9.26,9.26,0,0,1-.76,8.64c-.18-2.9,1.38-5.7.52-8.64Z" transform="translate(-11.13 -6.02)"/><path class="cls-1" d="M67.26,19.11a16.25,16.25,0,0,1-.36-2.87A1.72,1.72,0,0,1,67.82,15c.32-.12,1.06.3,1.3.68C69.66,16.46,68.31,18.84,67.26,19.11Z" transform="translate(-11.13 -6.02)"/><path class="cls-7" d="M145,98.09h-1.3l-3.63.35-.09-.49,7.74-1.83.16.52c-.66.25-1.33.47-2,.77A5.6,5.6,0,0,0,145,98.09Z" transform="translate(-11.13 -6.02)"/><path class="cls-7" d="M147.71,114.75c-2.47,1.07-4.95,2.13-7.75,1.65C142.47,115.52,144.93,114.45,147.71,114.75Z" transform="translate(-11.13 -6.02)"/><path class="cls-6" d="M143.88,82.76a8.22,8.22,0,0,1-7.75,2.12Z" transform="translate(-11.13 -6.02)"/><path class="cls-11" d="M140.34,103.69l7.77-1.79.11.49c-2.49,1-5,2-7.8,1.7Z" transform="translate(-11.13 -6.02)"/><path class="cls-11" d="M146.45,111.62a8,8,0,0,1-7.62,2.33Z" transform="translate(-11.13 -6.02)"/><path class="cls-10" d="M145.32,120.94c-.41,1.93-3.48,3.68-6.25,3.46Z" transform="translate(-11.13 -6.02)"/><path class="cls-12" d="M139.05,118.84c1.33-.46,2.41-.81,3.48-1.21s2.12-.87,3.18-1.31C145.52,118.06,142,119.44,139.05,118.84Z" transform="translate(-11.13 -6.02)"/><path class="cls-13" d="M106.43,58.07,106,50.52C107.19,51.4,107.49,56.52,106.43,58.07Z" transform="translate(-11.13 -6.02)"/><path class="cls-11" d="M51.39,114.48c2.41.07,3.77,1.8,5.26,3.33C54.42,117.47,53.05,115.75,51.39,114.48Z" transform="translate(-11.13 -6.02)"/><path class="cls-14" d="M148.21,107.45h0c1.26-.55,1.08-1.87,1.54-2.86h.41a11.59,11.59,0,0,0-1,3.32c0,1.13.71,2.24,1,3.39a6.39,6.39,0,0,1-.08,2.22C149.78,111.36,149.56,109.25,148.21,107.45Z" transform="translate(-11.13 -6.02)"/><path class="cls-12" d="M96,138.68a21.15,21.15,0,0,1-2.61,0c-.31,0-.57-.49-.85-.76.35-.28.75-.83,1-.78a17.09,17.09,0,0,1,2.54.91Z" transform="translate(-11.13 -6.02)"/><path class="cls-1" d="M102.48,200.23c.32.43.82.82.92,1.29a.93.93,0,0,1-1.07,1.19c-.44-.08-1.1-.64-1.12-1s.49-1,.78-1.45Z" transform="translate(-11.13 -6.02)"/><path class="cls-1" d="M56,20.53c-.43.29-.89.86-1.27.81a1.61,1.61,0,0,1-1-1.09c-.05-.28.61-1,1-1s.88.49,1.32.76Z" transform="translate(-11.13 -6.02)"/><path class="cls-1" d="M128.17,17.1c.29.43.86.9.8,1.29a1.59,1.59,0,0,1-1.09,1c-.28.05-.95-.62-1-1s.48-.88.76-1.32Z" transform="translate(-11.13 -6.02)"/><path class="cls-13" d="M105.12,138.17c-1.22.89-2.32.34-3.49,0C103.13,136.66,104,136.65,105.12,138.17Z" transform="translate(-11.13 -6.02)"/><path class="cls-14" d="M53.69,166.77l-.24-.26c1.78-2.53,4.52-3.93,6.43-3.21C57.07,163.16,55.38,165,53.69,166.77Z" transform="translate(-11.13 -6.02)"/><path class="cls-13" d="M108,70.7l-4,1.43-.12-.34,4-1.53Z" transform="translate(-11.13 -6.02)"/><path class="cls-14" d="M72.66,73.21l0,.39L70,72.24l.18-.32Z" transform="translate(-11.13 -6.02)"/><path class="cls-15" d="M146.55,123.57l-1.43,1.55-.29-.26,1.4-1.58Z" transform="translate(-11.13 -6.02)"/><path class="cls-16" d="M148.17,119.87l1-2.57.3.12-1,2.57Z" transform="translate(-11.13 -6.02)"/><path class="cls-7" d="M121.11,66.88l.43.35-1.91,1-.13-.25Z" transform="translate(-11.13 -6.02)"/><path class="cls-17" d="M42.4,102.9l-1.94,1.17-.31-.26Z" transform="translate(-11.13 -6.02)"/><path class="cls-15" d="M113,70.48c-.23-.13-.72.77-.74-.19l1.26-.53.11.27-.4.24-.26.26Z" transform="translate(-11.13 -6.02)"/><path class="cls-15" d="M129.52,72l1-.61.19.27-1,.78Z" transform="translate(-11.13 -6.02)"/><path class="cls-15" d="M135.76,133.12v-1.43l.46,0L136,133.2Z" transform="translate(-11.13 -6.02)"/><path class="cls-6" d="M135.76,133.12l.22.08-.41,1.55-.24-.39Z" transform="translate(-11.13 -6.02)"/><path class="cls-15" d="M127.37,69.3l.23.05.35.73-.57.24-.65-.78Z" transform="translate(-11.13 -6.02)"/><path class="cls-15" d="M141.1,128.93l-.71.85-.29-.23.69-.87Z" transform="translate(-11.13 -6.02)"/><path class="cls-15" d="M122.56,68.61l.24,0V69l-.91.68.18-.86.51-.25Z" transform="translate(-11.13 -6.02)"/><path class="cls-18" d="M99.58,77.47l-.75-.33.05-.26a1.37,1.37,0,0,1,.56,0c.13.05.19.27.28.41Z" transform="translate(-11.13 -6.02)"/><path class="cls-18" d="M102.68,72.81l-.86.65-.18-.16.77-.8Z" transform="translate(-11.13 -6.02)"/><path class="cls-6" d="M34.71,114.8l.95-.39-.4,1.07-.25-.33Z" transform="translate(-11.13 -6.02)"/><path class="cls-16" d="M66.23,171.72H64.41v-.09h1.82Z" transform="translate(-11.13 -6.02)"/><path class="cls-15" d="M122,68.12l.53.49,0,0h-.48l-.41-.27Z" transform="translate(-11.13 -6.02)"/><path class="cls-11" d="M34.66,126.91l-.22-.69.33-.14.49.83Z" transform="translate(-11.13 -6.02)"/><path class="cls-17" d="M43.51,102.34l-1.11.56.67-.73Z" transform="translate(-11.13 -6.02)"/><path class="cls-18" d="M100.52,76.53l.46-.63.23.13-.37.7Z" transform="translate(-11.13 -6.02)"/><path class="cls-15" d="M147.51,87.32l.61-.56.21.34-.82.22Z" transform="translate(-11.13 -6.02)"/><path class="cls-15" d="M149.84,115.26v.66l-.21,0-.13-.66Z" transform="translate(-11.13 -6.02)"/><path class="cls-15" d="M146.58,122.8l.38-.62.25.13-.4.67Z" transform="translate(-11.13 -6.02)"/><path class="cls-12" d="M137.68,86.14v.35l-.43-.24Z" transform="translate(-11.13 -6.02)"/><path class="cls-15" d="M133.55,61.08l-.34.51-.07-1,.25-.05Z" transform="translate(-11.13 -6.02)"/><path class="cls-15" d="M143.73,86.13l-1.21.33-.06-.26.6-.15Z" transform="translate(-11.13 -6.02)"/><path class="cls-15" d="M118.74,49.64l-.6-.24.19-.22.41.47Z" transform="translate(-11.13 -6.02)"/><path class="cls-15" d="M146.67,98.86l-1.16.24,0-.22.5-.1Z" transform="translate(-11.13 -6.02)"/><path class="cls-18" d="M110.25,69.3l-.37.6-.29-.59.41-.49Z" transform="translate(-11.13 -6.02)"/><path class="cls-12" d="M43.22,135.34l.45-.51.17.11-.44.65Z" transform="translate(-11.13 -6.02)"/><path class="cls-15" d="M137,132.34c.13-.08.27-.17.41-.24s.09.1.13.15l-.38.3Z" transform="translate(-11.13 -6.02)"/><path class="cls-4" d="M31.28,131.43l-.75-.71.34-.36.78.68Z" transform="translate(-11.13 -6.02)"/><path class="cls-15" d="M134.52,74l-.45.32-.5-.25.61-.41Z" transform="translate(-11.13 -6.02)"/><path class="cls-4" d="M35,115.16l.25.33c0,.49-.16.75-.48.13a1.38,1.38,0,0,1-.05-.48v0Z" transform="translate(-11.13 -6.02)"/><path class="cls-15" d="M124.69,53l-.28-.44.26-.12.07.52Z" transform="translate(-11.13 -6.02)"/><polygon class="cls-8" points="8.74 95.65 8.74 95.72 8.68 95.69 8.74 95.65"/><path class="cls-11" d="M31.87,129.92l-.43-.47.19-.18.58.33Z" transform="translate(-11.13 -6.02)"/><path class="cls-6" d="M36.88,128.83l.18-.38.3.37Z" transform="translate(-11.13 -6.02)"/><path class="cls-15" d="M128.33,53.69l-.25,0-.3-.32.16-.13Z" transform="translate(-11.13 -6.02)"/><path class="cls-15" d="M131.69,77.45l.23.07-.39.47-.14-.13Z" transform="translate(-11.13 -6.02)"/><path class="cls-15" d="M124.18,67.84l.52.12Z" transform="translate(-11.13 -6.02)"/><path class="cls-11" d="M137.45,66.43l-.1.64-.28-.06.14-.57Z" transform="translate(-11.13 -6.02)"/><path class="cls-7" d="M131.45,72.91l.39.06-.48.41-.13-.09Z" transform="translate(-11.13 -6.02)"/><path class="cls-18" d="M99.92,75.34l-.16.11-.12-.23c.06,0,.14-.08.19-.06S99.89,75.28,99.92,75.34Z" transform="translate(-11.13 -6.02)"/><path class="cls-15" d="M127.79,52.77c-.06,0-.14.07-.18,0s-.07-.12-.1-.18.14-.07.19,0S127.75,52.71,127.79,52.77Z" transform="translate(-11.13 -6.02)"/><path class="cls-15" d="M137.2,68.12l0-.49h.38Z" transform="translate(-11.13 -6.02)"/><path class="cls-7" d="M129.67,72.63l.39.06-.71.16Z" transform="translate(-11.13 -6.02)"/><path class="cls-19" d="M35.19,107.24l-.11,0-.11,0,.27-.41Z" transform="translate(-11.13 -6.02)"/><path class="cls-2" d="M20.37,97.61l-.43,0,0-.13.44-.13Z" transform="translate(-11.13 -6.02)"/><path class="cls-7" d="M137.15,63.07h-.34l.22-.46.15,0Z" transform="translate(-11.13 -6.02)"/><path class="cls-11" d="M20.08,99.56q0,.09,0,.19h-.65v-.16Z" transform="translate(-11.13 -6.02)"/><path class="cls-11" d="M132.12,81.22h0l.52-.15,0,0Z" transform="translate(-11.13 -6.02)"/><path class="cls-15" d="M149.61,116.88s-.06,0-.08,0,0-.05,0-.08l.13,0Z" transform="translate(-11.13 -6.02)"/><path class="cls-4" d="M125.63,68.15h.4v0l-.32,0Z" transform="translate(-11.13 -6.02)"/><path class="cls-15" d="M125.63,68.15h.06l0,.28h-.11Z" transform="translate(-11.13 -6.02)"/><path class="cls-16" d="M64,171.52l-.37-.05a.24.24,0,0,1,0-.07l.37,0Z" transform="translate(-11.13 -6.02)"/><path class="cls-16" d="M63,171.14l-.42-.3.13-.11.39.31Z" transform="translate(-11.13 -6.02)"/><path class="cls-15" d="M116.56,71.66l-.29,0,.25-.58Z" transform="translate(-11.13 -6.02)"/><path class="cls-16" d="M62.3,170.6l-.25-.4.36.28Z" transform="translate(-11.13 -6.02)"/><path class="cls-4" d="M34.66,126.91h.6l-.07.25h-.4Z" transform="translate(-11.13 -6.02)"/><path class="cls-11" d="M34.8,127.14h.4l-.22.23Z" transform="translate(-11.13 -6.02)"/><path class="cls-15" d="M125,53.45l-.25-.06,0-.37,0,0Z" transform="translate(-11.13 -6.02)"/><path class="cls-6" d="M144.88,84.89l-.39.19-.11-.27.49-.13Q144.88,84.78,144.88,84.89Z" transform="translate(-11.13 -6.02)"/><path class="cls-4" d="M122.1,68.59h.48l-.51.25Z" transform="translate(-11.13 -6.02)"/><path class="cls-4" d="M29.79,129.31c-.18,0-.28.09-.36.06s-.09-.14-.13-.22.14-.09.19-.07A1.43,1.43,0,0,1,29.79,129.31Z" transform="translate(-11.13 -6.02)"/><path class="cls-11" d="M31.44,129.45l-.29-.27.09-.13.4.21Z" transform="translate(-11.13 -6.02)"/><path class="cls-15" d="M139.46,130.36l0-.13.09,0Z" transform="translate(-11.13 -6.02)"/><path class="cls-15" d="M131.35,58.44l0,.08-.13,0a.23.23,0,0,1,0-.09S131.32,58.44,131.35,58.44Z" transform="translate(-11.13 -6.02)"/><path class="cls-14" d="M69,71l-.35-.36.16-.18.38.39Z" transform="translate(-11.13 -6.02)"/><path class="cls-14" d="M68.67,70.65l-.24-.37.4.19Z" transform="translate(-11.13 -6.02)"/><path class="cls-15" d="M119.62,52.75l-.07.08s-.05-.07,0-.1,0-.06.06-.08Z" transform="translate(-11.13 -6.02)"/><path class="cls-12" d="M140.08,86.83l.28.16-.28.08a.87.87,0,0,0,0-.16S140.09,86.85,140.08,86.83Z" transform="translate(-11.13 -6.02)"/><path class="cls-18" d="M99.13,76s.06,0,.08,0a.23.23,0,0,1,0,.09h-.13Z" transform="translate(-11.13 -6.02)"/><path class="cls-18" d="M100.37,74.26s.05.07,0,.1,0,.06-.06.08Z" transform="translate(-11.13 -6.02)"/><path class="cls-18" d="M100.85,73.78s.05.07,0,.1,0,.06-.06.08Z" transform="translate(-11.13 -6.02)"/><path class="cls-4" d="M127.4,55.12c-.12.08-.21.18-.28.18s-.14-.12-.22-.18.15-.17.22-.18S127.28,55,127.4,55.12Z" transform="translate(-11.13 -6.02)"/><polygon class="cls-8" points="89.56 57.92 89.67 57.9 89.57 57.85 89.56 57.92"/><path class="cls-18" d="M103.29,72.24s-.06,0-.07,0,0-.05,0-.08l.13,0Z" transform="translate(-11.13 -6.02)"/><path class="cls-15" d="M118.18,66.66s0,.06,0,.08,0,0-.07,0l.06-.13Z" transform="translate(-11.13 -6.02)"/><path class="cls-15" d="M120.16,53.94h-.25l.13-.3Z" transform="translate(-11.13 -6.02)"/><path class="cls-15" d="M133.07,72.17l.26-.24.28.27v0Z" transform="translate(-11.13 -6.02)"/><path class="cls-15" d="M136.14,61.41a.11.11,0,0,1,.06.09l-.11,0Z" transform="translate(-11.13 -6.02)"/><path class="cls-13" d="M108.48,69.58l.16.09s-.06.08-.08.07a.75.75,0,0,1-.16-.07Z" transform="translate(-11.13 -6.02)"/><path class="cls-7" d="M137.45,66.2l.09-.17,0,.14h-.16Z" transform="translate(-11.13 -6.02)"/><path class="cls-16" d="M62.54,170.84l-.24-.24.11-.12.26.26Z" transform="translate(-11.13 -6.02)"/><path class="cls-7" d="M137.45,66.43h-.25l.24-.23,0,0a.85.85,0,0,1,.08.16S137.47,66.4,137.45,66.43Z" transform="translate(-11.13 -6.02)"/><path class="cls-16" d="M63.06,171l.23.16-.33-.07Z" transform="translate(-11.13 -6.02)"/><path class="cls-14" d="M69.87,71.51l.16.42-.32-.17Z" transform="translate(-11.13 -6.02)"/><path class="cls-3" d="M124.65,115l-.21-.22.17-.11c0,.11,0,.21,0,.32Z" transform="translate(-11.13 -6.02)"/><path class="cls-4" d="M72.23,115l0-.33.16.12-.23.21Z" transform="translate(-11.13 -6.02)"/><path class="cls-4" d="M141.28,73.75a.66.66,0,0,1-.16.06s-.05,0-.08-.07a.72.72,0,0,1,.16-.07S141.25,73.72,141.28,73.75Z" transform="translate(-11.13 -6.02)"/><polygon class="cls-2" points="96.46 69.65 96.46 69.72 96.44 69.67 96.46 69.65"/><path class="cls-2" d="M46.12,99.38l.3,0-.14.22Z" transform="translate(-11.13 -6.02)"/><path class="cls-11" d="M141.69,77.08l-.15-.14.1-.07,0,.22Z" transform="translate(-11.13 -6.02)"/><polygon class="cls-12" points="49.07 75.81 49.04 75.75 49.09 75.77 49.07 75.81"/><path class="cls-12" d="M41.08,82.87,41,82.53l.21.19Z" transform="translate(-11.13 -6.02)"/><path class="cls-12" d="M41.23,82.72l.25.23-.22.15-.17-.23Z" transform="translate(-11.13 -6.02)"/><path class="cls-12" d="M144.88,84.89q0-.11,0-.21l.17,0Z" transform="translate(-11.13 -6.02)"/><path class="cls-2" d="M112.94,70.52l.26-.26Z" transform="translate(-11.13 -6.02)"/><path class="cls-4" d="M30.13,129.7l-.09.09a.75.75,0,0,1-.08-.16s0-.05.08-.08Z" transform="translate(-11.13 -6.02)"/><path class="cls-14" d="M69.21,70.86l.22.24-.2.17L69,71Z" transform="translate(-11.13 -6.02)"/><path class="cls-19" d="M139.37,71.08l-.25.16,0-.3Z" transform="translate(-11.13 -6.02)"/><path class="cls-14" d="M69.47,71.51l-.24-.24.2-.17.24.24Z" transform="translate(-11.13 -6.02)"/><path class="cls-16" d="M147.4,121.63a.69.69,0,0,1,.07.16s0,.05-.07.08a.76.76,0,0,1-.07-.16S147.37,121.66,147.4,121.63Z" transform="translate(-11.13 -6.02)"/><path class="cls-16" d="M147.67,121.35l-.15-.08s.06-.08.08-.07a.72.72,0,0,1,.15.08Z" transform="translate(-11.13 -6.02)"/><path class="cls-16" d="M148,120.79a.77.77,0,0,1-.16.08s-.05,0-.08-.07a.71.71,0,0,1,.16-.07S148,120.76,148,120.79Z" transform="translate(-11.13 -6.02)"/><path class="cls-16" d="M148.24,120.31a.78.78,0,0,1-.16.08s-.05,0-.08-.07a.7.7,0,0,1,.16-.07S148.21,120.28,148.24,120.31Z" transform="translate(-11.13 -6.02)"/><path class="cls-14" d="M69.71,71.76l-.24-.24.2-.17.2.17Z" transform="translate(-11.13 -6.02)"/><path class="cls-20" d="M46.86,156.58l-.35-.23,0-.16.75.14Z" transform="translate(-11.13 -6.02)"/><path class="cls-20" d="M110.25,69.3l-.25-.49.27-.35.09.48Z" transform="translate(-11.13 -6.02)"/><path class="cls-18" d="M110.36,68.94l-.09-.48.28-.24Z" transform="translate(-11.13 -6.02)"/><path class="cls-20" d="M123.66,71.45l-.35.19.06-.54Z" transform="translate(-11.13 -6.02)"/><path class="cls-20" d="M52.63,139.82l-.21.51-.3-.26.3-.5Z" transform="translate(-11.13 -6.02)"/><path class="cls-20" d="M107.8,36.9c-.2,0-.3.06-.37,0s-.1-.13-.14-.21.14-.08.19-.06A1.72,1.72,0,0,1,107.8,36.9Z" transform="translate(-11.13 -6.02)"/><path class="cls-15" d="M109.53,72.31l-.51.15-.06-.14.35-.19Z" transform="translate(-11.13 -6.02)"/><path class="cls-15" d="M110,71.79l-.09.15s-.08-.06-.08-.08a.75.75,0,0,1,.08-.16Z" transform="translate(-11.13 -6.02)"/><path class="cls-20" d="M35,115.16h-.28v-.35Z" transform="translate(-11.13 -6.02)"/><path class="cls-15" d="M109.3,72.13l.32-.17-.09.35Z" transform="translate(-11.13 -6.02)"/><path class="cls-20" d="M112.48,72.07a.69.69,0,0,1-.16.07s-.05,0-.08-.07a.75.75,0,0,1,.16-.07S112.45,72,112.48,72.07Z" transform="translate(-11.13 -6.02)"/><path class="cls-18" d="M46.91,145.1l.22-.11-.06.26Z" transform="translate(-11.13 -6.02)"/><path class="cls-20" d="M122.66,70.15l.15-.21.29.15-.27.21Z" transform="translate(-11.13 -6.02)"/><path class="cls-20" d="M122.83,70.3l-.21.15,0-.29Z" transform="translate(-11.13 -6.02)"/><path class="cls-1" d="M22.42,54l-.08-.27.26.07Z" transform="translate(-11.13 -6.02)"/><path class="cls-20" d="M94.78,73.2l-.17.36-.12,0,.07-.51Z" transform="translate(-11.13 -6.02)"/><path class="cls-20" d="M95.32,8.91l.38,0-.21.19Z" transform="translate(-11.13 -6.02)"/><path class="cls-20" d="M36.5,127.53l.16.71-.14,0-.27-.47Z" transform="translate(-11.13 -6.02)"/><path class="cls-6" d="M39.23,129.53l0,.1-.1-.13s.07-.05.09,0S39.21,129.5,39.23,129.53Z" transform="translate(-11.13 -6.02)"/><path class="cls-21" d="M111.06,152.77c-6.85,9-17.79,9.11-25,0,2.55-2.45,5.19-4.76,8.78-5.58a1.62,1.62,0,0,1,.92.1,7.36,7.36,0,0,0,3.95.09c.47-.06.91-.8,1.33-.76a7.6,7.6,0,0,1,3.26.77,60.05,60.05,0,0,1,5.13,3.91C109.94,151.73,110.45,152.23,111.06,152.77Zm-17.3,1.5-.45-.87a8.33,8.33,0,0,0-1.21.81c-.18.17-.17.53-.25.8a2.33,2.33,0,0,0,.85.19,2.8,2.8,0,0,0,.82-.44c-.08,1.16.49,1.55,1.67,1.14a1.21,1.21,0,0,1,.51-.11,7.56,7.56,0,0,0,1.21.21c.25-.61,1-1.22.24-2a5.35,5.35,0,0,1,.82-.22c1.58-.18,3.17-.28,4.74-.52a2.57,2.57,0,0,0,2.2-1.79c-2-.33-4-.88-6-.15a1.89,1.89,0,0,1-1.06,0c-1.6-.43-3,.15-4.79.75l1.87,1.5Z" transform="translate(-11.13 -6.02)"/><path class="cls-20" d="M27.37,100.64l.47.22,0,.18-.63-.12Z" transform="translate(-11.13 -6.02)"/><path class="cls-20" d="M28.4,101.18l-.38,0a.3.3,0,0,1,0-.08l.38,0Z" transform="translate(-11.13 -6.02)"/><path class="cls-11" d="M30.33,102.09s0-.08,0-.08a.31.31,0,0,1,.1,0s0,.08,0,.08A.31.31,0,0,1,30.33,102.09Z" transform="translate(-11.13 -6.02)"/><path class="cls-19" d="M136.11,74.21,138,72.52l.19.22-1.93,1.67Z" transform="translate(-11.13 -6.02)"/><path class="cls-15" d="M134.19,73.68l1.65-1.11.2.3L134.52,74Z" transform="translate(-11.13 -6.02)"/><path class="cls-17" d="M133.61,72.2l-.28-.27.76-.46Z" transform="translate(-11.13 -6.02)"/><path class="cls-15" d="M137,68.39l-.08-.3h.33Z" transform="translate(-11.13 -6.02)"/><path class="cls-17" d="M134.55,71l.63-.24Z" transform="translate(-11.13 -6.02)"/><path class="cls-17" d="M135.52,70.4l.24-.63Z" transform="translate(-11.13 -6.02)"/><path class="cls-15" d="M137.7,75.33l-.38.21-.07-.11.29-.27Z" transform="translate(-11.13 -6.02)"/><path class="cls-15" d="M134.73,76.62c-.06.08-.1.19-.14.19a1.06,1.06,0,0,1-.28-.08c0-.06.07-.18.09-.18A1.55,1.55,0,0,1,134.73,76.62Z" transform="translate(-11.13 -6.02)"/><path class="cls-17" d="M136,69.56l.27-.26Z" transform="translate(-11.13 -6.02)"/><path class="cls-17" d="M136.23,69.32l.26-.32Z" transform="translate(-11.13 -6.02)"/><path class="cls-7" d="M136.73,68.78l.22-.19Z" transform="translate(-11.13 -6.02)"/><path class="cls-19" d="M138,72.52l.17-.2.26.18-.24.24Z" transform="translate(-11.13 -6.02)"/><path class="cls-20" d="M132,76.75a.64.64,0,0,1,.06.15s0,0-.07.07a.71.71,0,0,1-.06-.15S132,76.78,132,76.75Z" transform="translate(-11.13 -6.02)"/><path class="cls-17" d="M135.74,69.8l.27-.26Z" transform="translate(-11.13 -6.02)"/><path class="cls-17" d="M134.32,71.24l.25-.26,0,.27Z" transform="translate(-11.13 -6.02)"/><path class="cls-17" d="M134.09,71.47l.24-.25,0,.26Z" transform="translate(-11.13 -6.02)"/><path class="cls-20" d="M128,70.08l-.35-.73,1.2-.67c.07.24.28.62.2.7A6,6,0,0,1,128,70.08Z" transform="translate(-11.13 -6.02)"/><path class="cls-7" d="M132.39,70.15l-.62.84-.3-.26.82-.68h.1Z" transform="translate(-11.13 -6.02)"/><path class="cls-7" d="M135.38,68.48c0,.06-.06.14-.11.17s-.11,0-.17,0,0-.15.09-.17S135.32,68.46,135.38,68.48Z" transform="translate(-11.13 -6.02)"/><path class="cls-15" d="M132.93,69.6l-.24.24-.19-.17.34-.36Z" transform="translate(-11.13 -6.02)"/><path class="cls-15" d="M132.84,69.3v0l.31,0-.23.25Z" transform="translate(-11.13 -6.02)"/><path class="cls-15" d="M132.28,70l.22-.38.19.17-.3.31V70Z" transform="translate(-11.13 -6.02)"/><path class="cls-19" d="M126,65.52l-.26-.19,3.46-5.3" transform="translate(-11.13 -6.02)"/><path class="cls-20" d="M129.75,65.46c-.06,1-.33,1.36-1,1.44Z" transform="translate(-11.13 -6.02)"/><path class="cls-15" d="M131.19,61.86l-.43,1.76-.24-.31Z" transform="translate(-11.13 -6.02)"/><path class="cls-20" d="M130,64.38c.49.3.42.61-.24,1.09h-.1l0-.08.14-.45Z" transform="translate(-11.13 -6.02)"/><path class="cls-20" d="M130.52,63.31l.24.31-.28.54Z" transform="translate(-11.13 -6.02)"/><path class="cls-19" d="M126,65.52l-.45.14.19-.33Z" transform="translate(-11.13 -6.02)"/><path class="cls-15" d="M129.74,64.94l-.14.45Z" transform="translate(-11.13 -6.02)"/><path class="cls-20" d="M129.93,57.91l-.07.08s-.06-.06-.06-.08,0-.05.07-.08Z" transform="translate(-11.13 -6.02)"/><path class="cls-7" d="M124.73,61.63l-.3.78-.25-.17.54-.62Z" transform="translate(-11.13 -6.02)"/><path class="cls-7" d="M125.2,60.66l-.47,1h0l.25-.9Z" transform="translate(-11.13 -6.02)"/><path class="cls-7" d="M123.39,63.6l.26-.46.16.07-.22.52Z" transform="translate(-11.13 -6.02)"/><path class="cls-20" d="M124.9,60.41l.27-.68.26.1-.23.6Z" transform="translate(-11.13 -6.02)"/><path class="cls-20" d="M122.35,65.26l-.36.37-.19-.2.4-.36Z" transform="translate(-11.13 -6.02)"/><path class="cls-20" d="M122.2,65.07h.29l-.14.2Z" transform="translate(-11.13 -6.02)"/><path class="cls-11" d="M53.53,110.52s.08,0,.08,0a.3.3,0,0,1,0,.1l-.09,0Z" transform="translate(-11.13 -6.02)"/><path class="cls-20" d="M54.65,111.68l-.29-.39.1-.13.52.28Z" transform="translate(-11.13 -6.02)"/><path class="cls-20" d="M53.07,110.35a.61.61,0,0,1,.06.15s0,0-.07.07a.67.67,0,0,1-.06-.15S53,110.37,53.07,110.35Z" transform="translate(-11.13 -6.02)"/><path class="cls-20" d="M143.79,98.09H145C144.6,98.33,144.19,98.92,143.79,98.09Z" transform="translate(-11.13 -6.02)"/><path class="cls-12" d="M141.47,86.65c-.15.06-.28.16-.33.13s-.14-.19-.2-.29c.1,0,.21-.1.3-.08S141.37,86.54,141.47,86.65Z" transform="translate(-11.13 -6.02)"/><path class="cls-5" d="M95,153.55,93.09,152c1.78-.6,3.19-1.17,4.79-.75a1.89,1.89,0,0,0,1.06,0c2-.73,3.93-.18,6,.15a2.57,2.57,0,0,1-2.2,1.79c-1.57.24-3.16.34-4.74.52a5.35,5.35,0,0,0-.82.22Zm7.55-1.15v-.31c-.78,0-1.56-.05-2.32,0s-1.46.24-2.19.37l0,.31Z" transform="translate(-11.13 -6.02)"/><path class="cls-22" d="M95,153.55l2.18.48c.79.74,0,1.35-.24,2a7.56,7.56,0,0,1-1.21-.21,1.21,1.21,0,0,0-.51.11c-1.18.41-1.74,0-1.67-1.14l.25-.48Z" transform="translate(-11.13 -6.02)"/><path class="cls-2" d="M93.76,154.27l-.25.48a2.8,2.8,0,0,1-.82.44,2.33,2.33,0,0,1-.85-.19c.08-.27.07-.63.25-.8a8.33,8.33,0,0,1,1.21-.81Z" transform="translate(-11.13 -6.02)"/></g></svg>