<svg id="Layer_1" data-name="Layer 1" xmlns="http://www.w3.org/2000/svg" width="125" height="125" viewBox="0 0 125 125"><defs><style>.cls-1{fill:none;stroke:#d2c7e1;stroke-miterlimit:10;stroke-width:2.93px;}.cls-2{fill:#846493;}</style></defs><title>icons</title><circle class="cls-1" cx="62.5" cy="62.5" r="60"/><path class="cls-2" d="M102.78,43,65.18,59.7a1.21,1.21,0,1,0,1,2.22L103.76,45.2a1.21,1.21,0,0,0-1-2.22"/><path class="cls-2" d="M33.92,55.48a8.57,8.57,0,0,1,2-1.23L96.29,27.4a1.21,1.21,0,1,0-1-2.21L34.91,52a11,11,0,0,0-2.54,1.58,1.21,1.21,0,1,0,1.55,1.86Z"/><path class="cls-2" d="M102.78,43,65.18,59.7a1.21,1.21,0,1,0,1,2.22L103.76,45.2a1.21,1.21,0,0,0-1-2.22"/><path class="cls-2" d="M33.92,55.48a8.57,8.57,0,0,1,2-1.23L96.29,27.4a1.21,1.21,0,1,0-1-2.21L34.91,52a11,11,0,0,0-2.54,1.58,1.21,1.21,0,1,0,1.55,1.86Z"/><path class="cls-2" d="M67.49,61a3,3,0,0,0-1-.73,32.15,32.15,0,0,0-15.06-3.58,57.85,57.85,0,0,0-6.91.47,15.75,15.75,0,0,1-1.87.11,12.23,12.23,0,0,1-5.94-1.45,11.75,11.75,0,0,1-3.27-2.64,3.35,3.35,0,0,0-1-.8,2.77,2.77,0,0,0-1.27-.31A3,3,0,0,0,29,53a11.43,11.43,0,0,0-3.18,8,14.13,14.13,0,0,0,.27,2.71c.64,3.25,2.37,6.09,3.85,8.7a34.43,34.43,0,0,1,1.92,3.72,8.64,8.64,0,0,1,.77,3.29,5.5,5.5,0,0,1-1.22,3.42l-.05,0a21.74,21.74,0,0,0-2.94,5.57,17.29,17.29,0,0,0-1.17,5.54,9,9,0,0,0,18.06,0,16.28,16.28,0,0,0-.5-3.68,22.1,22.1,0,0,0-1.35-3.93,1.17,1.17,0,0,0-.14-.33,10.94,10.94,0,0,1-2.13-6,6.41,6.41,0,0,1,.63-2.79A8,8,0,0,1,44,74.67,8.4,8.4,0,0,1,45,74l.27-.16.06,0,20-8.83h0a8,8,0,0,0,1.13-.6,4.41,4.41,0,0,0,.89-.73,2.55,2.55,0,0,0,.4-.58,1.91,1.91,0,0,0,.21-.85A1.88,1.88,0,0,0,67.49,61ZM36.44,99.18a6,6,0,0,1-6-6,1.21,1.21,0,0,1,2.43,0,3.54,3.54,0,0,0,3.54,3.54,1.21,1.21,0,1,1,0,2.43Z"/></svg>