<svg id="Layer_1" data-name="Layer 1" xmlns="http://www.w3.org/2000/svg" width="125" height="125" viewBox="0 0 125 125"><defs><style>.cls-1,.cls-2{fill:none;}.cls-1{stroke:#d2c7e1;stroke-miterlimit:10;stroke-width:2.93px;}.cls-3{fill:#846493;}</style></defs><title>icons</title><circle class="cls-1" cx="62.5" cy="62.5" r="60"/><path class="cls-2" d="M91.07,40.08a12,12,0,0,0,.11-1.55c0-4.64-2.56-9.18-7-12.45-4.92-3.6-11.86-5.51-20.07-5.51h-.59c-14.07.15-26,8.22-31.92,21.57-6,13.52-4.48,28.81,3.74,38.06l3,3.37C43,96.91,52.26,106.67,61.9,106.67c8.81,0,18.59-9.49,23.46-22.58l3.44-3.87C96.72,71.3,98.41,56.73,93,44A39.29,39.29,0,0,0,91.07,40.08Z"/><path class="cls-3" d="M41.15,104.55a3.26,3.26,0,0,1-4.61,0L20.46,88.48a3.26,3.26,0,0,1,0-4.61l30.4-30.4a3.26,3.26,0,0,1,4.61,0L71.54,69.54a3.26,3.26,0,0,1,0,4.61Z"/><rect class="cls-3" x="63.19" y="45.19" width="13" height="20.25" transform="translate(-18.7 65.48) rotate(-45)"/><polygon class="cls-3" points="101.15 29.49 80.8 29.89 69.6 41.09 83.93 55.41 105.5 33.84 101.15 29.49"/></svg>