<svg id="Layer_1" data-name="Layer 1" xmlns="http://www.w3.org/2000/svg" width="125" height="125" viewBox="0 0 125 125"><defs><style>.cls-1,.cls-3,.cls-4{fill:none;}.cls-1{stroke:#d2c7e1;stroke-width:2.93px;}.cls-1,.cls-4{stroke-miterlimit:10;}.cls-2{fill:#846493;}.cls-4{stroke:#846493;stroke-linecap:round;}</style></defs><title>icons</title><circle class="cls-1" cx="62.5" cy="62.5" r="60"/><path class="cls-2" d="M91.07,40.08a12,12,0,0,0,.11-1.55c0-4.64-2.56-9.18-7-12.45-4.92-3.6-11.86-5.51-20.07-5.51h-.59c-14.07.15-26,8.22-31.92,21.57-6,13.52-4.48,28.81,3.74,38.06l3,3.37C43,96.91,52.26,106.67,61.9,106.67c8.81,0,18.59-9.49,23.46-22.58l3.44-3.87C96.72,71.3,98.41,56.73,93,44A39.29,39.29,0,0,0,91.07,40.08ZM35.7,71.85c-.07-.14-.12-.28-.19-.42-3.54-7.74-3.45-18.09.61-27.27.33-.75.68-1.47,1-2.17a32.49,32.49,0,0,1,5.76-7.92,29,29,0,0,1,20.63-8.53h.53a40.65,40.65,0,0,1,7.38.64c8.74,1.62,13.68,6.09,14.57,10.8a8.39,8.39,0,0,1,.17,1.56,7.12,7.12,0,0,1-.41,2.38,7.35,7.35,0,0,1-2.19,3.15,9.44,9.44,0,0,1-2.2,1.38,15.06,15.06,0,0,1-6.3,1.23h-.38A57.56,57.56,0,0,0,62.1,47.76a42.54,42.54,0,0,0-5.83,1.63,36.35,36.35,0,0,0-5,2.24A30.74,30.74,0,0,0,39.62,62.55,33.63,33.63,0,0,0,35.7,71.85Zm7.41-1.27c0-4.1,3.71-7.43,8.27-7.43s8.27,3.33,8.27,7.43S56,78,51.39,78,43.12,74.68,43.12,70.58ZM51.5,92.39c2.74-2.69,6.58-6.9,10.07-4.12,3.25-3.21,7.21,1.35,10.07,4.12C66.68,99.21,57.24,99.53,51.5,92.39ZM72.19,78c-4.57,0-8.27-3.33-8.27-7.43s3.7-7.43,8.27-7.43,8.28,3.33,8.28,7.43S76.76,78,72.19,78Zm16.26-6.12c-.05-.21-.12-.43-.17-.64a33.44,33.44,0,0,0-3.75-8.7A30.76,30.76,0,0,0,72.88,51.62h2.24a19,19,0,0,0,9.51-2.25,13.22,13.22,0,0,0,3.87-3.28C92.17,54.88,92,64.55,88.45,71.89Z"/><path class="cls-3" d="M91.07,40.08a12,12,0,0,0,.11-1.55c0-4.64-2.56-9.18-7-12.45-4.92-3.6-11.86-5.51-20.07-5.51h-.59c-14.07.15-26,8.22-31.92,21.57-6,13.52-4.48,28.81,3.74,38.06l3,3.37C43,96.91,52.26,106.67,61.9,106.67c8.81,0,18.59-9.49,23.46-22.58l3.44-3.87C96.72,71.3,98.41,56.73,93,44A39.29,39.29,0,0,0,91.07,40.08Z"/><path class="cls-2" d="M58.71,72.08l-2.16-1.83a.38.38,0,0,0-.69-.18,5.8,5.8,0,0,1-4.55,2.06,4.37,4.37,0,0,1-4-2,.38.38,0,0,0-.72.12l-.08,0-2.29,1.94a.38.38,0,1,0,.49.58l2.22-1.89a4.57,4.57,0,0,0,.38.43l-1.64,2.4a.38.38,0,1,0,.63.43l1.59-2.33a5,5,0,0,0,.53.34l-.89,2.65a.38.38,0,0,0,.24.48l.12,0a.38.38,0,0,0,.36-.26l.86-2.57a5.75,5.75,0,0,0,.64.19l-.44,2.71a.38.38,0,0,0,.32.44h.06a.38.38,0,0,0,.38-.32l.43-2.7c.22,0,.44,0,.68,0l0,2.83a.38.38,0,0,0,.38.38h0a.38.38,0,0,0,.38-.38l0-2.85.51-.06.42,2.58a.38.38,0,0,0,.38.32h.06a.38.38,0,0,0,.32-.44l-.42-2.62a6.67,6.67,0,0,0,.65-.22l.84,2.5a.38.38,0,0,0,.36.26l.12,0a.38.38,0,0,0,.24-.48l-.87-2.58c.2-.11.39-.22.56-.33L56.63,74a.38.38,0,1,0,.63-.43L55.7,71.32a6,6,0,0,0,.44-.42l2.07,1.76a.38.38,0,1,0,.49-.58Z"/><path class="cls-2" d="M79.59,72.08l-2.16-1.83a.38.38,0,0,0-.69-.18,5.8,5.8,0,0,1-4.55,2.06,4.37,4.37,0,0,1-4-2,.38.38,0,0,0-.72.12l-.08,0-2.29,1.94a.38.38,0,1,0,.49.58l2.22-1.89a4.57,4.57,0,0,0,.38.43l-1.64,2.4a.38.38,0,1,0,.63.43l1.59-2.33a5,5,0,0,0,.53.34l-.89,2.65a.38.38,0,0,0,.24.48l.12,0a.38.38,0,0,0,.36-.26L70,72.51a5.75,5.75,0,0,0,.64.19l-.44,2.71a.38.38,0,0,0,.32.44h.06a.38.38,0,0,0,.38-.32l.43-2.7c.22,0,.44,0,.68,0l0,2.83a.38.38,0,0,0,.38.38h0a.38.38,0,0,0,.38-.38l0-2.85.51-.06.42,2.58a.38.38,0,0,0,.38.32h.06a.38.38,0,0,0,.32-.44l-.42-2.62a6.67,6.67,0,0,0,.65-.22l.84,2.5a.38.38,0,0,0,.36.26l.12,0a.38.38,0,0,0,.24-.48l-.87-2.58c.2-.11.39-.22.56-.33L77.51,74a.38.38,0,1,0,.63-.43l-1.56-2.28A6,6,0,0,0,77,70.9l2.07,1.76a.38.38,0,1,0,.49-.58Z"/><line class="cls-4" x1="55.51" y1="92.58" x2="67.63" y2="92.58"/></svg>