<svg id="Layer_1" data-name="Layer 1" xmlns="http://www.w3.org/2000/svg" width="125" height="125" viewBox="0 0 125 125"><defs><style>.cls-1{fill:#846493;}.cls-2{fill:none;stroke:#d2c7e1;stroke-miterlimit:10;stroke-width:2.93px;}</style></defs><title>icons</title><path class="cls-1" d="M82.3,91.15A9,9,0,0,0,75,83.39a41.79,41.79,0,0,1-5.09-9.25,36.93,36.93,0,0,1-2.14-7.77,21.12,21.12,0,0,1-.29-2.9L66.6,60,67,55l.36-4.11L69.6,25.4l-1.77-1.78L62.54,44,57.35,23.62,55.4,25.4l2.21,25.46L58,55,58.41,60l-.89,3.43a21.11,21.11,0,0,1-.28,2.9,36.92,36.92,0,0,1-2.15,7.78A41.79,41.79,0,0,1,50,83.39a9,9,0,0,0-7.3,7.76C42,96.09,45,100.64,49.48,101.3a7.53,7.53,0,0,0,1.1.08h0c4.09,0,7.67-3.37,8.33-7.83a9.16,9.16,0,0,0-3.5-8.82,23.6,23.6,0,0,1,2.73-8.92c1.13-1.89,2-3.68,2.94-5.16a10.74,10.74,0,0,1,1.43-1.81,10.73,10.73,0,0,1,1.43,1.81c1,1.48,1.8,3.27,2.94,5.16a23.59,23.59,0,0,1,2.73,8.91,8.23,8.23,0,0,0-2.12,2.22,9.51,9.51,0,0,0-1.39,6.61c.66,4.47,4.24,7.83,8.33,7.83a7.51,7.51,0,0,0,1.1-.08,7.77,7.77,0,0,0,5.39-3.54A9.51,9.51,0,0,0,82.3,91.15Zm-26.35,2c-.45,3-2.76,5.29-5.38,5.29a4.53,4.53,0,0,1-.66,0c-2.84-.42-4.75-3.45-4.26-6.76.45-3,2.76-5.29,5.38-5.29a4.53,4.53,0,0,1,.66,0C54.53,86.77,56.44,89.8,55.95,93.11Zm8-29.44a1.71,1.71,0,1,1,.29-.95A1.71,1.71,0,0,1,63.93,63.67ZM78.42,96.13a4.82,4.82,0,0,1-3.33,2.22,4.53,4.53,0,0,1-.66,0c-2.62,0-4.93-2.27-5.38-5.29A6.53,6.53,0,0,1,70,88.57a4.82,4.82,0,0,1,3.33-2.22,4.53,4.53,0,0,1,.66,0c2.62,0,4.93,2.27,5.38,5.29A6.53,6.53,0,0,1,78.42,96.13Z"/><circle class="cls-2" cx="62.5" cy="62.5" r="60"/><path class="cls-1" d="M30,50.31h-6.2a3.32,3.32,0,0,0-3.32,3.32V72.37a3.33,3.33,0,0,0,3.32,3.33H30Z"/><path class="cls-1" d="M92.65,40.15v2.54L70.89,45l-.5,5.82L70,55l-.44,5,.88,3.47a21.12,21.12,0,0,0,.29,2.9,36.94,36.94,0,0,0,2.14,7.77,41.53,41.53,0,0,0,3.81,7.38l15.92,1.79v2.54h7.83V40.15Z"/><path class="cls-1" d="M49.5,79.51a41.18,41.18,0,0,0,2.58-5.37,36.93,36.93,0,0,0,2.15-7.78,21.11,21.11,0,0,0,.28-2.9L55.41,60,55,55l-.36-4.11L54.19,46l-6.2.87L37.59,54.32H33.36V71.68h4.23L48,79.08Z"/></svg>