<svg id="Layer_1" data-name="Layer 1" xmlns="http://www.w3.org/2000/svg" width="125" height="125" viewBox="0 0 125 125"><defs><style>.cls-1,.cls-2{fill:none;}.cls-1{stroke:#d2c7e1;stroke-miterlimit:10;stroke-width:2.93px;}.cls-3{fill:#846493;}</style></defs><title>icons</title><circle class="cls-1" cx="62.5" cy="62.5" r="60"/><path class="cls-2" d="M91.07,40.08a12,12,0,0,0,.11-1.55c0-4.64-2.56-9.18-7-12.45-4.92-3.6-11.86-5.51-20.07-5.51h-.59c-14.07.15-26,8.22-31.92,21.57-6,13.52-4.48,28.81,3.74,38.06l3,3.37C43,96.91,52.26,106.67,61.9,106.67c8.81,0,18.59-9.49,23.46-22.58l3.44-3.87C96.72,71.3,98.41,56.73,93,44A39.29,39.29,0,0,0,91.07,40.08Z"/><polygon class="cls-3" points="63.41 72.36 52.4 72.36 50.43 75.88 63.41 75.88 76.4 75.88 74.43 72.36 63.41 72.36"/><path class="cls-3" d="M50.43,78.09V98.94s6.22,3.79,13,3.79,13-3.79,13-3.79V78.09h-26Z"/><path class="cls-3" d="M59,18.27S79.56,33.6,80.59,53.91c0,0-.83,14.09-7.67,15.33H51.79a26.83,26.83,0,0,1-6.35-19.06C46,38.16,64.43,33.19,59,18.27Z"/></svg>