<svg id="Layer_1" data-name="Layer 1" xmlns="http://www.w3.org/2000/svg" width="379.27" height="379.27" viewBox="0 0 379.27 379.27"><defs><style>.cls-1{fill:#fff;}.cls-2{fill:#151717;}.cls-3{fill:#090909;}.cls-4{fill:#111313;}.cls-5{fill:#080808;}.cls-6{fill:#0a0a0a;}.cls-7{fill:#121515;}.cls-8{fill:#111;}.cls-9{fill:#171a1a;}.cls-10{fill:#151919;}.cls-11{fill:#171919;}.cls-12{fill:#0f1111;}.cls-13{fill:#191c1c;}.cls-14{fill:#141718;}.cls-15{fill:#0b0b0b;}.cls-16{fill:#0c0c0c;}.cls-17{fill:#181b1b;}.cls-18{fill:#1f2121;}.cls-19{fill:#333535;}.cls-20{fill:#f9f9fa;}.cls-21{fill:#6c6e6d;}.cls-22{fill:#d0d1d1;}.cls-23{fill:#f3f3f3;}.cls-24{fill:#e2e2e2;}.cls-25{fill:#be202e;}.cls-26{fill:#e9e8e9;}</style></defs><title>logo-website</title><circle class="cls-1" cx="189.63" cy="189.63" r="189.63"/><path class="cls-2" d="M225.68,130.27,224,131.44c.17-.67.16-1,.3-1.11,4.8-5.48,6.57-12.22,7.77-19.14,1-6,1.88-12.17,0-18-2.59-8-6.79-15.14-15.59-17.93a17.68,17.68,0,0,0-13,1.12,97.62,97.62,0,0,0-14.33,8c-6.18,4.28-7.36,10.68-5.57,17.6,1.17,4.53,2.87,8.93,4.33,13.39.6,1.85,1.19,3.7,1.74,5.56a9.38,9.38,0,0,1-.87,7.57c-4.37,7.76-16.93,12.23-25.25,9l0-.66c9,2.52,16.38-.41,22.6-6.88a8.23,8.23,0,0,0,2-8.94c-1.73-4.87-3.59-9.7-5.1-14.63a42.58,42.58,0,0,1-1.73-9.06c-.49-6.3,2.18-11.33,7.34-14.8,4.64-3.12,9.57-5.81,14-8.44-6.2.42-13,1.41-19.23,4.27a20.58,20.58,0,0,1-12.65,1.7,26.49,26.49,0,0,0-13.34.95,13.52,13.52,0,0,0-8.17,7.61c-2,4.47-3.3,9.24-6.53,13.09a2.88,2.88,0,0,0-.36,1.45c-.67.25-1.21.28-1.45.56a8.57,8.57,0,0,1-5.38,2.8,39.42,39.42,0,0,0-19.17,8.81c-2.22,1.93-4.63,3.66-7.95,3.32-.82-.08-1.82.75-2.61,1.34-1.4,1-2.65,2.3-4.09,3.28a15.54,15.54,0,0,1-2.75,1,10.94,10.94,0,0,0-3.33,1.64c-2.54,2.39-4.91,5-7.3,7.52a2.52,2.52,0,0,0-.36,1.21c-.31,1.67-.09,3.68-1,4.94-4.15,6-3.37,12.38-2.58,19,.64,5.44,3.83,8.33,8.36,10.34a5.84,5.84,0,0,0,2.34.43c8.27,0,16.55.09,24.69-1.72l.08.53c-4,.88-8.06,2.31-12.14,2.52-7.54.39-15.12.24-22.67-.05-2.07-.08-4.19-1.3-6.1-2.34a2.52,2.52,0,0,0-3.08.1c-6.93,4.8-8.57,11.32-4.7,19.42a10.82,10.82,0,0,1,1.18,5.34,11.25,11.25,0,0,0,5.41,10.59,2.09,2.09,0,0,1,1.05,2.49c-.49,3.17.28,6.18,1.43,9.24,1-4.42,4.44-6.57,7.75-8.85,4.86-3.35,9.2-7.21,12.08-12.48l.19,0,.19,0v1.49l.46.19,1.65-2.5.4,0c-1.84,9-7.54,14.6-15.87,18a3.53,3.53,0,0,0,1.88-.18c9-3.34,15.25-9.21,17-19.07h-.07c.7,3.66-.4,6.93-2.22,10-.8,1.37-1.62,2.73-2.43,4.09l-1.6.65,0,.59v0a1.13,1.13,0,0,0-.15-.12c-4.18,3.83-9.42,5.45-14.69,7-2,.58-3.48,1.83-3.61,3.84a30.22,30.22,0,0,0,.51,7c.44,2.56,1.25,5.07,1.88,7.6a11.52,11.52,0,0,1,.31,1.76,11.94,11.94,0,0,0,8.25,10.88,25.81,25.81,0,0,0,11.34,1.24c2-.16,3.15.36,3.35,2.58l3.88-2.42.23.39a48.68,48.68,0,0,0-4.64,4.41,20.53,20.53,0,0,0-2.11,4.18c1.44.58,2.85,1.21,4.31,1.73a5.2,5.2,0,0,0,1.62,0l2.29-7.68.57.16-1.35,7.52c3.85-.08,7.52-.54,10.4-2.57s5-4.87,7.45-7.37l-.06,1-.51.83.5.44.35-.86,1.4-1.66.64.57c-3.91,5.52-9.38,9.74-13.47,15.46,1-.36,1.85-.64,2.7-1,1-.45,1.78-.46,2,.91a1.94,1.94,0,0,0,.83,1.29c1.95.85,3.22,2.86,5.62,3,.74,0,1.4,1.26,1.8,2.25.13,0,.28.1.38,0,1.06-.52,2.42-1.59,3.16-.19a5.12,5.12,0,0,1,.15,4.05c-2.59,5.33-7.43,5.34-11.42,4.13-1-.29-1.87-.72-2.8-1.09l-1.27-.23-.06.27.59.38c1.64.89,3.23,1.9,4.93,2.65s3.49,1.21,5.38,1.85c-2.44,4.63-1.79,9.2-.72,14.06l1.5-1.84.41.43-2,4.06c-1.69-5.5-2.67-10.69-.75-16.08-4.6-1.67-9.78-2.46-12.24-7.57a10.57,10.57,0,0,1-.32-2.87c1.77,1.29,2.92,2.2,4.14,3a11.85,11.85,0,0,0,8,2.06c3.37-.38,5.95-3.29,5.36-6.46l-4.26,3.17-.4-.38.5-4.4c-1.09.44-1.8.78-2.55,1a12.75,12.75,0,0,1-1.8.28c.12-.54.24-1.08.37-1.62a3.75,3.75,0,0,1,.17-.5l-4.74-3.54c-2.17.55-4.6,1.29-7.07,1.77s-5.68-.59-6.45-3.53a1.85,1.85,0,0,0-1-1.08c-4.63-1.63-5.1-5.79-3.54-9.61.45-1.1,1-2.15,1.4-3-3.87-.42-7.8-.49-11.55-1.34-6.65-1.5-10.25-5.9-11.13-12.69-.09-.66-.31-1.3-.46-2-.66-2.86-1.71-5.71-1.87-8.6-.22-4.1-1.71-7.82-2.5-11.74-.42-2.09.12-4.47-.66-6.35s-2.82-3.1-4-4.81c-1.89-2.67-2.37-5.78-2.35-9a6.88,6.88,0,0,0-.57-2.84c-2.13-4.62-3.47-9.34-2-14.42,1.33-4.64,4.74-7.53,8.7-9.87,1.39-.82,2.72-.29,3.94.6a10.35,10.35,0,0,0,6.3,2.24c-5.19-5.43-4.9-12.3-5.14-18.94a16.45,16.45,0,0,1,2.93-9.9c1-1.46,2.18-3,.75-4.94-.23-.31.14-1.34.53-1.77,2.57-2.84,5.15-5.68,7.88-8.37a8.63,8.63,0,0,1,6-2.93c.79,0,1.6-.88,2.34-1.44,1.4-1,2.71-2.21,4.14-3.2a3.58,3.58,0,0,1,2.22-.79c2.8.43,4.79-1.06,6.67-2.68,6-5.22,13.13-8,20.85-9.45a7.2,7.2,0,0,0,3.39-1.86,25.07,25.07,0,0,0,6.52-10.73c2.59-8.19,8-13.15,16.7-13.76a51.91,51.91,0,0,1,11.25.41,14,14,0,0,0,7.41-1.07C201.2,69,221.24,69.35,240.78,80c1.61.88,3.77.74,5.65,1.16,17.68,3.91,28.19,15,32.07,32.46,1,4.49.94,9.21,1.59,13.79.42,3,1.26,5.89,1.9,8.84s1.21,5.78,1.89,8.66a5.06,5.06,0,0,0,1,1.91c2.18,2.74,4.25,5.58,6.67,8.1s2.88,5.74,2.64,9.12c-.23,3.21-.34,6.42-.53,9.63-.11,1.81-.35,3.61-.4,5.41a8.66,8.66,0,0,0,.42,2.53c.75,2.67,1.51,5.32.25,8h-.69c1-2.83.31-5.53-.51-8.26a10.51,10.51,0,0,1-.27-3.1c0-1,.25-2,.29-3,.14-3.94.19-7.88.36-11.82.13-3-.34-5.75-2.74-7.86-.35-.31-.57-.76-.93-1.06-6.44-5.37-8.16-13-9.55-20.62C279,129,278.51,124,277.8,119c-1.83-12.73-7-23.52-18.26-30.58a40.68,40.68,0,0,0-17.22-5.79,8.82,8.82,0,0,1-3.17-1,58.13,58.13,0,0,0-15.52-6c-.3-.07-.61-.09-1.27-.18a5.46,5.46,0,0,0,.69,1.11c9.35,8,12.72,18.08,11,30.11-1,6.68-2.32,13.22-5.5,19.26a2.59,2.59,0,0,0-.33.94c-.19,2.17-.35,4.34-.52,6.61l2.42-1.54c0,1.61.86.1,1.24.32l-.36,1.43,1.61,1.72,4.89-3.72.31.29-.47,1.36-.43,1,.49-.05,4.26-2.91v3.13l4.7-3.54,1.54-1.15v1.57l-.25.35-.07.5.35-.25.46-.35c1.7.17.21,1.17.44,1.72l-.09.9.59-.33,2.46-1.5c-.18,3.34-.27,6.32-.53,9.28-.12,1.33.08,2,1.54,2.43a20.05,20.05,0,0,1,10.2,6.07c.12.14.42.13.64.2l-.06,0a2.47,2.47,0,0,0,.21.86,20.5,20.5,0,0,1,3.84,14.08,18,18,0,0,0,1.63,8.81q2.64,6,5.09,12c1,2.59,1.32,5.32-.19,7.78-3.12,5.08-3.46,10.55-2.34,16.15,1.27,6.35.47,12.57-.61,18.81-.28,1.61-.52,3.23-.78,4.84l-.51-.06c.22-2.16.26-4.34.68-6.46,1.32-6.65.75-13.22-.3-19.84-.7-4.39-.34-8.72,2-12.68a8.85,8.85,0,0,0,.35-8.84c-1.39-3-2.48-6.09-4-9A26,26,0,0,1,266,163.17c.28-4.78-1.66-8.78-4.68-12.29-2.66-3.09-6.36-4.44-10.13-5.47-1.35-.37-1.71-.94-1.62-2.2.17-2.34.24-4.69.37-7.49l-5.45,5.1-.25-.15,1.58-4.1-3.33,1.91L241.29,137l-2.94,1.77-.58-2.41-8.54,5.48-1-2.81L222.31,141l0,0,1.46-1.28-.24-.62A20.57,20.57,0,0,0,213,142.4c-.18-2,.94-3,2.6-3.58,4.19-1.56,8.15-3.47,10.55-7.54l.62-1,.19-.6.31-1.21-.46.4-.46.59Zm-.48,4.75-.58.33.11.23.87-.26.16-.59Zm-105,122.82-8.38,1.72a8.55,8.55,0,0,0,0,1.31c.43,2.87,1.7,3.46,4,1.64a62.29,62.29,0,0,0,4.61-4.42l.11-.44Zm-19.4-62.2-7.12,9.24C95.92,204.72,100.07,199.68,100.78,195.64Zm9.82,67.85-.59-4.27h-3.69C109,259.46,109.18,262,110.6,263.49ZM222.67,75.74a2.9,2.9,0,0,0-.55-.4c-.08,0-.21.07-.32.11.08.12.13.3.24.35S222.34,75.78,222.67,75.74Zm3.78,58.72-.14-.14a1.26,1.26,0,0,0-.13.27s.08.09.13.13Zm4.09.46s-.1-.13-.13-.13a1.27,1.27,0,0,0-.27.12s.1.13.13.12A1.08,1.08,0,0,0,230.54,134.92Z" transform="translate(-10.37 -9.7)"/><path class="cls-3" d="M79,104.52a12.54,12.54,0,0,0,1.29,3.27c2.46,3.17,6.65,2.61,7.61-1.26a29,29,0,0,0,.59-10c-.77-7-2.09-14-3.12-20.94a24.86,24.86,0,0,1-.19-4.42c.08-2.55,1.42-4.24,5.29-6.7a26.34,26.34,0,0,1,1.9,4.73c1,4.95,1.66,9.94,2.51,14.91.37,2.14.88,4.26,1.33,6.39l.91,0a18.18,18.18,0,0,0,.72-4.25c-.4-5.83-1-11.65-1.51-17.47-.2-2.28-.45-4.55-.59-6.83a5.32,5.32,0,0,1,1.92-4.84c1.5-1.22,2.85-2.62,4.47-4.12,1,5.82,1.88,11.39,2.81,17,.51,3,1,6.11,1.59,9.13.15.72.86,1.32,1.31,2a15.13,15.13,0,0,0,1.4-2.24,6.76,6.76,0,0,0,0-2.12c.58.47,1.09.69,1.28,1.07,1.15,2.31,0,6.16-2.16,7.57-1.89,1.22-3.6,1-4.57-1A27.39,27.39,0,0,1,101.71,78c-1.13-5.6-2.07-11.24-3.09-16.86a1.49,1.49,0,0,0-.6-1,10.87,10.87,0,0,0-.28,2.28C98.29,68.67,99,75,99.43,81.25a73.54,73.54,0,0,1-.16,8,2.42,2.42,0,0,1-.47,1.51c-1,1-2.08,2.44-3.36,2.79-1.65.45-2.72-1.19-3.1-2.6C91.28,87,90.45,83,89.55,79.06c-.42-1.83-.73-3.69-1.21-5.5a9.23,9.23,0,0,0-1.06-2l-.61.2c.49,3.42,1,6.83,1.46,10.26.82,6.6,1.7,13.19,2.27,19.81.25,2.81-.25,5.67-2.55,7.79a5.58,5.58,0,0,1-8.52-.46c-2.51-2.9-2.94-7.35-.82-9.84.5-.58,1.58-1.26,2.1-1.08a3.22,3.22,0,0,1,1.64,2c.68,2.52-.83,4.4-3,3.91l-.44-.13Z" transform="translate(-10.37 -9.7)"/><path class="cls-4" d="M200.75,136.84l5.58-4.44.52.42c-.79,1.48-1.53,3-2.37,4.44-1.14,2-1.52,4-.23,6v.81c-3.3-.31-5.84-2.12-8.57-4.08L194,139.5c-7.5,7.89-17.71,8-27.92,7.73a47.59,47.59,0,0,1-11.69-1.88c-8.25-2.39-13.1-8-14.44-16.6a43,43,0,0,1,1-17.3c-.12,2.24-.4,4.49-.32,6.73.13,3.81.06,7.71.82,11.41,1.69,8.26,7.29,12.93,15.28,14.75a55.27,55.27,0,0,0,26.18-.35c8.81-2.25,13.36-8,13.11-17.11-.15-5.55-1.14-11.08-1.66-16.63-.35-3.76-.55-7.54-.81-11.31l.57,0,.2,2.66c1.93-.29,3.8-.65,5.69-.85,3.73-.41,5.36.42,6.9,3.82,1.93,4.26,2.79,8.61-.19,12.82-1.81,2.54-3.69,3.07-6.16,1.73,4.31-1.52,5.1-5,5.34-9.38-2.67,3.65-6.16,3.93-10,3.64,1.06,6.71,2.37,13.31.85,20.31l7.64-4.82-4.08,7.73-.11.85.2,0Z" transform="translate(-10.37 -9.7)"/><path class="cls-3" d="M159.49,347.47a17.49,17.49,0,0,0-10.1-1.94c-4.9.74-6.82,3.76-5.58,8.85a9.35,9.35,0,0,1-2.41-1.49,7.49,7.49,0,0,1-.83-8.14,6.64,6.64,0,0,1,7.18-3,86.87,86.87,0,0,1,10.44,3.55c1.74.69,2.95,1,4.62-.45,3.11-2.62,6.91-2.7,10.72-1.71,3.29.85,5.14,3.16,4.92,6a6.47,6.47,0,0,1-6,5.61,9.8,9.8,0,0,1-2.6-.15c-4-.72-4.9-3-2.49-6.16-2.46-.56-2.8-.46-3.18,2a16.56,16.56,0,0,0,.06,5c1.19,7.65-2.57,13.71-9.62,15a14,14,0,0,1-11.08-2.58,6.43,6.43,0,0,1-1.64-9.1c2.08-3.28,6-5,9.33-4.1,2,.58,2.56,2,1.08,3.55a6,6,0,0,1-2.71,1.56c-2.12.52-2.93-.19-3.13-2.45a4.9,4.9,0,0,0-3.61,4.34,5.14,5.14,0,0,0,2.58,5.29c5.74,3.66,12.73-.06,13.52-7.25.17-1.59-.1-3.22,0-4.83C159.07,352.53,159.3,350.17,159.49,347.47Zm13.06-1.39.44.56a6.89,6.89,0,0,1-1.43.81c-2.14.62-3.87,2.43-3.56,3.81s2.92,2.14,5.14,1.43c2.78-.88,4.17-3.76,2.91-6-1.78-3.17-7.49-3.25-9.6,0Z" transform="translate(-10.37 -9.7)"/><path class="cls-5" d="M201.66,28.62c-3.63.85-6.87,2.35-9,5.61-1.39,2.14-1.31,3.72.19,5.43-1.53,1.66-4.51.81-5.59-1.63a5.23,5.23,0,0,1,.9-5.48c2.84-3.82,7-5.27,11.44-6.07a2.61,2.61,0,0,1,.4,0c3-.06,6-.25,8.67-1.93a10.67,10.67,0,0,1,3.29-.77c.33,1.25.31,1.21-1,1.76-.85.34-1.64.84-2.66,1.37,4.84,3.12,5.65,7.6,5,12.6a21.47,21.47,0,0,1-5.4,11.92c-4.87,5.29-11.19,5.23-16.06,0-.23-.25-.39-.55-.3-.42a55.84,55.84,0,0,1-6.65,1,3.65,3.65,0,0,1-4-3.25c0-1.7,1.32-3.21,3.63-3.32,1.84-.08,3.71.53,5.76.86L202,29l.35-.31ZM207,28,193.53,49.37c3,2.94,7,3.39,10.51.45,5.1-4.25,7.67-9.8,7.06-16.54A5.53,5.53,0,0,0,207,28Z" transform="translate(-10.37 -9.7)"/><path class="cls-6" d="M124.74,326.43c-.33.55-.54,1.29-1,1.61A7.69,7.69,0,0,1,113,326.17a29.37,29.37,0,0,1-3.16-5.82c-.66-1.61-1.55-2-3.07-1.5-1,.33-2.09.52-3.1.88-2.63,1-5.25,2-8,3a11.12,11.12,0,0,0,7.92,5.78c-.78.71-1.19,1.39-1.75,1.55a6.84,6.84,0,0,1-8.19-3.86c-.34-.72-.63-1.47-.83-1.93-3.92.87-7.68,1.93-11.5,2.5a10.2,10.2,0,0,1-9.69-3.29c-2.37-2.7-2.21-5.79.44-8.19,3-2.73,8-3.27,10.8-1,.61.49,1.37,1.5,1.23,2.06a3.14,3.14,0,0,1-1.88,1.78,5.1,5.1,0,0,1-2.91,0c-1.46-.43-2.38-1.36-1.27-3-.16-.06-.29-.17-.4-.15-3.56.56-6.09,3-5.68,5.42s3.26,4,6.92,3.1c4.34-1.05,8.57-2.58,13.2-4L89.9,313.7c1.23-.62,1.23-.62,3.87,4.74,4.63-1.36,9.23-3.3,14.23-1.48l.46-.4a83.52,83.52,0,0,0-4.76-7.45,5.39,5.39,0,0,0-6.41-1.5c-2,1-2.26,2.69-.77,4.22.34-.56.59-1.53,1.08-1.67a11.92,11.92,0,0,1,4-.4c.35,0,1,1.51.86,1.71a7.52,7.52,0,0,1-2.89,2.41A4,4,0,1,1,97.6,306a7.3,7.3,0,0,1,7.85,2.9c1.59,2.06,2.77,4.45,4.32,6.55a93.47,93.47,0,0,0,6.62,8.31,7.62,7.62,0,0,0,7.79,2.19Z" transform="translate(-10.37 -9.7)"/><path class="cls-6" d="M270.39,333.72l-1.87,1.62c.58,2.7,2.34,4.48,4.33,6.15,5.89,4.95,6.64,12.27,1.81,17.81a13.88,13.88,0,0,1-10.09,4.82c-5.5.27-8.82-6-5.92-11.3a11.92,11.92,0,0,1,3.91-3.86c1.39-.93,2.73-.07,2.75,1.63a6.49,6.49,0,0,1-.78,3.22c-1.13,1.94-2.52,2-4.22.39a5.12,5.12,0,0,0,0,5.52,5,5,0,0,0,5.11,2.51,8.4,8.4,0,0,0,7.28-11.4c-.75-2.07-2.31-3.88-3.65-5.69-1.64-2.22-3.44-4.33-5.43-6.82-3.62,1-7.59,2.62-10,6.68-1.92,3.26-.86,6.36,2.71,8.47a8,8,0,0,1-2.6.66,7.25,7.25,0,0,1-6-5.27,5.82,5.82,0,0,1,2.64-6.66,53.16,53.16,0,0,1,7.39-3.53,20.54,20.54,0,0,1,3.44-1.1c1.93-.47,3.07-1.18,3.53-3.54.87-4.54,4.23-7.21,8.51-8.58A5.11,5.11,0,0,1,279,326.9a5.22,5.22,0,0,1,.88,6,10.87,10.87,0,0,1-3.13,3.78C273.27,339.24,270.87,338.11,270.39,333.72Zm2.8-4.78.53,0a7.11,7.11,0,0,1-.62,1.57c-1.29,1.86-1.41,4.53-.17,5.35s3.58-.4,4.68-2.23a6.51,6.51,0,0,0,.8-2,4,4,0,0,0-3.9-4.77c-3.12,0-6,3-5.93,6.66Z" transform="translate(-10.37 -9.7)"/><path class="cls-6" d="M302.67,67c-2.67-.9-2.81-.92-3.91,1.58a16.34,16.34,0,0,0-1.13,4.25c-.79,5.51-4.43,9.65-9.4,10.53s-11.26-2-13.65-6.34a6.1,6.1,0,0,1,1-7.43c2.77-2.89,7.23-3.62,10.34-1.71,1.79,1.1,1.88,2.81,0,3.7a7,7,0,0,1-3.67.48c-1.69-.2-2-1.48-1.33-3.1a5.07,5.07,0,0,0-4.74,3.15,5,5,0,0,0,.76,5.3,8.13,8.13,0,0,0,13.05-.1c1.29-1.71,1.94-3.92,2.76-6,1-2.38,1.78-4.82,2.82-7.65A16.16,16.16,0,0,0,286,58.89c-3.95-.44-6.56,2.16-6.65,6.53-.61-.57-1.51-1-1.79-1.72a6.76,6.76,0,0,1,1.06-7.37,5.65,5.65,0,0,1,6.64-1.51A22.55,22.55,0,0,1,290,57.4a31.46,31.46,0,0,1,4.16,3.5c1.7,1.67,3.2,2.53,5.89,1.57,4.06-1.46,7.82.18,11,2.92a4.77,4.77,0,0,1,1.49,5.49,5.23,5.23,0,0,1-4.69,3.6,9.37,9.37,0,0,1-4.1-.63C299.67,72.2,299.32,69.69,302.67,67Zm5.52.11-.3.61c-.38,0-.77-.08-1.15-.1-2.34-.13-4.45,1.06-4.49,2.52s2.46,2.87,4.62,2.73c3.29-.21,5.18-3.4,3.59-6-1.43-2.33-5.69-3.65-8.15-1.68C304,66.43,306.55,65.69,308.19,67.14Z" transform="translate(-10.37 -9.7)"/><path class="cls-7" d="M95.45,231.76c2.06,1,4,2.57,7.06,1.22l-2.41-5,.36-.38.11-.42,1.67,1.51.45.79.24-.06-.27-1.19c-2.42-4.46-4.51-9-4.13-14.29a16.18,16.18,0,0,1,1.37-5.3c-1.68,8.73,2.2,15.6,6.93,22.52.31-2.09.28-4,.92-5.65a38.56,38.56,0,0,1,3.94-7.86c2.59-3.77,5.64-7.25,4.87-12.3l2.11-.39c4,5.85,3.74,9.58-1.13,14.68-2.15,2.26-4.14,4.59-5,7.65a8.86,8.86,0,0,0-.13,1.91c.7,0,1.55.33,2.08,0,2.51-1.36,5-2.85,7.39-4.35a11.11,11.11,0,0,0,1.54-1.42c-.29,5.67-5.62,11.38-10.66,11.39a21.18,21.18,0,0,1-4.23-.81c-.29,1-.3,2.59-1.1,3.22a8.47,8.47,0,0,1-4.25,1.39,10.21,10.21,0,0,1-8-2.55c-.47-.41-.87-.89-1.3-1.33l.41-.56a16.12,16.12,0,0,1,1.44.87,10.44,10.44,0,0,0,9.16,1.76c1.55-.38,2.19-1.27,1.36-2.8-.67-1.23-1.41-2.43-2.12-3.64l-.51-.62-.3.63c.09,1.36.75,3.44.15,3.91a5.43,5.43,0,0,1-4.29.68c-1.57-.45-2.88-1.8-4.3-2.76Zm19.7-13.12c3.93-1.24,6.41-7.12,4-10.27C118.7,213.17,118.7,213.17,115.15,218.65Zm-5,13.87c3.25,1.89,8.23.26,9.13-3C116.46,231.27,113.93,233.73,110.2,232.52Zm-2.94-.88c0-.05-.06-.12-.1-.14s-.1,0-.15.08l.18.23Z" transform="translate(-10.37 -9.7)"/><path class="cls-8" d="M203.9,283.92c-6,.1-13-4.76-19-11.51a2.07,2.07,0,0,1,.25-3.33c4-3.07,7.91-6.2,12.07-9,2.24-1.52,4.91-1.41,7.57-.6a5.62,5.62,0,0,0,3.62-.13,8.75,8.75,0,0,1,9.33.82c3.93,2.91,7.71,6,11.52,9.11a1.93,1.93,0,0,1,.23,3C223.56,278.84,216.83,283.92,203.9,283.92Zm24.24-13.16c-1-.91-1.88-1.76-2.82-2.5a101.08,101.08,0,0,0-8.64-6.59c-1.52-1-3.62-1.12-5.48-1.3-.69-.07-1.44,1.17-2.23,1.28-2.2.3-4.44.77-6.65-.15a2.73,2.73,0,0,0-1.55-.16c-6,1.39-10.48,5.27-14.78,9.39C198.2,286.09,216.61,285.86,228.15,270.76Z" transform="translate(-10.37 -9.7)"/><path class="cls-2" d="M75,181.2l11.93,2.29,1.06.2.08-.3-.79-.37c-4.24-2-8.56-3.69-13.38-3.61a18.45,18.45,0,0,1,10.76.89c5,1.73,9.94,3.76,15.35,3.91a18.86,18.86,0,0,0,5.28-.45,47.7,47.7,0,0,1-5.57-.73c-4-1-7.91-2-11.8-3.28s-7.8-2.88-12.11-2.14l0-.72c1.63-.13,3.34-.64,4.88-.32,4.25.89,8.43,2.16,12.65,3.21,7.2,1.78,14.44,3.24,21.92,2.21a23.47,23.47,0,0,0,3.63-1.1l.26.34c-1.11.74-2.27,1.42-3.31,2.24a22.55,22.55,0,0,0-2.1,2.12l-1.13,1.23h0l-3.78,1.53c-7.47,1.61-14.46-.31-21.4-2.85-4.07-1.49-8.26-2.67-12.4-4Q75,181.36,75,181.2Zm19.6,4.45c6.64,2.18,14.73,2.64,18.59-1.25C107.11,186.34,100.88,186.35,94.62,185.65ZM89,183.92v-.27l-.65.05a.51.51,0,0,0,0,.14Zm3.26,1.54a.52.52,0,0,0,.17.05s0-.09.05-.14a.51.51,0,0,0-.17-.05S92.3,185.42,92.28,185.46Z" transform="translate(-10.37 -9.7)"/><path class="cls-9" d="M142.48,171.59a4.65,4.65,0,0,1-.08,1.14c-2,6.15-1.91,12.43-1.22,18.76a61.05,61.05,0,0,1-.25,18.09c-1.64,8.62-.41,16.93,2.15,25.22,3.86,12.5,7.46,25.08,11.15,37.63a4,4,0,0,1,.06,2.43c-1.05-3-2.21-5.94-3.14-9q-6.08-19.7-12-39.45c-1.38-4.61-1-9.39-.21-14,1.44-8.17,1.19-16.33.68-24.54a36.69,36.69,0,0,1,2.09-15.47c.11-.29.26-.58.39-.86Z" transform="translate(-10.37 -9.7)"/><path class="cls-10" d="M269.41,240.42l-2.52,15a5.21,5.21,0,0,0,5.33-1.88,51.36,51.36,0,0,0,5.12-7.85,72.73,72.73,0,0,0,3.66-8.48c1-2.57,1.72-5.23,2.76-8.42,0,2.05.43,3.78-.08,5.16-2,5.46-4.17,10.88-6.63,16.14a11.47,11.47,0,0,1-4.18,4.51c-1.69,1.07-3.9,1.32-6.21,2-1.28,4.85-2.64,10.37-4.21,15.84a89.19,89.19,0,0,1-6.72,16.09c-1.89,3.68-2.54,8.22-2.84,12.43-.45,6.28-.12,12.61-.12,18.93l-.76,0c-.22-1.91-.53-3.81-.66-5.72-.52-7.61-.6-15.21,1.38-22.64.59-2.22,2-4.22,2.78-6.39,2.5-6.64,5.26-13.22,7.24-20,2.44-8.37,4.2-16.93,6.25-25.41Z" transform="translate(-10.37 -9.7)"/><path class="cls-11" d="M163,288.85a17.73,17.73,0,0,1,1.64,1.41c7.88,8.6,16.66,16,27.49,20.67,7.26,3.11,14.78,4.94,22.76,3.54a33.56,33.56,0,0,0,14.26-6.28c5.66-4.2,11-8.78,16.54-13.2a5.45,5.45,0,0,1,1.74-1.06c-6.46,6.73-13.06,13.35-21.26,17.94A43.57,43.57,0,0,1,215.57,316c-7,1.75-13.91.36-20.55-2.05-13.36-4.85-23.51-13.93-32.31-24.73Z" transform="translate(-10.37 -9.7)"/><path class="cls-12" d="M149.4,195.06c4.09-4.27,8.16-8.55,12.29-12.77a2.24,2.24,0,0,1,1.87-.55c8,2.67,16,5.42,24,8.17.16.05.29.19.38.7-2.42-.19-4.84-.3-7.25-.59-4.53-.56-9-1.31-13.58-1.82a7.52,7.52,0,0,0-3.8.53c-4,1.84-7.95,3.9-11.91,5.87-.58.29-1.17.55-1.76.83Z" transform="translate(-10.37 -9.7)"/><path class="cls-7" d="M275.07,139.21l3.17-1.41c-4,4.4-8.58,7.78-14.6,8.74l3.92-3.22-.4-.67-3.9,1.44-.4-.11c.22-2.6,2.5-3.62,4-5.23l.75-.55,2.56-1.94-.33-.5-2.78,1.87-1,.7-4.89,2.55-.17-.27,5.1-5.49,0,0,.79-1.23h0l.44,0,0-.44,0,0,.45,0,0-.45,0,0,1.06-.41.58-.58.41-1.06,0,0,.45-.45,0,0,.45-.44,0,0,.44-.53.4-.37.37-.33q0-.17,0-.33l.43-.48,0,0,.69-.83a10.34,10.34,0,0,0,1.52-7.22c1.26,1.07,1.84,9,1,12.81l.05.5.42-.26c.25.53.83,1.19.68,1.57a31.93,31.93,0,0,1-1.88,3.59l-1.07.9-.8.8-.49.45.12.19.65-.36,1-.52Zm-.79-3.57c.48-.6,2-.78,1-2.39l-1.38,2.09-.29.34-3.25,2.84-.56.45.16.23.72-.34,3.25-2.82Zm-6.3,6.94a2.61,2.61,0,0,0-.56-.14s-.11.2-.16.31a1.78,1.78,0,0,0,.48.14C267.81,142.9,267.88,142.73,268,142.59Zm-4.54.23s-.12.09-.12.12a1.2,1.2,0,0,0,.11.26s.12-.09.12-.12A1,1,0,0,0,263.44,142.81Z" transform="translate(-10.37 -9.7)"/><path class="cls-13" d="M119.86,168.17l-.08-.53a7.31,7.31,0,0,0-1.28-1c-5-2.27-10.16-4.22-15-6.84s-8-7-8.16-12.83a28.2,28.2,0,0,1,3.43-14.9,5.55,5.55,0,0,1,1.55-1.74A53.56,53.56,0,0,0,98,136.59a44.5,44.5,0,0,0-1.27,7.92,13.8,13.8,0,0,0,6.65,13.18,64.89,64.89,0,0,0,26.56,9.91c6.57.88,12.23-2,16.89-6.55,2.39-2.34,4.45-5,6.4-7.24-2.36,6.83-12.27,16.63-23.59,15.49-2.26-.23-4.46-.92-6.71-1.26A16,16,0,0,0,119.86,168.17Z" transform="translate(-10.37 -9.7)"/><path class="cls-14" d="M271.75,128.73q0,.17,0,.33l-.37.33-.4.37-.44.53,0,0-.45.44,0,0-.45.45,0,0-.41,1.06-.58.58-1.06.41,0,0-.43.43,0,0-.41.42h0l-1.27.77-.43.41-2.07,1.35-.66-.1.92-1.82L260.13,136l-.66-.11a3.29,3.29,0,0,1,.1-.35l1.69-1.31-.32-.46-1.73,1-3.89-1.15,1.57-1.14-1.27-.49,1-.41a10.18,10.18,0,0,0,1.75-1.17c.14-.14-.21-.77-.33-1.18l2.6-3c1.16.19,1.55-.3,1.46-1.82l1.16-1.21,2.21-5.92.57-.86V117l.29.12.91-2,.4.09-1.4,7.6.34.1,3.81-5.86-.07.13.18,0q-2.66,6-5.31,12a9.52,9.52,0,0,0-.34,1.13l0,0-.57.61-.37.63-1.38,1.15.5.45,1-1.42.51-.53.41-.4.38-.42c1.59-2.64,3.19-5.28,4.75-7.94.5-.85.93-1.75,1.38-2.63h.58L269.65,128l2.4-2,.14,1.46-.05.83,0,0-.56,0Zm-2.65.16c-.11,0-.24-.12-.31-.09s-.11.19-.16.29.22.12.28.08S269,129,269.09,128.89Z" transform="translate(-10.37 -9.7)"/><path class="cls-12" d="M227.11,190.21c8-2.74,16.08-5.46,24.1-8.26a2.51,2.51,0,0,1,3.15.7c3.87,4.19,7.84,8.29,11.65,12.66a9.19,9.19,0,0,1-1.09-.44c-4.39-2.45-8.76-5-13.18-7.34a4.43,4.43,0,0,0-2.61-.41c-6.7,1-13.38,2.2-20.07,3.3a19.14,19.14,0,0,1-2,.13Z" transform="translate(-10.37 -9.7)"/><path class="cls-7" d="M258,126.22l-4.64,2.18,0,0v-1l-2.25.61-.87-.2-2.33,1.33-.4,0-.89-.83c3.32-3.65,6.74-7.24,8.76-11.86,1.71-3.89,2.57-7.86,1.13-12.05,0-.11.17-.3.27-.46l.43.08,1.75,7.77,1.83-3.38v6.67l.28.07.93-1.84c0,1.9,0,3.19,0,4.48h0l-1.13,2.44-.08,1.43L260,122l-.42.95-.24.75.09.14h.17L258,126.22Zm-4.73-2.32c3.34-2.19,4.58-5.51,5.39-9.24l-5.83,8.92-.32.55Zm6.68-12.8-.11-.14s-.11.09-.11.13.07.09.1.14Z" transform="translate(-10.37 -9.7)"/><path class="cls-15" d="M304,87.47a6.51,6.51,0,0,0,1.48-.2c1.51-.57,3-1.18,4.47-1.83a2.69,2.69,0,0,0,1-.84,8.42,8.42,0,0,0,.7-1.45,11.54,11.54,0,0,1,2.31,2,2,2,0,0,1-.5,1.88,33.29,33.29,0,0,1-4.12,2.06c-1,.47-2,.92-3.18,1.44.9,1.38,1.84,1.59,3.05,1.08a48.87,48.87,0,0,0,5.57-2.33c2.16-1.24,3.44-.5,4.65,1.62-4.42,1.77-8.75,3.72-13.24,5.18a9.68,9.68,0,0,1-5.3-.33c-1.42-.41-2.89-1.4-2.7-3.33s1.72-2.54,3.24-2.85a2.63,2.63,0,0,0,2.3-2A.24.24,0,0,1,304,87.47Zm1.9,5.86a14,14,0,0,0-2.73-2,4.52,4.52,0,0,0-2.64-.08c-.42.11-.64,1-1,1.51.7.4,1.39,1.11,2.1,1.14A25,25,0,0,0,305.91,93.33Z" transform="translate(-10.37 -9.7)"/><path class="cls-6" d="M218.36,48.11c1.52.94,2.4.28,3.09-.84,1.46-2.4,2.88-4.83,4.34-7.3l3.38.39c-.53.93-1,1.7-1.41,2.46-1.69,2.9-3.32,5.83-5.1,8.67-1.52,2.42-3.56,4.31-6.64,4.19a3.82,3.82,0,0,1-2.83-1.26,4,4,0,0,1,.24-3.15c1.53-3.21,3.29-6.31,4.91-9.47.2-.4.3-1.2.07-1.4-1.31-1.19-.18-1.54.61-1.52a4.06,4.06,0,0,1,2.72.85c.42.46.24,1.81-.11,2.55C220.69,44.24,219.51,46.1,218.36,48.11Zm1.29,2.66c-1.56-.07-2.62-.38-3.5-.09a4.54,4.54,0,0,0-2,1.8,2,2,0,0,0,.23,1.54,3.82,3.82,0,0,0,2.35-.24A23.3,23.3,0,0,0,219.65,50.77Z" transform="translate(-10.37 -9.7)"/><path class="cls-4" d="M226.13,106.36c.5-6.62-2.19-11.93-6.66-16.26-5-4.82-11-4-17.33-2,5.38-5.66,13.14-6.17,19.38-1.7C228,91.08,229,100,226.13,106.36Z" transform="translate(-10.37 -9.7)"/><path class="cls-6" d="M321.59,313.38l.9-3.23.51-.69a4,4,0,0,1,.3,1.28c-.19,1.68-.1,3.53-.79,5-1,2.17-3.16,2-4.31-.11-.77-1.41-1.34-2.92-2-4.38-.27-.59-.56-1.18-.87-1.84-1.37.59-1.74,1.47-1.27,2.62.76,1.86,1.56,3.71,2.49,5.48.27.5,1.08.71,1.83.9,1,1.6-.31,2.4-1.47,3.11s-2.09-.14-2.6-1.11c-1-1.89-1.76-3.91-2.77-5.79a4.82,4.82,0,0,0-2.08-1.73c-.66-1.86.55-3.1,2.85-3.09a16.67,16.67,0,0,1,1.28-3c1.29-1.9,3.17-1.79,4.27.26.91,1.71,1.63,3.52,2.45,5.28a8.4,8.4,0,0,0,.62,1Z" transform="translate(-10.37 -9.7)"/><path class="cls-6" d="M117.61,334.57l-8.39,5.68.05.75,3.66.47c-1.17,1.63-2.85,1.53-4.44,1.32-1.84-.24-3.37-1-3.25-3.08a19.69,19.69,0,0,1-3.1-.64c-2.38-.92-2.7-2.88-.68-4.44,1.64-1.27,3.44-2.33,5.14-3.53.58-.41,1.64-.72.77-1.84a2.83,2.83,0,0,1,.77-.94,7.61,7.61,0,0,1,2.7,1.83c.3.44-.17,1.86-.73,2.36a45.66,45.66,0,0,1-4.41,3.16c-.58.41-1.13.85-1.84,1.37a2.41,2.41,0,0,0,3.41.45c1.63-1.07,3.24-2.16,4.86-3.24C114.79,332.49,114.79,332.49,117.61,334.57Z" transform="translate(-10.37 -9.7)"/><path class="cls-7" d="M162.76,207.19a8.92,8.92,0,0,0,1.31-.11c.8-.18,1.58-.43,2.36-.67.1,0,.17-.2.26-.22l7.65-1.15-.18-1.23.3-.15,1.17,1.65.36-2.88c.55,1.29-.11,3.42,2.4,1.91.81-.49,2.6.43,3.86.91,1.9.72,3.72,1.62,5.58,2.44l-.21.49c-1.51-.4-3-.92-4.55-1.18s-3.19-.3-4.56-.42a18.26,18.26,0,0,1-.53,3.52c-.16.47-1,.86-1.63,1-1.8.34-2.77-.89-2.93-3.94-2.63,1.11-5.2,2-7.62,3.26-5.2,2.64-7.19,2.45-11.57-1.6,2.86-.75,6.14.93,8.56-1.61Z" transform="translate(-10.37 -9.7)"/><path class="cls-4" d="M251,207.19c.81,1.36,2.21,1.35,3.52,1.42,1.52.08,3.06,0,4.65,0-1.62,3.29-5.87,4.35-9.56,2.58-2.94-1.42-5.94-2.72-8.76-4a16.89,16.89,0,0,1-1.57,3.41,2.54,2.54,0,0,1-2,.43c-1.7-.27-2.18-1.74-1.38-4.74l-10,1.74-.16-.29a52,52,0,0,1,7-2.67c1.69-.39,2.94-.65,3-2.66l.14,2.42,3.56-.39c0-.08.13.59.32.6,3,.09,5.69,1.57,8.57,2.16a12.68,12.68,0,0,0,2.69,0Z" transform="translate(-10.37 -9.7)"/><path class="cls-15" d="M289.66,341.55c-.86,1.78-1.73,3.62-4.12,3.53-1.63-.07-2.88-2-3.37-4.73-.63-3.57-.3-6.9,2.85-9.23a44.88,44.88,0,0,1,5.07-2.83L292,338l.67.28,1.87-3.11c1.24,1.21.4,2.59-.13,3.82C293.45,341.23,292,341.91,289.66,341.55Zm-2.33-10.2c-.88.94-1.65,1.4-1.85,2a11.52,11.52,0,0,0,.61,8.19c.4.95,1.26,1.14,1.86.23a4.2,4.2,0,0,0,.85-2.49C288.49,336.87,287.92,334.47,287.33,331.35Z" transform="translate(-10.37 -9.7)"/><path class="cls-10" d="M177.7,91.55a59.88,59.88,0,0,0-2,6.65c-.52,2.94.48,5.69,1.68,8.37,1.76,3.93,3.26,7.94,3.17,12.37-.1,5.05-2.67,8.69-7.58,9.83-4.39,1-8.9,1.62-13.21-.46a10.31,10.31,0,0,1-5.68-6.19,6.31,6.31,0,0,1,.85.76c2.68,3.44,6,5.49,10.56,5.14a53.89,53.89,0,0,0,5.6-.57c5.65-1,8.64-5.15,7.56-10.81a57.93,57.93,0,0,0-2.86-9.62c-1.84-4.86-2.15-9.53.75-14.08C176.78,92.58,177.11,92.25,177.7,91.55Z" transform="translate(-10.37 -9.7)"/><path class="cls-3" d="M253.06,56.81c1.54-1.58,3.14-3.11,4.59-4.78a10.4,10.4,0,0,0,1.06-2.76c1.28-.64,2.58-.08,3.56,2.18.43-.08.95-.36,1.31-.22,1.19.44,2.64.78,3.35,1.67.36.45-.46,2.17-1.13,3a54.14,54.14,0,0,1-4.12,4.22l.34.71,3.61-.36a4,4,0,0,1-4.05,2c-1.2-.16-2.78-.7-3.3-1.59-.36-.62.57-2.29,1.29-3.19a44.25,44.25,0,0,1,4-3.88l-.39-.84a7.32,7.32,0,0,0-2.62.73,39.55,39.55,0,0,0-3.91,3.77c-.3.31-.7,1-.57,1.16.57.94.67,1.89-.64,1.6-1-.23-1.95-1.28-2.78-2.11-.16-.16.3-1,.47-1.45Z" transform="translate(-10.37 -9.7)"/><path class="cls-15" d="M138.88,58c.07-1.49,0-3,.25-4.48.61-4.28,2.06-5.75,6.26-6.87a23.4,23.4,0,0,0,3.45-1.54V55l.51.26,2.52-2.83A4.83,4.83,0,0,1,150.19,57c-1.23,1.17-2.61,2-4.32.6-.34.4-.67.83-1,1.22-2.05,2.24-3.88,2.06-5.47-.5-.1-.16-.35-.23-.53-.35Zm6.64-9.83a2.32,2.32,0,0,0-2.58,2,35.47,35.47,0,0,0-.75,5.74c0,.62.55,1.27.85,1.9a10.65,10.65,0,0,0,1.94-1.2,2.21,2.21,0,0,0,.52-1.44C145.56,52.91,145.53,50.63,145.53,48.14Z" transform="translate(-10.37 -9.7)"/><path class="cls-6" d="M119,58.46,120.71,68l.63.19,1.84-3c1.06,1.18.36,2.48-.15,3.64-1,2.19-2.37,2.84-4.64,2.36-.87,1.68-1.72,3.67-4,3.3s-2.86-2.57-3.2-4.6c-.56-3.45-.14-6.65,3-8.82A46,46,0,0,1,119,58.46ZM116.39,62l-.83-.34c-.5.89-1.34,1.76-1.41,2.69a22.61,22.61,0,0,0,.31,5.54c.13.74,1,1.36,1.53,2,.58-.84,1.71-1.71,1.65-2.5A69.65,69.65,0,0,0,116.39,62Z" transform="translate(-10.37 -9.7)"/><path class="cls-6" d="M195.43,358.15c.68-1.92,2.29-1.45,3.53-1.08,1.48.44,1.4,1.77,1,3-.66,1.89-1.42,3.76-2,5.69-.14.5.39,1.18.61,1.78.44-.46,1.06-.84,1.29-1.39,1.17-2.77,2.06-5.68,3.46-8.32.42-.79,2.19-.87,3.34-1.27l.59.65a97.3,97.3,0,0,1-5.35,9.87c-.87,1.27-3,2-4.62,2.36-2.49.53-3.76-1.13-3-3.67.54-1.86,1.41-3.62,2-5.47a5.13,5.13,0,0,0-.28-2Z" transform="translate(-10.37 -9.7)"/><path class="cls-3" d="M310.69,323.46c-.4,2.44-1,4.5-2.84,6.06a3.07,3.07,0,0,1-4.35,0c-3-2.6-3.59-8.86-1.12-12,2-2.53,4.54-2.56,6.17.22A34,34,0,0,1,310.69,323.46Zm-3.54,4.7c1.45-2.91-.69-9.35-3.26-10.1C302.79,321,304.53,326.53,307.15,328.17Z" transform="translate(-10.37 -9.7)"/><path class="cls-15" d="M224.66,357.13c0-1-.79-.87-1.69-.23-1.58,1.13-3.21,5.64-2.72,7.5a2.24,2.24,0,0,0,3.3,1.58,34.7,34.7,0,0,0,4.53-2.9,7.34,7.34,0,0,1-.54,1.86c-1.32,2.12-5.41,4-7.79,3.17a5.05,5.05,0,0,1-2.86-2.67c-1.37-3.95,2.31-9.61,6.45-10.34,1.93-.34,3.43.63,3.16,2.52a15.13,15.13,0,0,1-2.06,4.8c-.18.32-1.29.4-1.77.18a1.63,1.63,0,0,1-.53-1.53C222.86,359.69,223.8,358.43,224.66,357.13Z" transform="translate(-10.37 -9.7)"/><path class="cls-15" d="M232.64,361.61c.76.7,1.45,1.88,2.29,2,2.61.35,4.11-1.51,5.76-4a6.72,6.72,0,0,1,.07,1.92c-1,2.74-5.56,5.19-8.34,4.24a4.72,4.72,0,0,1-2.57-2.5c-1.43-3.86,1.58-9.4,5.52-10.6,2.24-.68,3.73.42,3.74,2.75a5.24,5.24,0,0,1-3.9,5c-.7.2-1.42.34-2.13.51Zm3.35-8c-2.09,1.67-2.31,3.72-2.79,5.78C235.76,359.1,236.62,357.4,236,353.66Z" transform="translate(-10.37 -9.7)"/><path class="cls-15" d="M174.45,362.65c.47,1.21.59,2.32,1.2,2.94,1.17,1.2,3.34.72,7.05-.87a6.47,6.47,0,0,1-1.17,1.63,8.36,8.36,0,0,1-8,1,3.48,3.48,0,0,1-2.32-3.65c.08-3.94,4.89-8.31,8.85-8.07,2.58.15,3.7,2,2.5,4.33a5.1,5.1,0,0,1-4.86,3C176.8,362.93,175.94,362.8,174.45,362.65Zm5.73-5.48-.56-.49-4.25,4.65C178.3,361.87,180.12,360.07,180.18,357.17Z" transform="translate(-10.37 -9.7)"/><path class="cls-16" d="M318.18,102.88a57.91,57.91,0,0,1,7.14-1.7,5.74,5.74,0,0,1,5.2,2.57c1.19,1.56.83,3.05-.91,4a5.15,5.15,0,0,1-6.09-1.08c-.54-.58-1-1.23-1.86-2.27-.53,1.1-1.24,1.92-1.26,2.75,0,1.65,1.64,2.76,5.9,4.05a10.18,10.18,0,0,1-2.12.55c-2.55,0-6.1-2.72-6.54-5.22-.2-1.17.36-2.46.57-3.7Zm4.88,1.18c1.91,2.46,4.69,2.36,6.36,0Z" transform="translate(-10.37 -9.7)"/><path class="cls-15" d="M300,333.24l1.28-3.27c.22.24.77.61.71.81-.49,1.75-.73,3.73-1.75,5.13-1.35,1.85-3.44,1.18-4.16-1.22-1-3.46-1.88-7-2.88-10.46-.24-.84.11-2.47-1.79-1.86-.06,0-.62-1-.52-1.1a7.62,7.62,0,0,1,2.64-2c.51-.15,1.7.73,2,1.41a35.84,35.84,0,0,1,1.54,5c.69,2.49,1.36,5,2,7.48Z" transform="translate(-10.37 -9.7)"/><path class="cls-15" d="M239.38,50.88a8,8,0,0,1-1.64,1.57,8.11,8.11,0,0,1-7.38.07c-1.8-.83-2.19-2.45-1.83-4.26.71-3.53,5.12-6.75,8.74-6.44,2.73.23,3.72,2.25,2.25,4.54a5.22,5.22,0,0,1-5.43,2.25c-.59-.1-1.16-.26-2.37-.53.27,1.17.23,2.2.71,2.83,1.11,1.44,3.47,1.19,6.46-.45Zm-1.78-7.48-.51-.55L232.55,47C235.46,47.58,237.16,46.13,237.6,43.39Z" transform="translate(-10.37 -9.7)"/><path class="cls-15" d="M124.39,349.72l3.76-.21c-.35.45-.58,1.07-.93,1.14-1.54.31-3.17.84-4.65.59-2.61-.44-3.12-2.57-1.15-4.39,2.32-2.15,4.87-4,7.12-6.26.91-.9,3.42-1.2,2-3.54,0,0,.82-.77,1-.68a7.06,7.06,0,0,1,2.78,1.74c.31.41-.18,1.87-.74,2.4-2.58,2.45-5.32,4.74-8,7.1-.51.46-1,1-1.45,1.47Z" transform="translate(-10.37 -9.7)"/><path class="cls-7" d="M251.56,103.59l1,10.87,2.58-7.67c1.85,4.51-3.66,16.08-9.36,20l-.73-.59,1.33-1.83-.25-.42-5.23,1.73-.27-.41c8.4-3.59,9.94-10.93,10.47-18.8.07-1,0-2,0-3Zm-4.65,19.55-.68.61.32.34.61-.62.24-.34Zm4.54-7.85.09.53-.42,1.51-.91,1,.43.28.51-1.31.79-1.63a.82.82,0,0,0,0-.39l.38-1-.44-.17Zm-2.55,5.38.34.24.36-.88-.26-.12Z" transform="translate(-10.37 -9.7)"/><path class="cls-6" d="M116.71,345.36h3.4s.15.15.12.22c-.76,1.8-2.49,1.8-3.89,1.59a5.63,5.63,0,0,1-3.45-1.89c-.34-.45.58-2.35,1.4-3.06,2.68-2.34,5.59-4.42,8.37-6.64.64-.51,1.93-.86.89-2.15-.06-.08.45-.82.53-.79A9.41,9.41,0,0,1,127,334a2.17,2.17,0,0,1,0,2.08,12.12,12.12,0,0,1-2.49,2.32c-2.66,2.12-5.34,4.2-8,6.3Z" transform="translate(-10.37 -9.7)"/><path class="cls-3" d="M304,87.47a.24.24,0,0,0-.23.1,17.79,17.79,0,0,1-4.44-.22,3.19,3.19,0,0,1-1.8-2.3c-.07-.7.84-1.81,1.6-2.23C302,81.23,305,79.86,308,78.36l-1-1.43c2.56-.39,4.55.56,7,2.18l-1.77.52,1.89,1.75c-1.34.84-1.34.84-3.47-.78l-9.58,4.78,0,.72c.87.19,1.76.35,2.61.61C303.89,86.76,303.92,87.2,304,87.47Z" transform="translate(-10.37 -9.7)"/><path class="cls-15" d="M163.47,51.7c.47.69,1.36.41,2.13-.39A7.47,7.47,0,0,0,167.43,45c-.13-1.09-1-1.26-2-1-.61.16-1.71.23-1.88-.06a4,4,0,0,1-.25-2.26,2,2,0,0,1,.73-1.37,11.63,11.63,0,0,1,2.3-.85c.21.72.46,1.44.6,2.17a2.52,2.52,0,0,1-.2.93c3.4.18,4.58,1.69,4,5a6.93,6.93,0,0,1-5.94,5.75c-1.68.26-3-.53-2.87-2.16a14.9,14.9,0,0,1,1.47-4.63,1.81,1.81,0,0,1,1.68-.55,2.08,2.08,0,0,1,.78,1.79A31.53,31.53,0,0,1,163.47,51.7Z" transform="translate(-10.37 -9.7)"/><path class="cls-15" d="M318.22,102.84a21.69,21.69,0,0,1-4.78-1,3.48,3.48,0,0,1-1.74-2.59c0-.7,1.15-1.76,2-2.1,3.32-1.28,6.74-2.28,10.08-3.51a3.8,3.8,0,0,0,1.63-1.83c1.6-.74,2.23.64,2.74,1.78.58,1.31-.5,2-1.53,2.38-3.15,1.15-6.33,2.21-9.49,3.31-.67.23-1.31.53-2,.8l-.08.65,3.09,1.16c0,.21,0,.58,0,1Z" transform="translate(-10.37 -9.7)"/><path class="cls-11" d="M103,193.32l-.4,0c.53-1-.17-.81-.78-.85-4.61-.24-9.25-.29-13.83-.84a22.81,22.81,0,0,1-12.78-5.71,5.28,5.28,0,0,1,1.41.28c6.1,3.67,12.94,4.13,19.77,4.59,4.45.29,8.86,0,13-2l3.26-2h0l1.87-.94,1.26-.55c-.56.73-.73,1.13-1,1.32-2.92,1.83-5.86,3.62-8.8,5.42H106A2.23,2.23,0,0,0,103,193.32Z" transform="translate(-10.37 -9.7)"/><path class="cls-6" d="M192.74,365.13a3.84,3.84,0,0,1-2.95,3.76,6.5,6.5,0,0,1-3.95-.21c-.41-.16-.49-2.11-.15-3,.74-2.07,1.84-4,2.91-6.26-1.65.06-2.68-.49-2.08-2.29s2.45-3.13,3.61-2.54c1.85,1,.48,2.28.17,3.58l2.38.45-3.86,8C190.55,367.56,191.36,366.27,192.74,365.13Z" transform="translate(-10.37 -9.7)"/><path class="cls-17" d="M111,153.25a32,32,0,0,0,16.26,7.81,24.35,24.35,0,0,0,16.68-2.9,10.61,10.61,0,0,1,1.49-.56c-7.12,8.5-26.16,7.41-34.8-4.11Z" transform="translate(-10.37 -9.7)"/><path class="cls-17" d="M160.29,324.07c-3.29-12.28-4.08-24.82-4.17-37.44l.65-.07L160.86,324Z" transform="translate(-10.37 -9.7)"/><path class="cls-15" d="M124.89,57.89c-1.31.65-2.36,1-2.83-.68s.32-3.92,1.64-4c2.09-.19,1.5,1.73,2,2.86l2.11-.88.78,8.42.62.32,2.35-3.07a7.42,7.42,0,0,1,0,2.33,7.49,7.49,0,0,1-1.7,2.87,3.58,3.58,0,0,1-2.8.87c-.67-.19-1.31-1.46-1.46-2.34C125.19,62.45,125.11,60.3,124.89,57.89Z" transform="translate(-10.37 -9.7)"/><path class="cls-10" d="M133.21,201.61l3.49,5c-1.56.17-2.79-.9-3.69-2.18-1.56-2.22-3.28-3.92-6.27-3.49-.17,0-.37-.15-.43-.68l4.23-.91c-5.26-4.23-4.65-11-7.85-16l.39-.34c.47.44,1.1.79,1.37,1.33a41.83,41.83,0,0,1,2.93,6.37,17.36,17.36,0,0,0,6.32,9.3,11.12,11.12,0,0,1,1,.94,4,4,0,0,1,.36.57l-1.33-.29-.87-.47-.17.22Zm-1.88-2-.06.17.15.05a.51.51,0,0,0,.05-.17S131.38,199.66,131.33,199.65Zm-.78-.29s-.12.08-.12.11a1.14,1.14,0,0,0,.1.25s.12-.08.12-.11A1,1,0,0,0,130.55,199.36Z" transform="translate(-10.37 -9.7)"/><path class="cls-6" d="M211.57,366.57l3.07-2c0,.39.16.92,0,1.16-.69.88-1.37,2-2.31,2.4a15.28,15.28,0,0,1-4.11.48,16.25,16.25,0,0,1-.27-3.72,39.78,39.78,0,0,1,1.33-4.41c.24-.89,1.31-2-.51-2.58-.07,0-.05-.79,0-.82a7.54,7.54,0,0,1,2.92-.71,2.24,2.24,0,0,1,1.38,1.72,21.81,21.81,0,0,1-1,4.27c-.33,1.21-.73,2.4-1.09,3.59Z" transform="translate(-10.37 -9.7)"/><path class="cls-17" d="M114.27,241.83c-1.46,1-2.79,2.4-4.4,2.9a25.41,25.41,0,0,1-13.93.05,13,13,0,0,1-7.28-5.46c-1-1.37-1.81-2.84-2.71-4.27l.4-.33a12,12,0,0,1,1.23,1.33c3.72,5.42,8.77,8.08,15.42,7.82,3.83-.15,7.71.17,11-2.45Z" transform="translate(-10.37 -9.7)"/><path class="cls-3" d="M138.85,57.93a6.45,6.45,0,0,1-2.51,5.2c-2,1.41-3.73.63-3.94-1.8-.16-1.87-.11-3.76-.22-5.64A4.13,4.13,0,0,0,131.7,54a6.3,6.3,0,0,0-1.08-1.18,11.37,11.37,0,0,1,2.69-1.41,2,2,0,0,1,1.55,1.14c.33,1.84.38,3.72.53,5.59a5.83,5.83,0,0,0,.66,2.51c.52-.54,1-1.09,1.57-1.61s.84-.73,1.26-1.1Z" transform="translate(-10.37 -9.7)"/><path class="cls-15" d="M253.06,56.81l0-.07a9,9,0,0,0-1.13.16c-1,.26-1.94.87-2.86.77a4.49,4.49,0,0,1-3-1.37c-.38-.58.25-2.12.83-3,1-1.48,2.41-2.71,3.51-4.14a3,3,0,0,0,.24-2.08c.88-1.61,2.13-.75,3.19-.07s.83,1.91.12,2.8c-1.45,1.83-3,3.58-4.5,5.37l.16.61,3.42-.37Z" transform="translate(-10.37 -9.7)"/><path class="cls-17" d="M142.58,151.29c-.53.66-.92,1.54-1.6,1.93-7,4-13.85,3-20.39-1-2.26-1.37-4.05-3.5-6.06-5.28l.54-.63c.42.35.85.68,1.25,1,5.52,4.84,11.89,7.32,19.26,6.28,2.38-.34,4.65-1.51,7-2.3Z" transform="translate(-10.37 -9.7)"/><path class="cls-17" d="M285.32,178.73l3-.16-1.39,1.3-.83.17.07.38,2-.4H291c-2.6,2.32-10.34,4-13.37,3l2.14-.85-4.88-.48,0-.44c2.25-.44,4.51-.83,6.73-1.37.58-.14,1-.75,1.56-1.15h.1c.68,1.39,1.37.4,2.06,0Z" transform="translate(-10.37 -9.7)"/><path class="cls-9" d="M284.21,194.54c1.09-.09,2.17-.23,3.26-.25s2.12.11,3.18.17h0a14.92,14.92,0,0,0-3.16,1.64,15.87,15.87,0,0,1-11.85,4,4.24,4.24,0,0,1-1.17-.48l5.36-1.58-.05-.33-3-.33,0-.27,7.53-2.58Z" transform="translate(-10.37 -9.7)"/><path class="cls-13" d="M107.73,156.32c-7.59-2.44-10.57-13.36-5.58-21.12-.12,3.61-.61,7.49-.27,11.29C102.23,150.5,104.81,153.59,107.73,156.32Z" transform="translate(-10.37 -9.7)"/><path class="cls-17" d="M260,122l.81-.36.48-.91.73-3h0c1.63-2.16,1.58-4.68,1.49-7.2a6.55,6.55,0,0,0-.23-1.1l.68-.14c.28,1.66.88,3.35.75,5a58.72,58.72,0,0,1-1.39,6.65,14,14,0,0,0-.08,2.26l-1.17,1.21-1.46,1.82-2.6,3-2,1.12-.4-.09c.82-1,1.68-2,2.44-3,.16-.21,0-.68-.07-1h0c1.06-.13,1.51-.81,1.61-2.42h0C260.72,123,260.84,122.48,260,122Z" transform="translate(-10.37 -9.7)"/><path class="cls-9" d="M283.15,158.59c.47,0,.94-.06,1.4-.07a1.26,1.26,0,0,1,.38.11c-2.22,2.71-8.55,4-13.29,2.48l5.35-.94.48-.13-.48-.26-4-.56v-.6l11.17-2.37.3.65L282,158.44l-1,.25.11.45Zm-3.81.87c-.17-.18-.26-.37-.39-.4s-.33.08-.5.13c.11.17.19.39.34.49S279.09,159.57,279.34,159.46Z" transform="translate(-10.37 -9.7)"/><path class="cls-14" d="M273.12,171.21l2.12-.68L274,170l0-.43,13.27-2.59C283.55,171.92,278.54,172.25,273.12,171.21Z" transform="translate(-10.37 -9.7)"/><path class="cls-13" d="M129.73,142.51c-9.3-.06-15.93-8.62-13-17.08C118,133.68,120.5,140.71,129.73,142.51Z" transform="translate(-10.37 -9.7)"/><path class="cls-10" d="M118.67,205l-2.11.39-.41-.72-8.57,5.46-.32-.46c3.65-4.22,9.45-6.53,11-12.56l.61.22-1.67,6.88Z" transform="translate(-10.37 -9.7)"/><path class="cls-14" d="M289.5,160.59A19.26,19.26,0,0,1,277,166.67c-1.67.15-3.37,0-5,0l0-.76a24.93,24.93,0,0,0,4.2-.68c3.67-1.24,7.28-2.67,10.92-4,.79-.29,1.63-.44,2.44-.66Z" transform="translate(-10.37 -9.7)"/><path class="cls-18" d="M162.38,119c7.43.45,9.84-2.23,9.08-9.72,2.23,1.94,2.44,5.83.45,8.43C169.72,120.57,165.75,121.21,162.38,119Z" transform="translate(-10.37 -9.7)"/><path class="cls-13" d="M204.26,144.11v-.81c.12,0,.35,0,.35-.09.74-6.24,5.12-9.59,9.86-12.65l.45.36c-1.86,2.07-3.76,4.12-5.58,6.23s-3.76,4.37-4,7.57Z" transform="translate(-10.37 -9.7)"/><path class="cls-10" d="M122.68,174c3.42,5.26,9.09,6,14.59,7.18C129.06,182.42,123.86,179.81,122.68,174Z" transform="translate(-10.37 -9.7)"/><path class="cls-14" d="M264.52,150.1c2-1.09,3.95-2.29,6-3.26,2.59-1.23,5.26-2.29,7.91-3.38a4.18,4.18,0,0,1,1.27-.1h0c-4.21,4.16-9.4,6.11-15.19,6.7Z" transform="translate(-10.37 -9.7)"/><path class="cls-18" d="M214.47,100.17c-1.43-5.91-6.16-7-11.16-7.93C209.07,89.58,214.91,93.63,214.47,100.17Z" transform="translate(-10.37 -9.7)"/><path class="cls-11" d="M214.78,106.82c2.12,4.36.2,12.51-3,13.22Z" transform="translate(-10.37 -9.7)"/><path class="cls-11" d="M284.21,194.54h.07a10.88,10.88,0,0,0-2-.3c-1.57.06-3.13.23-5,.38,1.77-1.86,10.46-3.95,13.83-3.16-2,.73-4,1.43-6,2.21C284.75,193.81,284.5,194.24,284.21,194.54Z" transform="translate(-10.37 -9.7)"/><path class="cls-18" d="M287.33,172.07c-4.23,1.86-8.46,3.7-13.26,2.52L274,174l13.28-2.62Z" transform="translate(-10.37 -9.7)"/><path class="cls-18" d="M241.06,97.19c2.73.81,3.95,3.07,4.94,5.41a12.17,12.17,0,0,1,0,9.48,21.41,21.41,0,0,0-4.88-14.9Z" transform="translate(-10.37 -9.7)"/><path class="cls-18" d="M243.48,104.41a15.59,15.59,0,0,1-1.29,14.53c-.31-4.88,2.33-9.6.87-14.55Z" transform="translate(-10.37 -9.7)"/><path class="cls-16" d="M154.44,45.78a27.36,27.36,0,0,1-.61-4.83,2.89,2.89,0,0,1,1.55-2.14c.55-.2,1.79.5,2.2,1.14C158.47,41.34,156.21,45.34,154.44,45.78Z" transform="translate(-10.37 -9.7)"/><path class="cls-10" d="M285.32,178.73h-2.18l-6.1.59-.15-.83,13-3.09.27.88c-1.11.43-2.24.8-3.31,1.3A9.43,9.43,0,0,0,285.32,178.73Z" transform="translate(-10.37 -9.7)"/><path class="cls-10" d="M289.84,206.76c-4.15,1.8-8.33,3.58-13,2.78C281,208.07,285.17,206.26,289.84,206.76Z" transform="translate(-10.37 -9.7)"/><path class="cls-9" d="M283.4,152.92c-3.69,3.63-8.12,4.49-13.05,3.58Z" transform="translate(-10.37 -9.7)"/><path class="cls-14" d="M277.44,188.16l13.08-3,.19.82c-4.19,1.74-8.39,3.43-13.12,2.86Z" transform="translate(-10.37 -9.7)"/><path class="cls-14" d="M287.72,201.51c-2.59,3.32-8.74,5.17-12.83,3.92Z" transform="translate(-10.37 -9.7)"/><path class="cls-13" d="M285.82,217.18c-.68,3.24-5.86,6.19-10.53,5.82Z" transform="translate(-10.37 -9.7)"/><path class="cls-17" d="M275.27,213.65c2.23-.77,4.06-1.36,5.86-2s3.56-1.46,5.35-2.2C286.15,212.33,280.23,214.67,275.27,213.65Z" transform="translate(-10.37 -9.7)"/><path class="cls-18" d="M220.35,111.36l-.63-12.71C221.63,100.14,222.14,108.76,220.35,111.36Z" transform="translate(-10.37 -9.7)"/><path class="cls-14" d="M127.72,206.31c4.05.13,6.34,3,8.85,5.61C132.83,211.34,130.52,208.44,127.72,206.31Z" transform="translate(-10.37 -9.7)"/><path class="cls-19" d="M290.67,194.48h0c2.12-.93,1.82-3.16,2.58-4.81h.69c-.61,1.86-1.71,3.72-1.71,5.58s1.19,3.77,1.61,5.71a10.75,10.75,0,0,1-.13,3.74C293.33,201.07,292.95,197.52,290.67,194.48Z" transform="translate(-10.37 -9.7)"/><path class="cls-17" d="M202.78,247a35.6,35.6,0,0,1-4.39,0c-.52-.06-1-.83-1.44-1.28.58-.46,1.26-1.4,1.73-1.31A28.76,28.76,0,0,1,203,246Z" transform="translate(-10.37 -9.7)"/><path class="cls-16" d="M213.71,350.64c.54.72,1.37,1.37,1.55,2.17a1.56,1.56,0,0,1-1.8,2c-.75-.13-1.85-1.07-1.89-1.71s.83-1.62,1.31-2.43Z" transform="translate(-10.37 -9.7)"/><path class="cls-15" d="M135.52,48.19c-.72.49-1.5,1.45-2.13,1.36a2.71,2.71,0,0,1-1.76-1.84c-.09-.48,1-1.63,1.65-1.67s1.47.82,2.21,1.29Z" transform="translate(-10.37 -9.7)"/><path class="cls-16" d="M256.95,42.4c.49.73,1.44,1.52,1.35,2.16a2.68,2.68,0,0,1-1.84,1.73c-.47.08-1.6-1-1.63-1.67s.81-1.47,1.27-2.21Z" transform="translate(-10.37 -9.7)"/><path class="cls-18" d="M218.15,246.19c-2.05,1.49-3.9.57-5.87,0C214.81,243.65,216.28,243.62,218.15,246.19Z" transform="translate(-10.37 -9.7)"/><path class="cls-19" d="M131.59,294.32l-.41-.43c3-4.25,7.61-6.61,10.83-5.4C137.29,288.25,134.43,291.28,131.59,294.32Z" transform="translate(-10.37 -9.7)"/><path class="cls-18" d="M223,132.63l-6.75,2.4-.21-.57,6.7-2.57Z" transform="translate(-10.37 -9.7)"/><path class="cls-19" d="M163.52,136.85l0,.66-4.39-2.29.3-.54Z" transform="translate(-10.37 -9.7)"/><path class="cls-20" d="M287.89,221.62l-2.41,2.61-.49-.43,2.36-2.66Z" transform="translate(-10.37 -9.7)"/><path class="cls-21" d="M290.62,215.38l1.66-4.33.51.2-1.7,4.32Z" transform="translate(-10.37 -9.7)"/><path class="cls-10" d="M245.07,126.2l.73.59-3.22,1.74-.23-.41Z" transform="translate(-10.37 -9.7)"/><path class="cls-22" d="M112.59,186.82l-3.26,2-.52-.44Z" transform="translate(-10.37 -9.7)"/><path class="cls-20" d="M231.37,132.25c-.38-.22-1.21,1.29-1.24-.32l2.11-.9.19.46-.67.4-.44.43Z" transform="translate(-10.37 -9.7)"/><path class="cls-20" d="M259.22,134.77l1.73-1,.32.46-1.69,1.31Z" transform="translate(-10.37 -9.7)"/><path class="cls-20" d="M269.73,237.69v-2.41l.78,0-.41,2.52Z" transform="translate(-10.37 -9.7)"/><path class="cls-9" d="M269.73,237.69l.37.13-.69,2.6-.41-.66Z" transform="translate(-10.37 -9.7)"/><path class="cls-20" d="M255.6,130.28l.4.09.59,1.23-1,.41-1.09-1.31Z" transform="translate(-10.37 -9.7)"/><path class="cls-20" d="M278.72,230.64l-1.19,1.44-.49-.38,1.16-1.46Z" transform="translate(-10.37 -9.7)"/><path class="cls-20" d="M247.51,129.11l.4,0v.63l-1.54,1.15.3-1.45.86-.42Z" transform="translate(-10.37 -9.7)"/><path class="cls-23" d="M208.83,144l-1.26-.55.09-.43a2.3,2.3,0,0,1,.94,0c.21.09.31.45.47.69Z" transform="translate(-10.37 -9.7)"/><path class="cls-23" d="M214,136.17l-1.45,1.09-.29-.27,1.3-1.34Z" transform="translate(-10.37 -9.7)"/><path class="cls-9" d="M99.64,206.86l1.6-.65-.68,1.8-.43-.55Z" transform="translate(-10.37 -9.7)"/><path class="cls-21" d="M152.69,302.66h-3.05v-.15h3.06Z" transform="translate(-10.37 -9.7)"/><path class="cls-20" d="M246.62,128.28l.89.83,0,0-.8,0-.69-.45Z" transform="translate(-10.37 -9.7)"/><path class="cls-14" d="M99.56,227.23l-.36-1.17.56-.23.82,1.39Z" transform="translate(-10.37 -9.7)"/><path class="cls-22" d="M114.45,185.89l-1.87.94,1.13-1.23Z" transform="translate(-10.37 -9.7)"/><path class="cls-23" d="M210.41,142.44l.78-1.06.39.23-.63,1.17Z" transform="translate(-10.37 -9.7)"/><path class="cls-20" d="M289.51,160.6l1-.95.35.57-1.38.37Z" transform="translate(-10.37 -9.7)"/><path class="cls-20" d="M293.42,207.63v1.11l-.35,0-.21-1.12Z" transform="translate(-10.37 -9.7)"/><path class="cls-20" d="M287.95,220.31l.64-1,.41.22-.68,1.12Z" transform="translate(-10.37 -9.7)"/><path class="cls-17" d="M273,158.61v.6l-.73-.4Z" transform="translate(-10.37 -9.7)"/><path class="cls-20" d="M266,116.43l-.57.86-.12-1.64.41-.08Z" transform="translate(-10.37 -9.7)"/><path class="cls-20" d="M283.15,158.59l-2,.55-.11-.45,1-.25Z" transform="translate(-10.37 -9.7)"/><path class="cls-20" d="M241.08,97.17l-1-.41.31-.37.69.79Z" transform="translate(-10.37 -9.7)"/><path class="cls-20" d="M288.09,180l-2,.4-.07-.38.83-.17Z" transform="translate(-10.37 -9.7)"/><path class="cls-23" d="M226.79,130.26l-.62,1-.5-1,.69-.83Z" transform="translate(-10.37 -9.7)"/><path class="cls-17" d="M114,241.42l.76-.86.29.19-.75,1.09Z" transform="translate(-10.37 -9.7)"/><path class="cls-20" d="M271.78,236.37c.23-.14.45-.29.69-.4,0,0,.15.17.22.26l-.64.51Z" transform="translate(-10.37 -9.7)"/><path class="cls-7" d="M93.88,234.84l-1.26-1.19.57-.61,1.31,1.15Z" transform="translate(-10.37 -9.7)"/><path class="cls-20" d="M267.63,138.21l-.75.55-.84-.42,1-.7Z" transform="translate(-10.37 -9.7)"/><path class="cls-7" d="M100.13,207.45l.43.55c-.07.83-.26,1.25-.8.22a2.32,2.32,0,0,1-.09-.81v0Z" transform="translate(-10.37 -9.7)"/><path class="cls-20" d="M251.09,102.86l-.47-.73.44-.2.12.87Z" transform="translate(-10.37 -9.7)"/><polygon class="cls-11" points="64.3 175.05 64.31 175.17 64.2 175.12 64.3 175.05"/><path class="cls-14" d="M94.86,232.29l-.72-.79.33-.3,1,.56Z" transform="translate(-10.37 -9.7)"/><path class="cls-9" d="M103.3,230.46l.3-.63.51.62Z" transform="translate(-10.37 -9.7)"/><path class="cls-20" d="M257.21,104l-.43-.08-.5-.54.27-.22Z" transform="translate(-10.37 -9.7)"/><path class="cls-20" d="M262.87,144l.4.11-.66.79-.24-.22Z" transform="translate(-10.37 -9.7)"/><path class="cls-20" d="M250.24,127.81l.87.2Z" transform="translate(-10.37 -9.7)"/><path class="cls-14" d="M272.58,125.43l-.17,1.07-.48-.11.24-1Z" transform="translate(-10.37 -9.7)"/><path class="cls-10" d="M262.47,136.34l.66.1-.82.69-.23-.16Z" transform="translate(-10.37 -9.7)"/><path class="cls-23" d="M209.41,140.44l-.28.19-.2-.39c.11,0,.24-.13.32-.09S209.36,140.33,209.41,140.44Z" transform="translate(-10.37 -9.7)"/><path class="cls-20" d="M256.31,102.44c-.11,0-.24.12-.3.08s-.12-.19-.18-.3c.11,0,.24-.12.31-.08S256.25,102.34,256.31,102.44Z" transform="translate(-10.37 -9.7)"/><path class="cls-20" d="M272.15,128.28l.05-.83h.64Z" transform="translate(-10.37 -9.7)"/><path class="cls-10" d="M259.48,135.87l.66.11-1.2.27Z" transform="translate(-10.37 -9.7)"/><path class="cls-24" d="M100.46,194.13l-.19,0-.19,0,.45-.69Z" transform="translate(-10.37 -9.7)"/><path class="cls-2" d="M75.52,177.91l-.72,0-.06-.22.74-.21Z" transform="translate(-10.37 -9.7)"/><path class="cls-10" d="M272.06,119.78h-.58l.37-.77.25,0Z" transform="translate(-10.37 -9.7)"/><path class="cls-14" d="M75,181.2q0,.16,0,.32h-1.1v-.27Z" transform="translate(-10.37 -9.7)"/><path class="cls-14" d="M263.6,150.33l.06,0,.87-.25,0,0Z" transform="translate(-10.37 -9.7)"/><path class="cls-20" d="M293,210.36s-.11,0-.13,0,0-.09-.06-.14l.22,0Z" transform="translate(-10.37 -9.7)"/><path class="cls-7" d="M252.69,128.33l.67,0,0,0-.54-.06Z" transform="translate(-10.37 -9.7)"/><path class="cls-20" d="M252.69,128.33h.1l.06.47h-.19Z" transform="translate(-10.37 -9.7)"/><path class="cls-21" d="M148.87,302.32l-.62-.09a.4.4,0,0,1,0-.12l.63-.06Z" transform="translate(-10.37 -9.7)"/><path class="cls-21" d="M147.19,301.68l-.7-.5.21-.18.66.52Z" transform="translate(-10.37 -9.7)"/><path class="cls-20" d="M237.41,134.24l-.49.05.43-1Z" transform="translate(-10.37 -9.7)"/><path class="cls-21" d="M146.09,300.78l-.42-.67.6.47Z" transform="translate(-10.37 -9.7)"/><path class="cls-7" d="M99.56,227.23h1l-.11.42h-.67Z" transform="translate(-10.37 -9.7)"/><path class="cls-14" d="M99.79,227.63h.67l-.36.38Z" transform="translate(-10.37 -9.7)"/><path class="cls-20" d="M251.56,103.59l-.42-.11,0-.63.08-.07Z" transform="translate(-10.37 -9.7)"/><path class="cls-9" d="M285.08,156.5l-.65.33-.18-.46.83-.22Q285.08,156.33,285.08,156.5Z" transform="translate(-10.37 -9.7)"/><path class="cls-7" d="M246.74,129.08l.8,0-.86.42Z" transform="translate(-10.37 -9.7)"/><path class="cls-7" d="M91.36,231.28c-.3.06-.48.15-.6.1s-.14-.24-.21-.36c.11,0,.24-.15.32-.12A2.41,2.41,0,0,1,91.36,231.28Z" transform="translate(-10.37 -9.7)"/><path class="cls-14" d="M94.14,231.51l-.48-.45.14-.21.67.36Z" transform="translate(-10.37 -9.7)"/><path class="cls-20" d="M276,233l-.07-.23.15,0Z" transform="translate(-10.37 -9.7)"/><path class="cls-20" d="M262.3,112l.06.14-.21,0a.39.39,0,0,1,0-.15S262.26,112,262.3,112Z" transform="translate(-10.37 -9.7)"/><path class="cls-19" d="M157.38,133.15l-.58-.61.28-.3.64.66Z" transform="translate(-10.37 -9.7)"/><path class="cls-19" d="M156.8,132.54l-.4-.62.68.33Z" transform="translate(-10.37 -9.7)"/><path class="cls-20" d="M242.56,102.42l-.12.14c0-.05-.09-.11-.08-.16s.07-.1.11-.14Z" transform="translate(-10.37 -9.7)"/><path class="cls-17" d="M277,159.77l.48.26-.48.13a1.46,1.46,0,0,0,.08-.27S277,159.82,277,159.77Z" transform="translate(-10.37 -9.7)"/><path class="cls-23" d="M208.07,141.47s.11,0,.13,0a.4.4,0,0,1,0,.15l-.22,0Z" transform="translate(-10.37 -9.7)"/><path class="cls-23" d="M210.16,138.61c0,.05.09.11.08.16s-.07.1-.11.14Z" transform="translate(-10.37 -9.7)"/><path class="cls-23" d="M211,137.8c0,.05.09.11.08.16s-.07.1-.11.14Z" transform="translate(-10.37 -9.7)"/><path class="cls-7" d="M255.66,106.4c-.21.14-.35.31-.48.3s-.24-.2-.37-.31c.12-.11.24-.29.38-.3S255.46,106.26,255.66,106.4Z" transform="translate(-10.37 -9.7)"/><polygon class="cls-11" points="200.33 111.54 200.51 111.5 200.34 111.43 200.33 111.54"/><path class="cls-23" d="M215.07,135.22s-.1,0-.13,0,0-.09-.06-.14l.21,0Z" transform="translate(-10.37 -9.7)"/><path class="cls-20" d="M240.14,125.83s0,.1-.07.13-.08,0-.12,0l.1-.22Z" transform="translate(-10.37 -9.7)"/><path class="cls-20" d="M243.48,104.41h-.42l.22-.51Z" transform="translate(-10.37 -9.7)"/><path class="cls-20" d="M265.2,135.09l.43-.41.48.46,0,0Z" transform="translate(-10.37 -9.7)"/><path class="cls-20" d="M270.37,117a.19.19,0,0,1,.11.16l-.18,0Z" transform="translate(-10.37 -9.7)"/><path class="cls-18" d="M223.82,130.74l.26.14s-.1.13-.13.13a1.26,1.26,0,0,1-.27-.12Z" transform="translate(-10.37 -9.7)"/><path class="cls-10" d="M272.57,125l.15-.29.07.24h-.28Z" transform="translate(-10.37 -9.7)"/><path class="cls-21" d="M146.49,301.18l-.4-.4.18-.21.43.43Z" transform="translate(-10.37 -9.7)"/><path class="cls-10" d="M272.58,125.43h-.42l.41-.39-.05,0a1.43,1.43,0,0,1,.14.27S272.61,125.38,272.58,125.43Z" transform="translate(-10.37 -9.7)"/><path class="cls-21" d="M147.37,301.52l.38.27-.55-.11Z" transform="translate(-10.37 -9.7)"/><path class="cls-19" d="M158.82,134l.27.7-.53-.29Z" transform="translate(-10.37 -9.7)"/><path class="cls-4" d="M251,207.19l-.35-.37.29-.19c0,.18,0,.36,0,.54Z" transform="translate(-10.37 -9.7)"/><path class="cls-7" d="M162.8,207.2l.08-.55.27.19-.38.36Z" transform="translate(-10.37 -9.7)"/><path class="cls-7" d="M279,137.75a1.11,1.11,0,0,1-.26.11s-.08-.07-.13-.11a1.22,1.22,0,0,1,.26-.11S279,137.71,279,137.75Z" transform="translate(-10.37 -9.7)"/><polygon class="cls-2" points="211.94 131.29 211.95 131.4 211.92 131.32 211.94 131.29"/><path class="cls-2" d="M118.86,180.9l.5,0-.24.37Z" transform="translate(-10.37 -9.7)"/><path class="cls-14" d="M279.71,143.37l-.26-.24.16-.12c0,.12,0,.24.07.36Z" transform="translate(-10.37 -9.7)"/><path class="cls-17" d="M142.55,151.35l0-.09.08,0Z" transform="translate(-10.37 -9.7)"/><path class="cls-17" d="M110.37,153.11l-.1-.58.35.32Z" transform="translate(-10.37 -9.7)"/><path class="cls-17" d="M110.61,152.86l.42.39-.37.25-.29-.38Z" transform="translate(-10.37 -9.7)"/><path class="cls-17" d="M285.08,156.5q0-.18,0-.36l.28.06Z" transform="translate(-10.37 -9.7)"/><path class="cls-2" d="M231.32,132.32l.44-.43Z" transform="translate(-10.37 -9.7)"/><path class="cls-7" d="M91.93,231.93l-.14.14a1.26,1.26,0,0,1-.13-.27s.08-.09.13-.13Z" transform="translate(-10.37 -9.7)"/><path class="cls-19" d="M157.71,132.9l.37.4-.33.29-.37-.44Z" transform="translate(-10.37 -9.7)"/><path class="cls-24" d="M275.8,133.27l-.42.26-.05-.5Z" transform="translate(-10.37 -9.7)"/><path class="cls-19" d="M158.15,134l-.4-.4.33-.29.41.41Z" transform="translate(-10.37 -9.7)"/><path class="cls-21" d="M289.32,218.34a1.17,1.17,0,0,1,.12.27s-.08.09-.12.13a1.27,1.27,0,0,1-.12-.27S289.27,218.39,289.32,218.34Z" transform="translate(-10.37 -9.7)"/><path class="cls-21" d="M289.77,217.88l-.25-.14s.1-.13.13-.12a1.22,1.22,0,0,1,.26.13Z" transform="translate(-10.37 -9.7)"/><path class="cls-21" d="M290.33,216.93a1.3,1.3,0,0,1-.28.13s-.08-.08-.13-.13a1.19,1.19,0,0,1,.26-.13S290.28,216.88,290.33,216.93Z" transform="translate(-10.37 -9.7)"/><path class="cls-21" d="M290.73,216.12a1.3,1.3,0,0,1-.28.13s-.08-.08-.13-.13a1.19,1.19,0,0,1,.26-.13S290.68,216.07,290.73,216.12Z" transform="translate(-10.37 -9.7)"/><path class="cls-19" d="M158.55,134.4l-.4-.41.34-.28.33.28Z" transform="translate(-10.37 -9.7)"/><path class="cls-1" d="M120.1,277.17l-.59-.38.06-.27,1.27.23Z" transform="translate(-10.37 -9.7)"/><path class="cls-1" d="M226.79,130.26l-.43-.82.46-.59.16.81Z" transform="translate(-10.37 -9.7)"/><path class="cls-23" d="M227,129.66l-.16-.81.46-.4Z" transform="translate(-10.37 -9.7)"/><path class="cls-1" d="M249.35,133.88l-.59.33.09-.9Z" transform="translate(-10.37 -9.7)"/><path class="cls-1" d="M129.8,249l-.35.86-.5-.44.51-.83Z" transform="translate(-10.37 -9.7)"/><path class="cls-1" d="M222.67,75.74c-.33,0-.51.11-.63.06s-.16-.23-.24-.35c.11,0,.24-.14.32-.11A2.9,2.9,0,0,1,222.67,75.74Z" transform="translate(-10.37 -9.7)"/><path class="cls-20" d="M225.58,135.33l-.87.26-.11-.23.58-.33Z" transform="translate(-10.37 -9.7)"/><path class="cls-20" d="M226.45,134.46l-.14.26s-.13-.1-.13-.13a1.26,1.26,0,0,1,.13-.27Z" transform="translate(-10.37 -9.7)"/><path class="cls-1" d="M100.13,207.45h-.47l0-.59Z" transform="translate(-10.37 -9.7)"/><path class="cls-20" d="M225.19,135l.55-.29-.16.59Z" transform="translate(-10.37 -9.7)"/><path class="cls-1" d="M230.54,134.92a1.16,1.16,0,0,1-.27.12s-.09-.08-.13-.12a1.27,1.27,0,0,1,.27-.12S230.5,134.88,230.54,134.92Z" transform="translate(-10.37 -9.7)"/><path class="cls-23" d="M120.18,257.84l.36-.18-.11.44Z" transform="translate(-10.37 -9.7)"/><path class="cls-1" d="M247.68,131.7l.25-.35.49.25-.46.35A2.21,2.21,0,0,0,247.68,131.7Z" transform="translate(-10.37 -9.7)"/><path class="cls-1" d="M248,131.94l-.35.25.07-.5A2.23,2.23,0,0,1,248,131.94Z" transform="translate(-10.37 -9.7)"/><path class="cls-1" d="M79,104.52l-.14-.46.44.13Z" transform="translate(-10.37 -9.7)"/><path class="cls-1" d="M200.75,136.84l-.28.61-.2,0,.11-.85Z" transform="translate(-10.37 -9.7)"/><path class="cls-1" d="M201.66,28.62l.63,0L202,29Z" transform="translate(-10.37 -9.7)"/><path class="cls-1" d="M102.67,228.27l.27,1.19-.24.06-.45-.79Z" transform="translate(-10.37 -9.7)"/><path class="cls-9" d="M107.26,231.64l-.07.16-.18-.23s.11-.09.15-.08S107.23,231.59,107.26,231.64Z" transform="translate(-10.37 -9.7)"/><path class="cls-25" d="M228.15,270.76c-11.54,15.11-29.95,15.33-42.16,0,4.3-4.12,8.73-8,14.78-9.39a2.73,2.73,0,0,1,1.55.16c2.2.92,4.45.44,6.65.15.79-.11,1.54-1.34,2.23-1.28,1.87.18,4,.34,5.48,1.3a101.08,101.08,0,0,1,8.64,6.59C226.27,269,227.13,269.85,228.15,270.76ZM199,273.28l-.76-1.47a14,14,0,0,0-2,1.36c-.3.28-.29.88-.42,1.34a3.91,3.91,0,0,0,1.43.32,4.71,4.71,0,0,0,1.38-.75c-.13,2,.82,2.6,2.8,1.91a2,2,0,0,1,.85-.19,12.73,12.73,0,0,0,2,.35c.42-1,1.74-2.05.41-3.3a9,9,0,0,1,1.38-.38c2.66-.3,5.34-.46,8-.87a4.33,4.33,0,0,0,3.7-3c-3.41-.56-6.67-1.48-10-.26a3.19,3.19,0,0,1-1.78-.05c-2.69-.72-5.07.25-8.06,1.26l3.14,2.52Z" transform="translate(-10.37 -9.7)"/><path class="cls-1" d="M87.29,183l.79.37-.08.3-1.06-.2Z" transform="translate(-10.37 -9.7)"/><path class="cls-1" d="M89,183.92l-.64-.08a.51.51,0,0,1,0-.14l.65-.05Z" transform="translate(-10.37 -9.7)"/><path class="cls-14" d="M92.28,185.46s0-.14.05-.14a.51.51,0,0,1,.17.05s0,.14-.05.14A.52.52,0,0,1,92.28,185.46Z" transform="translate(-10.37 -9.7)"/><path class="cls-24" d="M270.32,138.53l3.25-2.84.31.36-3.25,2.82Z" transform="translate(-10.37 -9.7)"/><path class="cls-20" d="M267.08,137.64l2.78-1.87.33.5-2.56,1.94Z" transform="translate(-10.37 -9.7)"/><path class="cls-22" d="M266.11,135.15l-.48-.46,1.27-.77Z" transform="translate(-10.37 -9.7)"/><path class="cls-20" d="M271.75,128.73l-.13-.5.56,0Z" transform="translate(-10.37 -9.7)"/><path class="cls-22" d="M267.69,133.12l1.06-.41Z" transform="translate(-10.37 -9.7)"/><path class="cls-22" d="M269.33,132.12l.41-1.06Z" transform="translate(-10.37 -9.7)"/><path class="cls-20" d="M273,140.42l-.65.36-.12-.19.49-.45Z" transform="translate(-10.37 -9.7)"/><path class="cls-20" d="M268,142.59c-.1.14-.18.31-.24.31a1.78,1.78,0,0,1-.48-.14c.05-.11.11-.31.16-.31A2.61,2.61,0,0,1,268,142.59Z" transform="translate(-10.37 -9.7)"/><path class="cls-22" d="M270.11,130.7l.45-.44Z" transform="translate(-10.37 -9.7)"/><path class="cls-22" d="M270.52,130.3l.44-.53Z" transform="translate(-10.37 -9.7)"/><path class="cls-10" d="M271.36,129.39l.37-.33Z" transform="translate(-10.37 -9.7)"/><path class="cls-24" d="M273.56,135.68l.29-.34.43.3-.41.4Z" transform="translate(-10.37 -9.7)"/><path class="cls-1" d="M263.45,142.81a1.08,1.08,0,0,1,.11.26s-.08.08-.12.12a1.2,1.2,0,0,1-.11-.26S263.4,142.86,263.45,142.81Z" transform="translate(-10.37 -9.7)"/><path class="cls-22" d="M269.7,131.1l.45-.45Z" transform="translate(-10.37 -9.7)"/><path class="cls-22" d="M267.3,133.53l.43-.43,0,.45Z" transform="translate(-10.37 -9.7)"/><path class="cls-22" d="M266.91,133.92l.41-.42,0,.44Z" transform="translate(-10.37 -9.7)"/><path class="cls-1" d="M256.58,131.59l-.59-1.23,2-1.12c.12.41.47,1,.33,1.18A10.18,10.18,0,0,1,256.58,131.59Z" transform="translate(-10.37 -9.7)"/><path class="cls-10" d="M264,131.69l-1,1.42-.5-.45,1.38-1.15H264Z" transform="translate(-10.37 -9.7)"/><path class="cls-10" d="M269.09,128.89c-.06.1-.1.23-.18.28s-.18-.05-.28-.08.08-.24.16-.29S269,128.86,269.09,128.89Z" transform="translate(-10.37 -9.7)"/><path class="cls-20" d="M265,130.77l-.41.4-.32-.28.57-.61Z" transform="translate(-10.37 -9.7)"/><path class="cls-20" d="M264.81,130.27l0,0,.53,0-.38.42Z" transform="translate(-10.37 -9.7)"/><path class="cls-20" d="M263.87,131.52l.37-.63.32.28-.51.53v-.16Z" transform="translate(-10.37 -9.7)"/><path class="cls-24" d="M253.25,123.9l-.44-.32,5.83-8.92" transform="translate(-10.37 -9.7)"/><path class="cls-1" d="M259.61,123.8c-.1,1.61-.56,2.29-1.61,2.42Z" transform="translate(-10.37 -9.7)"/><path class="cls-20" d="M262,117.75l-.73,3-.4-.52Z" transform="translate(-10.37 -9.7)"/><path class="cls-1" d="M260,122c.83.5.71,1-.41,1.83h-.17l-.08-.14.24-.75Z" transform="translate(-10.37 -9.7)"/><path class="cls-1" d="M260.91,120.19l.4.52-.48.91Z" transform="translate(-10.37 -9.7)"/><path class="cls-24" d="M253.25,123.9l-.76.24.32-.55Z" transform="translate(-10.37 -9.7)"/><path class="cls-20" d="M259.6,122.93l-.24.75Z" transform="translate(-10.37 -9.7)"/><path class="cls-1" d="M259.92,111.1l-.12.13s-.1-.1-.1-.14.07-.09.11-.13Z" transform="translate(-10.37 -9.7)"/><path class="cls-23" d="M305.91,93.33a25,25,0,0,1-4.22.58c-.71,0-1.4-.73-2.1-1.14.31-.53.53-1.4,1-1.51" transform="translate(-10.37 -9.7)"/><path class="cls-23" d="M219.65,50.77a23.3,23.3,0,0,1-2.94,3,3.82,3.82,0,0,1-2.35.24,2,2,0,0,1-.23-1.54,4.54,4.54,0,0,1,2-1.8C217,50.4,218.1,50.7,219.65,50.77Z" transform="translate(-10.37 -9.7)"/><path class="cls-26" d="M237.6,43.39c-.44,2.74-2.14,4.19-5,3.64l4.54-4.19Z" transform="translate(-10.37 -9.7)"/><path class="cls-10" d="M251.16,117.36l-.51,1.31-.43-.28.91-1Z" transform="translate(-10.37 -9.7)"/><path class="cls-10" d="M252,115.73l-.79,1.63,0,0,.42-1.51Z" transform="translate(-10.37 -9.7)"/><path class="cls-10" d="M248.91,120.68l.44-.77.26.12-.36.88Z" transform="translate(-10.37 -9.7)"/><path class="cls-1" d="M251.45,115.3l.45-1.15.44.17-.38,1Z" transform="translate(-10.37 -9.7)"/><path class="cls-1" d="M247.16,123.47l-.61.62-.32-.34.68-.61Z" transform="translate(-10.37 -9.7)"/><path class="cls-1" d="M246.91,123.14l.49,0-.24.34Z" transform="translate(-10.37 -9.7)"/><path class="cls-14" d="M131.33,199.65s.14,0,.14.05a.51.51,0,0,1-.05.17l-.15-.05Z" transform="translate(-10.37 -9.7)"/><path class="cls-1" d="M133.21,201.61l-.49-.65.17-.22.87.47Z" transform="translate(-10.37 -9.7)"/><path class="cls-1" d="M130.55,199.36a1,1,0,0,1,.1.25s-.08.08-.12.11a1.14,1.14,0,0,1-.1-.25S130.51,199.4,130.55,199.36Z" transform="translate(-10.37 -9.7)"/><path class="cls-1" d="M283.24,178.73h2.06C284.61,179.14,283.91,180.12,283.24,178.73Z" transform="translate(-10.37 -9.7)"/><path class="cls-17" d="M279.34,159.46c-.25.1-.46.27-.55.22s-.23-.32-.34-.49c.17,0,.35-.16.5-.13S279.17,159.29,279.34,159.46Z" transform="translate(-10.37 -9.7)"/><path class="cls-8" d="M201.05,272.07l-3.14-2.52c3-1,5.37-2,8.06-1.26a3.19,3.19,0,0,0,1.78.05c3.35-1.22,6.61-.3,10,.26a4.33,4.33,0,0,1-3.7,3c-2.64.41-5.32.57-8,.87a9,9,0,0,0-1.38.38Zm12.72-1.93,0-.53c-1.31,0-2.62-.09-3.91,0s-2.45.41-3.68.63l.05.52Z" transform="translate(-10.37 -9.7)"/><path class="cls-16" d="M201.05,272.07l3.66.8c1.33,1.25,0,2.27-.41,3.3a12.73,12.73,0,0,1-2-.35,2,2,0,0,0-.85.19c-2,.69-2.94,0-2.8-1.91l.42-.81Z" transform="translate(-10.37 -9.7)"/><path class="cls-2" d="M199,273.28l-.42.81a4.71,4.71,0,0,1-1.38.75,3.91,3.91,0,0,1-1.43-.32c.13-.46.13-1.06.42-1.34a14,14,0,0,1,2-1.36Z" transform="translate(-10.37 -9.7)"/></svg>