<svg id="Layer_1" data-name="Layer 1" xmlns="http://www.w3.org/2000/svg" width="271.93" height="6.71" viewBox="0 0 271.93 6.71"><defs><style>.cls-1{fill:#fff;}</style></defs><title>divider</title><path class="cls-1" d="M238.46,4.21s2.23-3.11,4.64-3.34c2.57-.25,4.5,2.53,9.67,3.34-5.17.82-7.1,3.59-9.67,3.34C240.69,7.32,238.46,4.22,238.46,4.21Z" transform="translate(0.08 -0.86)"/><path class="cls-1" d="M271.85,4.21s-2.23-3.11-4.64-3.34c-2.57-.25-4.5,2.53-9.67,3.34,5.17.82,7.1,3.59,9.67,3.34C269.62,7.32,271.84,4.22,271.85,4.21Z" transform="translate(0.08 -0.86)"/><path class="cls-1" d="M255.15,6.61a2.39,2.39,0,1,0-2.39-2.39A2.39,2.39,0,0,0,255.15,6.61Z" transform="translate(0.08 -0.86)"/><path class="cls-1" d="M205.06,4.21S207.3,1.11,209.7.88c2.57-.25,4.5,2.53,9.67,3.34-5.17.82-7.1,3.59-9.67,3.34C207.3,7.32,205.07,4.22,205.06,4.21Z" transform="translate(0.08 -0.86)"/><path class="cls-1" d="M238.46,4.21s-2.23-3.11-4.64-3.34c-2.57-.25-4.5,2.53-9.67,3.34,5.17.82,7.1,3.59,9.67,3.34C236.22,7.32,238.45,4.22,238.46,4.21Z" transform="translate(0.08 -0.86)"/><path class="cls-1" d="M221.76,6.61a2.39,2.39,0,1,0-2.39-2.39A2.39,2.39,0,0,0,221.76,6.61Z" transform="translate(0.08 -0.86)"/><path class="cls-1" d="M171.67,4.21S173.9,1.11,176.3.88c2.57-.25,4.5,2.53,9.67,3.34-5.17.82-7.1,3.59-9.67,3.34C173.9,7.32,171.68,4.22,171.67,4.21Z" transform="translate(0.08 -0.86)"/><path class="cls-1" d="M205.06,4.21s-2.23-3.11-4.64-3.34c-2.57-.25-4.5,2.53-9.67,3.34,5.17.82,7.1,3.59,9.67,3.34C202.83,7.32,205.06,4.22,205.06,4.21Z" transform="translate(0.08 -0.86)"/><path class="cls-1" d="M188.36,6.61A2.39,2.39,0,1,0,186,4.21,2.39,2.39,0,0,0,188.36,6.61Z" transform="translate(0.08 -0.86)"/><path class="cls-1" d="M138.28,4.21s2.23-3.11,4.63-3.34c2.57-.25,4.5,2.53,9.67,3.34-5.17.82-7.1,3.59-9.67,3.34C140.51,7.32,138.28,4.22,138.28,4.21Z" transform="translate(0.08 -0.86)"/><path class="cls-1" d="M171.67,4.21S169.44,1.11,167,.88c-2.57-.25-4.5,2.53-9.67,3.34,5.17.82,7.1,3.59,9.67,3.34C169.44,7.32,171.66,4.22,171.67,4.21Z" transform="translate(0.08 -0.86)"/><path class="cls-1" d="M155,6.61a2.39,2.39,0,1,0-2.39-2.39A2.39,2.39,0,0,0,155,6.61Z" transform="translate(0.08 -0.86)"/><path class="cls-1" d="M104.88,4.21s2.23-3.11,4.63-3.34c2.57-.25,4.5,2.53,9.67,3.34-5.17.82-7.1,3.59-9.67,3.34C107.12,7.32,104.89,4.22,104.88,4.21Z" transform="translate(0.08 -0.86)"/><path class="cls-1" d="M138.28,4.21S136,1.11,133.64.88c-2.57-.25-4.5,2.53-9.67,3.34,5.17.82,7.1,3.59,9.67,3.34C136,7.32,138.27,4.22,138.28,4.21Z" transform="translate(0.08 -0.86)"/><path class="cls-1" d="M121.58,6.61a2.39,2.39,0,1,0-2.39-2.39A2.39,2.39,0,0,0,121.58,6.61Z" transform="translate(0.08 -0.86)"/><path class="cls-1" d="M71.49,4.21S73.72,1.11,76.12.88c2.57-.25,4.5,2.53,9.67,3.34-5.17.82-7.1,3.59-9.67,3.34C73.72,7.32,71.5,4.22,71.49,4.21Z" transform="translate(0.08 -0.86)"/><path class="cls-1" d="M104.88,4.21s-2.23-3.11-4.64-3.34c-2.57-.25-4.5,2.53-9.67,3.34,5.17.82,7.1,3.59,9.67,3.34C102.65,7.32,104.87,4.22,104.88,4.21Z" transform="translate(0.08 -0.86)"/><path class="cls-1" d="M88.18,6.61A2.39,2.39,0,1,0,85.8,4.21,2.39,2.39,0,0,0,88.18,6.61Z" transform="translate(0.08 -0.86)"/><path class="cls-1" d="M38.1,4.21S40.33,1.11,42.73.88C45.3.62,47.23,3.4,52.4,4.21c-5.17.82-7.1,3.59-9.67,3.34C40.33,7.32,38.1,4.22,38.1,4.21Z" transform="translate(0.08 -0.86)"/><path class="cls-1" d="M71.49,4.21S69.26,1.11,66.85.88c-2.57-.25-4.5,2.53-9.67,3.34,5.17.82,7.1,3.59,9.67,3.34C69.26,7.32,71.48,4.22,71.49,4.21Z" transform="translate(0.08 -0.86)"/><path class="cls-1" d="M54.79,6.61A2.39,2.39,0,1,0,52.4,4.21,2.39,2.39,0,0,0,54.79,6.61Z" transform="translate(0.08 -0.86)"/><path class="cls-1" d="M4.7,4.21S6.93,1.11,9.34.88C11.91.62,13.84,3.4,19,4.21c-5.17.82-7.1,3.59-9.67,3.34C6.93,7.32,4.71,4.22,4.7,4.21Z" transform="translate(0.08 -0.86)"/><path class="cls-1" d="M38.1,4.21S35.86,1.11,33.46.88C30.89.62,29,3.4,23.79,4.21,29,5,30.89,7.81,33.46,7.55,35.86,7.32,38.09,4.22,38.1,4.21Z" transform="translate(0.08 -0.86)"/><path class="cls-1" d="M21.4,6.61A2.39,2.39,0,1,0,19,4.21,2.39,2.39,0,0,0,21.4,6.61Z" transform="translate(0.08 -0.86)"/><path class="cls-1" d="M2.31,6.6A2.39,2.39,0,1,0-.08,4.21,2.39,2.39,0,0,0,2.31,6.6Z" transform="translate(0.08 -0.86)"/></svg>